{
.appVersion = "3231";
.formatVersion = 3;
DisplayStrings = (
"
ⱭꞴƐƩƏƷǮƸɁ

AÁĂẮẶẰẲẴǍÂẤẬẦẨẪÄǞȦẠǠÀẢȂĀĄÅḀȺAAAÃÆǢ
ḂBBBḄƁBḆɃ
ĆČÇḈCĊꞳƇȻ
ĎḐḒĐḊDDḌƊDDDḎÐÐƉ
ÉĚȨḜÊẾḘỆỀỂỄȄËĖẸÈẺȆĒḖḔĘɆEẼḚƎ
ḞƑ
ǴĞǦĢĠƓḠǤ
ĦHḪȞḨḦḢHḤꜦꞪIꞍ
ABCDEFGHIJKLMNOPQRSTUVWXYZ
abcdefghijklmnopqrstuvwxyz",
"ĦḪȞḨḦḢḤꜦꞪꞍ",
"Ȁ"
);
axes = (
{
name = "Element Shape";
tag = ELSH;
}
);
customParameters = (
{
name = "Virtual Master";
value = (
{
Axis = "Element Shape";
Location = 0;
}
);
},
{
name = "Virtual Master";
value = (
{
Axis = "Element Shape";
Location = 50;
}
);
},
{
name = "Virtual Master";
value = (
{
Axis = "Element Shape";
Location = 100;
}
);
},
{
name = "Use Typo Metrics";
value = 1;
},
{
name = blueScale;
value = 0.04;
},
{
name = blueShift;
value = 7;
},
{
name = blueFuzz;
value = 1;
},
{
name = "Axis Mappings";
value = {
ELSH = {
0 = 0;
50 = 50;
100 = 100;
};
};
},
{
name = "Variable Font Origin";
value = m01;
}
);
date = "2023-02-21 22:06:01 +0000";
familyName = Danfo;
featurePrefixes = (
{
automatic = 1;
code = "languagesystem DFLT dflt;
";
name = Languagesystems;
}
);
fontMaster = (
{
axesValues = (
0
);
customParameters = (
{
name = "Axis Location";
value = (
{
Axis = "Element Shape";
Location = 0;
}
);
}
);
guides = (
{
pos = (604,75);
},
{
pos = (29,307);
},
{
angle = 180;
pos = (316,563);
},
{
angle = 90;
pos = (587,500);
},
{
angle = 90;
pos = (423,450);
},
{
pos = (266,439);
},
{
pos = (323,631);
},
{
pos = (456,544);
},
{
pos = (456,539);
}
);
iconName = Bold;
id = m01;
metricValues = (
{
pos = 900;
},
{
over = 6;
pos = 716;
},
{
pos = 434;
},
{
over = -6;
},
{
pos = -100;
}
);
name = Regular;
stemValues = (
63,
292
);
visible = 1;
}
);
glyphs = (
{
glyphname = A;
lastChange = "2024-01-03 11:08:59 +0000";
layers = (
{
anchors = (
{
name = bottom;
pos = (337,0);
},
{
name = ogonek;
pos = (583,0);
},
{
name = top;
pos = (345,716);
}
);
layerId = m01;
shapes = (
{
closed = 1;
nodes = (
(286,0,l),
(286,439,l),
(260,439,ls),
(243,439,o),
(226,450,o),
(226,472,cs),
(226,488,o),
(236,505,o),
(260,505,cs),
(360,505,ls),
(381,505,o),
(394,492,o),
(394,473,cs),
(394,453,o),
(381,439,o),
(360,439,cs),
(344,439,l),
(344,0,l),
(671,0,l),
(671,434,l),
(611,434,o),
(601,451,o),
(564,517,cs),
(452,716,l),
(258,716,l),
(137,514,ls),
(95,445,o),
(77,434,o),
(29,434,c),
(29,0,l)
);
},
{
pos = (29,150);
ref = _part.cut;
},
{
pos = (29,259);
ref = _part.cut;
},
{
pos = (344,150);
ref = _part.cut;
},
{
pos = (344,259);
ref = _part.cut;
},
{
closed = 1;
nodes = (
(309,647,l),
(357,564,l),
(260,564,l)
);
}
);
width = 700;
},
{
anchors = (
{
name = bottom;
pos = (337,0);
},
{
name = ogonek;
pos = (583,0);
},
{
name = top;
pos = (345,716);
}
);
associatedMasterId = m01;
attr = {
coordinates = (
50
);
};
layerId = "7A247881-CF67-422E-8BB0-1BBFEF16A632";
name = "{50} Jan 2, 24 at 16:03";
shapes = (
{
closed = 1;
nodes = (
(286,0,l),
(286,439,l),
(260,439,ls),
(243,439,o),
(226,450,o),
(226,472,cs),
(226,488,o),
(236,505,o),
(260,505,cs),
(360,505,ls),
(381,505,o),
(394,492,o),
(394,473,cs),
(394,453,o),
(381,439,o),
(360,439,cs),
(344,439,l),
(344,0,l),
(671,0,l),
(671,434,l),
(611,434,o),
(601,451,o),
(564,517,cs),
(452,716,l),
(258,716,l),
(137,514,ls),
(95,445,o),
(77,434,o),
(29,434,c),
(29,0,l)
);
},
{
pos = (29,186);
ref = _part.cut;
},
{
pos = (29,307);
ref = _part.cut;
},
{
pos = (344,186);
ref = _part.cut;
},
{
pos = (344,307);
ref = _part.cut;
},
{
closed = 1;
nodes = (
(309,647,l),
(357,564,l),
(260,564,l)
);
}
);
width = 700;
},
{
anchors = (
{
name = bottom;
pos = (337,0);
},
{
name = ogonek;
pos = (583,0);
},
{
name = top;
pos = (345,716);
}
);
associatedMasterId = m01;
attr = {
coordinates = (
100
);
};
layerId = "417315A3-0F47-440D-BC4D-A6DD37B15B33";
name = "Jan 2, 24 at 16:03";
shapes = (
{
closed = 1;
nodes = (
(286,0,l),
(286,439,l),
(260,439,ls),
(243,439,o),
(226,450,o),
(226,472,cs),
(226,488,o),
(236,505,o),
(260,505,cs),
(360,505,ls),
(381,505,o),
(394,492,o),
(394,473,cs),
(394,453,o),
(381,439,o),
(360,439,cs),
(344,439,l),
(344,0,l),
(671,0,l),
(671,434,l),
(611,434,o),
(601,451,o),
(564,517,cs),
(452,716,l),
(258,716,l),
(137,514,ls),
(95,445,o),
(77,434,o),
(29,434,c),
(29,0,l)
);
},
{
pos = (29,186);
ref = _part.cut;
},
{
pos = (29,308);
ref = _part.cut;
},
{
pos = (344,186);
ref = _part.cut;
},
{
pos = (344,308);
ref = _part.cut;
},
{
closed = 1;
nodes = (
(309,647,l),
(357,564,l),
(260,564,l)
);
}
);
width = 700;
}
);
unicode = 65;
},
{
color = 11;
glyphname = "Alpha-latin";
lastChange = "2024-01-03 14:36:21 +0000";
layers = (
{
background = {
shapes = (
{
closed = 1;
nodes = (
(342,-8,ls),
(440,-8,o),
(474,48,o),
(474,110,cs),
(474,172,l),
(517,172,o),
(527,148,o),
(533,113,cs),
(552,0,l),
(642,0,l),
(642,434,l),
(592,434,o),
(575,455,o),
(575,495,cs),
(575,569,ls),
(575,609,o),
(592,636,o),
(642,636,c),
(642,716,l),
(437,716,l),
(219,716,ls),
(110,716,o),
(29,643,o),
(29,536,cs),
(29,178,ls),
(29,71,o),
(109,-8,o),
(218,-8,cs)
);
},
{
closed = 1;
nodes = (
(248,439,o),
(231,460,o),
(231,500,cs),
(231,547,ls),
(231,609,o),
(248,636,o),
(298,636,cs),
(356,636,ls),
(406,636,o),
(423,609,o),
(423,564,cs),
(423,500,l),
(423,454,o),
(399,439,o),
(375,439,cs),
(272,439,ls)
);
}
);
};
layerId = m01;
shapes = (
{
closed = 1;
nodes = (
(315,-6,ls),
(427,-6,o),
(474,38,o),
(474,141,cs),
(474,174,l),
(510,174,o),
(526,158,o),
(533,115,cs),
(552,0,l),
(626,0,l),
(626,434,l),
(581,434,o),
(559,455,o),
(559,500,cs),
(559,564,ls),
(559,611,o),
(582,636,o),
(626,636,c),
(626,716,l),
(218,717,ls),
(109,717,o),
(29,638,o),
(29,531,cs),
(29,186,ls),
(29,75,o),
(109,-6,o),
(218,-6,cs)
);
},
{
closed = 1;
nodes = (
(245,439,o),
(229,461,o),
(229,492,cs),
(229,564,ls),
(229,609,o),
(252,631,o),
(297,631,c),
(349,631,ls),
(390,631,o),
(411,608,o),
(411,564,cs),
(411,492,ls),
(411,460,o),
(395,439,o),
(370,439,cs),
(349,439,o),
(327,448,o),
(323,501,c),
(316,501,l),
(312,448,o),
(288,439,o),
(267,439,cs)
);
}
);
width = 655;
}
);
metricRight = H;
unicode = 11373;
},
{
color = 11;
glyphname = Astroke;
lastChange = "2024-01-03 14:41:06 +0000";
layers = (
{
layerId = m01;
shapes = (
{
ref = A;
},
{
closed = 1;
nodes = (
(467,627,l),
(565,791,l),
(475,792,l),
(398,672,l)
);
},
{
closed = 1;
nodes = (
(71,-60,l),
(129,57,l),
(69,137,l),
(-19,-59,l)
);
}
);
width = 700;
},
{
associatedMasterId = m01;
attr = {
coordinates = (
50
);
};
layerId = "DA35E7D9-030E-43CD-811B-FDF7F31CC8B4";
name = "Jan 3, 24 at 15:40";
shapes = (
{
ref = A;
},
{
closed = 1;
nodes = (
(467,627,l),
(565,791,l),
(475,792,l),
(398,672,l)
);
},
{
closed = 1;
nodes = (
(71,-60,l),
(129,57,l),
(69,137,l),
(-19,-59,l)
);
}
);
width = 700;
},
{
associatedMasterId = m01;
attr = {
coordinates = (
100
);
};
layerId = "D0BE3236-18C9-48BA-AE1A-D43C388F558E";
name = "Jan 3, 24 at 15:40";
shapes = (
{
ref = A;
},
{
closed = 1;
nodes = (
(467,627,l),
(565,791,l),
(475,792,l),
(398,672,l)
);
},
{
closed = 1;
nodes = (
(71,-60,l),
(129,57,l),
(69,137,l),
(-19,-59,l)
);
}
);
width = 700;
}
);
unicode = 570;
},
{
color = 11;
glyphname = AE;
lastChange = "2024-01-03 14:49:47 +0000";
layers = (
{
anchors = (
{
name = bottom;
pos = (337,0);
},
{
name = ogonek;
pos = (442,0);
},
{
name = top;
pos = (544,716);
}
);
layerId = m01;
shapes = (
{
closed = 1;
nodes = (
(308,0,l),
(308,439,l),
(296,439,ls),
(279,439,o),
(262,450,o),
(262,472,cs),
(262,488,o),
(272,505,o),
(296,505,cs),
(377,505,ls),
(398,505,o),
(411,492,o),
(411,473,cs),
(411,453,o),
(398,439,o),
(377,439,cs),
(366,439,l),
(366,0,l),
(861,0,l),
(861,500,l),
(771,500,l),
(771,460,o),
(754,439,o),
(704,439,cs),
(577,439,l),
(577,505,l),
(694,505,l),
(694,575,l),
(577,575,l),
(577,636,l),
(698,636,ls),
(748,636,o),
(765,609,o),
(765,569,c),
(855,569,l),
(855,716,l),
(398,716,l),
(167,514,ls),
(107,461,o),
(77,434,o),
(29,434,c),
(29,0,l)
);
},
{
closed = 1;
nodes = (
(411,632,l),
(411,564,l),
(334,564,l)
);
},
{
pos = (29,150);
ref = _part.cut;
},
{
pos = (29,259);
ref = _part.cut;
},
{
pos = (366,150);
ref = _part.cut;
},
{
pos = (366,259);
ref = _part.cut;
},
{
pos = (861,150);
ref = _part.cut;
scale = (-1,1);
},
{
pos = (861,259);
ref = _part.cut;
scale = (-1,1);
}
);
width = 890;
},
{
anchors = (
{
name = bottom;
pos = (337,0);
},
{
name = ogonek;
pos = (442,0);
},
{
name = top;
pos = (544,716);
}
);
associatedMasterId = m01;
attr = {
coordinates = (
50
);
};
layerId = "90033E1D-3CB9-452B-8792-55C950B9D1FF";
name = "Jan 3, 24 at 15:47";
shapes = (
{
closed = 1;
nodes = (
(308,0,l),
(308,439,l),
(296,439,ls),
(279,439,o),
(262,450,o),
(262,472,cs),
(262,488,o),
(272,505,o),
(296,505,cs),
(377,505,ls),
(398,505,o),
(411,492,o),
(411,473,cs),
(411,453,o),
(398,439,o),
(377,439,cs),
(366,439,l),
(366,0,l),
(861,0,l),
(861,500,l),
(771,500,l),
(771,460,o),
(754,439,o),
(704,439,cs),
(577,439,l),
(577,505,l),
(694,505,l),
(694,575,l),
(577,575,l),
(577,636,l),
(698,636,ls),
(748,636,o),
(765,609,o),
(765,569,c),
(855,569,l),
(855,716,l),
(398,716,l),
(167,514,ls),
(107,461,o),
(77,434,o),
(29,434,c),
(29,0,l)
);
},
{
closed = 1;
nodes = (
(411,632,l),
(411,564,l),
(334,564,l)
);
},
{
pos = (29,186);
ref = _part.cut;
},
{
pos = (29,307);
ref = _part.cut;
},
{
pos = (366,186);
ref = _part.cut;
},
{
pos = (366,307);
ref = _part.cut;
},
{
pos = (861,186);
ref = _part.cut;
scale = (-1,1);
},
{
pos = (861,307);
ref = _part.cut;
scale = (-1,1);
}
);
width = 890;
},
{
anchors = (
{
name = bottom;
pos = (337,0);
},
{
name = ogonek;
pos = (442,0);
},
{
name = top;
pos = (544,716);
}
);
associatedMasterId = m01;
attr = {
coordinates = (
100
);
};
layerId = "7C707F6F-8E18-4E84-BCAD-37A1A438CA15";
name = "Jan 3, 24 at 15:47";
shapes = (
{
closed = 1;
nodes = (
(308,0,l),
(308,439,l),
(296,439,ls),
(279,439,o),
(262,450,o),
(262,472,cs),
(262,488,o),
(272,505,o),
(296,505,cs),
(377,505,ls),
(398,505,o),
(411,492,o),
(411,473,cs),
(411,453,o),
(398,439,o),
(377,439,cs),
(366,439,l),
(366,0,l),
(861,0,l),
(861,500,l),
(771,500,l),
(771,460,o),
(754,439,o),
(704,439,cs),
(577,439,l),
(577,505,l),
(694,505,l),
(694,575,l),
(577,575,l),
(577,636,l),
(698,636,ls),
(748,636,o),
(765,609,o),
(765,569,c),
(855,569,l),
(855,716,l),
(398,716,l),
(167,514,ls),
(107,461,o),
(77,434,o),
(29,434,c),
(29,0,l)
);
},
{
closed = 1;
nodes = (
(411,632,l),
(411,564,l),
(334,564,l)
);
},
{
pos = (29,186);
ref = _part.cut;
},
{
pos = (29,308);
ref = _part.cut;
},
{
pos = (366,186);
ref = _part.cut;
},
{
pos = (366,308);
ref = _part.cut;
},
{
pos = (861,186);
ref = _part.cut;
scale = (-1,1);
},
{
pos = (861,308);
ref = _part.cut;
scale = (-1,1);
}
);
width = 890;
}
);
metricLeft = A;
metricRight = E;
unicode = 198;
},
{
glyphname = B;
lastChange = "2024-01-03 14:23:03 +0000";
layers = (
{
anchors = (
{
name = bottom;
pos = (317,0);
},
{
name = center;
pos = (333,358);
},
{
name = hookjoin;
pos = (29,636);
},
{
name = top;
pos = (322,716);
}
);
layerId = m01;
shapes = (
{
closed = 1;
nodes = (
(425,0,ls),
(534,0,o),
(614,75,o),
(614,186,cs),
(614,375,ls),
(614,518,o),
(525,539,o),
(456,539,c),
(456,544,l),
(474,544,ls),
(511,544,o),
(589,560,o),
(589,628,c),
(589,712,o),
(500,716,o),
(460,716,c),
(29,716,l),
(29,636,l),
(79,636,o),
(96,609,o),
(96,569,cs),
(96,495,ls),
(96,455,o),
(79,434,o),
(29,434,c),
(29,0,l)
);
},
{
closed = 1;
nodes = (
(264,505,l),
(379,505,ls),
(407,505,o),
(420,493,o),
(420,472,cs),
(420,450,o),
(404,439,o),
(378,439,cs),
(264,439,l)
);
},
{
closed = 1;
nodes = (
(264,636,l),
(359,636,ls),
(387,636,o),
(400,622,o),
(400,604,cs),
(400,586,o),
(384,575,o),
(358,575,cs),
(264,575,l)
);
},
{
pos = (29,150);
ref = _part.cut;
},
{
pos = (29,259);
ref = _part.cut;
},
{
pos = (614,150);
ref = _part.cut;
scale = (-1,1);
},
{
pos = (614,259);
ref = _part.cut;
scale = (-1,1);
}
);
width = 639;
},
{
anchors = (
{
name = bottom;
pos = (317,0);
},
{
name = center;
pos = (333,358);
},
{
name = hookjoin;
pos = (29,636);
},
{
name = top;
pos = (322,716);
}
);
associatedMasterId = m01;
attr = {
coordinates = (
50
);
};
layerId = "B6A911D2-8A51-42B4-8C04-B34C51A6AC93";
name = "Jan 3, 24 at 07:49";
shapes = (
{
closed = 1;
nodes = (
(425,0,ls),
(534,0,o),
(614,75,o),
(614,186,cs),
(614,375,ls),
(614,518,o),
(525,539,o),
(456,539,c),
(456,544,l),
(474,544,ls),
(511,544,o),
(589,560,o),
(589,628,c),
(589,712,o),
(500,716,o),
(460,716,c),
(29,716,l),
(29,636,l),
(79,636,o),
(96,609,o),
(96,569,cs),
(96,495,ls),
(96,455,o),
(79,434,o),
(29,434,c),
(29,0,l)
);
},
{
closed = 1;
nodes = (
(264,505,l),
(379,505,ls),
(407,505,o),
(420,493,o),
(420,472,cs),
(420,450,o),
(404,439,o),
(378,439,cs),
(264,439,l)
);
},
{
closed = 1;
nodes = (
(264,636,l),
(359,636,ls),
(387,636,o),
(400,622,o),
(400,604,cs),
(400,586,o),
(384,575,o),
(358,575,cs),
(264,575,l)
);
},
{
pos = (29,198);
ref = _part.cut;
},
{
pos = (29,307);
ref = _part.cut;
},
{
pos = (614,198);
ref = _part.cut;
scale = (-1,1);
},
{
pos = (614,307);
ref = _part.cut;
scale = (-1,1);
}
);
width = 639;
},
{
anchors = (
{
name = bottom;
pos = (317,0);
},
{
name = center;
pos = (333,358);
},
{
name = hookjoin;
pos = (29,636);
},
{
name = top;
pos = (322,716);
}
);
associatedMasterId = m01;
attr = {
coordinates = (
100
);
};
layerId = "63DAC0FF-11C0-4FDC-BA6B-9AF068430200";
name = "Jan 3, 24 at 07:49";
shapes = (
{
closed = 1;
nodes = (
(425,0,ls),
(534,0,o),
(614,75,o),
(614,186,cs),
(614,375,ls),
(614,518,o),
(525,539,o),
(456,539,c),
(456,544,l),
(474,544,ls),
(511,544,o),
(589,560,o),
(589,628,cs),
(589,712,o),
(500,716,o),
(460,716,cs),
(29,716,l),
(29,636,l),
(79,636,o),
(96,609,o),
(96,569,cs),
(96,495,ls),
(96,455,o),
(79,434,o),
(29,434,c),
(29,0,l)
);
},
{
closed = 1;
nodes = (
(264,505,l),
(379,505,ls),
(407,505,o),
(420,493,o),
(420,472,cs),
(420,450,o),
(404,439,o),
(378,439,cs),
(264,439,l)
);
},
{
closed = 1;
nodes = (
(264,636,l),
(359,636,ls),
(387,636,o),
(400,622,o),
(400,604,cs),
(400,586,o),
(384,575,o),
(358,575,cs),
(264,575,l)
);
},
{
pos = (29,199);
ref = _part.cut;
},
{
pos = (29,308);
ref = _part.cut;
},
{
pos = (614,199);
ref = _part.cut;
scale = (-1,1);
},
{
pos = (614,308);
ref = _part.cut;
scale = (-1,1);
}
);
width = 639;
}
);
metricLeft = H;
unicode = 66;
},
{
color = 11;
glyphname = "Beta-latin";
lastChange = "2024-01-03 14:58:04 +0000";
layers = (
{
anchors = (
{
name = bottom;
pos = (342,0);
},
{
name = bottomleft;
pos = (3,-232);
},
{
name = center;
pos = (342,450);
},
{
name = ogonek;
pos = (323,484);
},
{
name = top;
pos = (342,900);
}
);
layerId = m01;
shapes = (
{
closed = 1;
nodes = (
(250,-126,l),
(250,-46,l),
(200,-46,o),
(183,-14,o),
(183,26,cs),
(183,131,l),
(189,131,l),
(189,28,o),
(284,-6,o),
(376,-6,cs),
(533,-6,o),
(609,83,o),
(609,265,cs),
(609,294,ls),
(609,518,o),
(520,539,o),
(451,539,c),
(451,544,l),
(469,544,ls),
(506,544,o),
(568,555,o),
(568,624,cs),
(568,699,o),
(487,716,o),
(420,716,cs),
(277,716,ls),
(74,716,o),
(25,664,o),
(25,439,cs),
(25,21,ls),
(25,-19,o),
(8,-46,o),
(-42,-46,c),
(-42,-126,l)
);
},
{
closed = 1;
nodes = (
(254,439,o),
(209,455,o),
(209,505,cs),
(209,543,ls),
(209,615,o),
(226,638,o),
(292,638,cs),
(337,638,ls),
(369,638,o),
(384,625,o),
(384,605,cs),
(384,588,o),
(369,575,o),
(348,575,cs),
(277,575,l),
(277,505,l),
(369,505,ls),
(397,505,o),
(410,493,o),
(410,472,cs),
(410,450,o),
(394,439,o),
(368,439,cs),
(281,439,ls)
);
}
);
width = 634;
},
{
anchors = (
{
name = bottom;
pos = (342,0);
},
{
name = bottomleft;
pos = (3,-232);
},
{
name = center;
pos = (342,450);
},
{
name = ogonek;
pos = (323,484);
},
{
name = top;
pos = (342,900);
}
);
associatedMasterId = m01;
attr = {
coordinates = (
50
);
};
layerId = "028412FF-689A-444C-80AF-696E75A8BD5D";
name = "Jan 3, 24 at 15:53";
shapes = (
{
closed = 1;
nodes = (
(250,-126,l),
(250,-46,l),
(200,-46,o),
(183,-14,o),
(183,26,cs),
(183,131,l),
(189,131,l),
(189,28,o),
(284,-6,o),
(376,-6,cs),
(533,-6,o),
(609,83,o),
(609,265,cs),
(609,294,ls),
(609,518,o),
(520,539,o),
(451,539,c),
(451,544,l),
(469,544,ls),
(506,544,o),
(568,555,o),
(568,624,cs),
(568,699,o),
(487,716,o),
(420,716,cs),
(277,716,ls),
(74,716,o),
(25,664,o),
(25,439,cs),
(25,21,ls),
(25,-19,o),
(8,-46,o),
(-42,-46,c),
(-42,-126,l)
);
},
{
closed = 1;
nodes = (
(254,439,o),
(209,455,o),
(209,505,cs),
(209,543,ls),
(209,615,o),
(226,638,o),
(292,638,cs),
(337,638,ls),
(369,638,o),
(384,625,o),
(384,605,cs),
(384,588,o),
(369,575,o),
(348,575,cs),
(277,575,l),
(277,505,l),
(369,505,ls),
(397,505,o),
(410,493,o),
(410,472,cs),
(410,450,o),
(394,439,o),
(368,439,cs),
(281,439,ls)
);
}
);
width = 634;
},
{
anchors = (
{
name = bottom;
pos = (342,0);
},
{
name = bottomleft;
pos = (3,-232);
},
{
name = center;
pos = (342,450);
},
{
name = ogonek;
pos = (323,484);
},
{
name = top;
pos = (342,900);
}
);
associatedMasterId = m01;
attr = {
coordinates = (
100
);
};
layerId = "013FA7DD-BB27-48EA-B449-0C334384C566";
name = "Jan 3, 24 at 15:53";
shapes = (
{
closed = 1;
nodes = (
(250,-126,l),
(250,-46,l),
(200,-46,o),
(183,-14,o),
(183,26,cs),
(183,131,l),
(189,131,l),
(189,28,o),
(284,-6,o),
(376,-6,cs),
(533,-6,o),
(609,83,o),
(609,265,cs),
(609,294,ls),
(609,518,o),
(520,539,o),
(451,539,c),
(451,544,l),
(469,544,ls),
(506,544,o),
(568,555,o),
(568,624,cs),
(568,699,o),
(487,716,o),
(420,716,cs),
(277,716,ls),
(74,716,o),
(25,664,o),
(25,439,cs),
(25,21,ls),
(25,-19,o),
(8,-46,o),
(-42,-46,c),
(-42,-126,l)
);
},
{
closed = 1;
nodes = (
(254,439,o),
(209,455,o),
(209,505,cs),
(209,543,ls),
(209,615,o),
(226,638,o),
(292,638,cs),
(337,638,ls),
(369,638,o),
(384,625,o),
(384,605,cs),
(384,588,o),
(369,575,o),
(348,575,cs),
(277,575,l),
(277,505,l),
(369,505,ls),
(397,505,o),
(410,493,o),
(410,472,cs),
(410,450,o),
(394,439,o),
(368,439,cs),
(281,439,ls)
);
}
);
width = 634;
}
);
metricRight = B;
unicode = 42932;
},
{
color = 11;
glyphname = Bhook;
lastChange = "2024-01-03 15:00:30 +0000";
layers = (
{
anchors = (
{
name = bottom;
pos = (475,0);
},
{
name = center;
pos = (491,358);
},
{
name = hookjoin;
pos = (187,636);
},
{
name = top;
pos = (480,716);
}
);
layerId = m01;
shapes = (
{
closed = 1;
nodes = (
(583,0,ls),
(692,0,o),
(772,79,o),
(772,186,cs),
(772,375,ls),
(772,518,o),
(683,539,o),
(614,539,c),
(614,544,l),
(632,544,ls),
(669,544,o),
(747,560,o),
(747,628,cs),
(747,712,o),
(658,716,o),
(618,716,cs),
(149,716,ls),
(59,716,o),
(0,638,o),
(0,547,c),
(123,547,l),
(123,592,o),
(140,636,o),
(187,636,cs),
(237,636,o),
(254,609,o),
(254,569,cs),
(254,495,ls),
(254,455,o),
(237,434,o),
(187,434,c),
(187,0,l)
);
},
{
closed = 1;
nodes = (
(422,505,l),
(537,505,ls),
(565,505,o),
(578,493,o),
(578,472,cs),
(578,450,o),
(562,439,o),
(536,439,cs),
(422,439,l)
);
},
{
closed = 1;
nodes = (
(422,636,l),
(517,636,ls),
(545,636,o),
(558,622,o),
(558,604,cs),
(558,586,o),
(542,575,o),
(516,575,cs),
(422,575,l)
);
},
{
pos = (187,150);
ref = _part.cut;
},
{
pos = (187,259);
ref = _part.cut;
},
{
pos = (772,150);
ref = _part.cut;
scale = (-1,1);
},
{
pos = (772,259);
ref = _part.cut;
scale = (-1,1);
}
);
width = 797;
},
{
anchors = (
{
name = bottom;
pos = (475,0);
},
{
name = center;
pos = (491,358);
},
{
name = hookjoin;
pos = (187,636);
},
{
name = top;
pos = (480,716);
}
);
associatedMasterId = m01;
attr = {
coordinates = (
50
);
};
layerId = "37AEEC9F-7B62-4823-B8FA-30EC3BE68CC1";
name = "Jan 3, 24 at 15:58";
shapes = (
{
closed = 1;
nodes = (
(583,0,ls),
(692,0,o),
(772,79,o),
(772,186,cs),
(772,375,ls),
(772,518,o),
(683,539,o),
(614,539,c),
(614,544,l),
(632,544,ls),
(669,544,o),
(747,560,o),
(747,628,cs),
(747,712,o),
(658,716,o),
(618,716,cs),
(149,716,ls),
(59,716,o),
(0,638,o),
(0,547,c),
(123,547,l),
(123,592,o),
(140,636,o),
(187,636,cs),
(237,636,o),
(254,609,o),
(254,569,cs),
(254,495,ls),
(254,455,o),
(237,434,o),
(187,434,c),
(187,0,l)
);
},
{
closed = 1;
nodes = (
(422,505,l),
(537,505,ls),
(565,505,o),
(578,493,o),
(578,472,cs),
(578,450,o),
(562,439,o),
(536,439,cs),
(422,439,l)
);
},
{
closed = 1;
nodes = (
(422,636,l),
(517,636,ls),
(545,636,o),
(558,622,o),
(558,604,cs),
(558,586,o),
(542,575,o),
(516,575,cs),
(422,575,l)
);
},
{
pos = (187,198);
ref = _part.cut;
},
{
pos = (187,307);
ref = _part.cut;
},
{
pos = (772,198);
ref = _part.cut;
scale = (-1,1);
},
{
pos = (772,307);
ref = _part.cut;
scale = (-1,1);
}
);
width = 797;
},
{
anchors = (
{
name = bottom;
pos = (475,0);
},
{
name = center;
pos = (491,358);
},
{
name = hookjoin;
pos = (187,636);
},
{
name = top;
pos = (480,716);
}
);
associatedMasterId = m01;
attr = {
coordinates = (
100
);
};
layerId = "29DA200A-B49E-493D-8076-D5789C49FB22";
name = "Jan 3, 24 at 15:58";
shapes = (
{
closed = 1;
nodes = (
(583,0,ls),
(692,0,o),
(772,79,o),
(772,186,cs),
(772,375,ls),
(772,518,o),
(683,539,o),
(614,539,c),
(614,544,l),
(632,544,ls),
(669,544,o),
(747,560,o),
(747,628,cs),
(747,712,o),
(658,716,o),
(618,716,cs),
(149,716,ls),
(59,716,o),
(0,638,o),
(0,547,c),
(123,547,l),
(123,592,o),
(140,636,o),
(187,636,cs),
(237,636,o),
(254,609,o),
(254,569,cs),
(254,495,ls),
(254,455,o),
(237,434,o),
(187,434,c),
(187,0,l)
);
},
{
closed = 1;
nodes = (
(422,505,l),
(537,505,ls),
(565,505,o),
(578,493,o),
(578,472,cs),
(578,450,o),
(562,439,o),
(536,439,cs),
(422,439,l)
);
},
{
closed = 1;
nodes = (
(422,636,l),
(517,636,ls),
(545,636,o),
(558,622,o),
(558,604,cs),
(558,586,o),
(542,575,o),
(516,575,cs),
(422,575,l)
);
},
{
pos = (187,199);
ref = _part.cut;
},
{
pos = (187,308);
ref = _part.cut;
},
{
pos = (772,199);
ref = _part.cut;
scale = (-1,1);
},
{
pos = (772,308);
ref = _part.cut;
scale = (-1,1);
}
);
width = 797;
}
);
unicode = 385;
},
{
color = 11;
glyphname = Bstroke;
lastChange = "2024-01-03 15:02:57 +0000";
layers = (
{
anchors = (
{
name = bottom;
pos = (317,0);
},
{
name = center;
pos = (333,358);
},
{
name = hookjoin;
pos = (29,636);
},
{
name = top;
pos = (322,716);
}
);
layerId = m01;
shapes = (
{
closed = 1;
nodes = (
(425,0,ls),
(534,0,o),
(614,79,o),
(614,186,cs),
(614,375,ls),
(614,518,o),
(525,539,o),
(456,539,c),
(456,544,l),
(474,544,ls),
(511,544,o),
(589,560,o),
(589,628,c),
(589,712,o),
(500,716,o),
(460,716,c),
(29,716,l),
(29,636,l),
(79,636,o),
(96,609,o),
(96,569,cs),
(96,495,ls),
(96,455,o),
(79,434,o),
(29,434,c),
(29,0,l)
);
},
{
closed = 1;
nodes = (
(264,505,l),
(379,505,ls),
(407,505,o),
(420,493,o),
(420,472,cs),
(420,450,o),
(404,439,o),
(378,439,cs),
(264,439,l)
);
},
{
closed = 1;
nodes = (
(264,636,l),
(359,636,ls),
(387,636,o),
(400,622,o),
(400,604,cs),
(400,586,o),
(384,575,o),
(358,575,cs),
(264,575,l)
);
},
{
closed = 1;
nodes = (
(29,472,l),
(144,472,l),
(144,524,l),
(29,524,l)
);
},
{
pos = (29,150);
ref = _part.cut;
},
{
pos = (29,259);
ref = _part.cut;
},
{
pos = (614,150);
ref = _part.cut;
scale = (-1,1);
},
{
pos = (614,259);
ref = _part.cut;
scale = (-1,1);
}
);
width = 639;
},
{
anchors = (
{
name = bottom;
pos = (317,0);
},
{
name = center;
pos = (333,358);
},
{
name = hookjoin;
pos = (29,636);
},
{
name = top;
pos = (322,716);
}
);
associatedMasterId = m01;
attr = {
coordinates = (
50
);
};
layerId = "3A563F62-673B-4CC7-9AD8-39F2B34A8A9F";
name = "Jan 3, 24 at 16:02";
shapes = (
{
closed = 1;
nodes = (
(425,0,ls),
(534,0,o),
(614,79,o),
(614,186,cs),
(614,375,ls),
(614,518,o),
(525,539,o),
(456,539,c),
(456,544,l),
(474,544,ls),
(511,544,o),
(589,560,o),
(589,628,c),
(589,712,o),
(500,716,o),
(460,716,c),
(29,716,l),
(29,636,l),
(79,636,o),
(96,609,o),
(96,569,cs),
(96,495,ls),
(96,455,o),
(79,434,o),
(29,434,c),
(29,0,l)
);
},
{
closed = 1;
nodes = (
(264,505,l),
(379,505,ls),
(407,505,o),
(420,493,o),
(420,472,cs),
(420,450,o),
(404,439,o),
(378,439,cs),
(264,439,l)
);
},
{
closed = 1;
nodes = (
(264,636,l),
(359,636,ls),
(387,636,o),
(400,622,o),
(400,604,cs),
(400,586,o),
(384,575,o),
(358,575,cs),
(264,575,l)
);
},
{
closed = 1;
nodes = (
(29,472,l),
(144,472,l),
(144,524,l),
(29,524,l)
);
},
{
pos = (29,198);
ref = _part.cut;
},
{
pos = (29,307);
ref = _part.cut;
},
{
pos = (614,198);
ref = _part.cut;
scale = (-1,1);
},
{
pos = (614,307);
ref = _part.cut;
scale = (-1,1);
}
);
width = 639;
},
{
anchors = (
{
name = bottom;
pos = (317,0);
},
{
name = center;
pos = (333,358);
},
{
name = hookjoin;
pos = (29,636);
},
{
name = top;
pos = (322,716);
}
);
associatedMasterId = m01;
attr = {
coordinates = (
100
);
};
layerId = "EFD5192A-F7DE-4532-978B-64B8CBD1E9F9";
name = "Jan 3, 24 at 16:02";
shapes = (
{
closed = 1;
nodes = (
(425,0,ls),
(534,0,o),
(614,79,o),
(614,186,cs),
(614,375,ls),
(614,518,o),
(525,539,o),
(456,539,c),
(456,544,l),
(474,544,ls),
(511,544,o),
(589,560,o),
(589,628,c),
(589,712,o),
(500,716,o),
(460,716,c),
(29,716,l),
(29,636,l),
(79,636,o),
(96,609,o),
(96,569,cs),
(96,495,ls),
(96,455,o),
(79,434,o),
(29,434,c),
(29,0,l)
);
},
{
closed = 1;
nodes = (
(264,505,l),
(379,505,ls),
(407,505,o),
(420,493,o),
(420,472,cs),
(420,450,o),
(404,439,o),
(378,439,cs),
(264,439,l)
);
},
{
closed = 1;
nodes = (
(264,636,l),
(359,636,ls),
(387,636,o),
(400,622,o),
(400,604,cs),
(400,586,o),
(384,575,o),
(358,575,cs),
(264,575,l)
);
},
{
closed = 1;
nodes = (
(29,472,l),
(144,472,l),
(144,524,l),
(29,524,l)
);
},
{
pos = (29,199);
ref = _part.cut;
},
{
pos = (29,308);
ref = _part.cut;
},
{
pos = (614,199);
ref = _part.cut;
scale = (-1,1);
},
{
pos = (614,308);
ref = _part.cut;
scale = (-1,1);
}
);
width = 639;
}
);
unicode = 579;
},
{
glyphname = C;
lastChange = "2024-01-03 14:23:09 +0000";
layers = (
{
anchors = (
{
name = bottom;
pos = (328,0);
},
{
name = hooktop;
pos = (587,564);
},
{
name = top;
pos = (318,722);
}
);
background = {
shapes = (
{
closed = 1;
nodes = (
(392,-6,l),
(504,-6,o),
(587,75,o),
(587,186,cs),
(587,500,l),
(423,500,l),
(423,460,o),
(407,439,o),
(377,439,cs),
(277,439,ls),
(248,439,o),
(231,458,o),
(231,492,cs),
(231,569,ls),
(231,614,o),
(254,636,o),
(299,636,cs),
(355,636,ls),
(401,636,o),
(423,613,o),
(423,564,c),
(587,564,l),
(587,652,o),
(517,722,o),
(426,722,cs),
(218,722,ls),
(110,722,o),
(29,644,o),
(29,536,cs),
(29,186,ls),
(29,75,o),
(112,-6,o),
(224,-6,cs)
);
},
{
pos = (-14,5);
ref = cutdetail.part;
}
);
};
layerId = m01;
shapes = (
{
closed = 1;
nodes = (
(392,-6,ls),
(504,-6,o),
(587,75,o),
(587,186,cs),
(587,500,l),
(423,500,l),
(423,460,o),
(407,439,o),
(377,439,cs),
(356,439,o),
(334,448,o),
(330,501,c),
(323,501,l),
(319,448,o),
(298,439,o),
(277,439,cs),
(248,439,o),
(231,458,o),
(231,492,cs),
(231,569,ls),
(231,614,o),
(254,636,o),
(299,636,cs),
(355,636,ls),
(401,636,o),
(423,613,o),
(423,564,c),
(587,564,l),
(587,652,o),
(517,722,o),
(426,722,cs),
(218,722,ls),
(110,722,o),
(29,644,o),
(29,536,cs),
(29,186,ls),
(29,75,o),
(112,-6,o),
(224,-6,cs)
);
},
{
pos = (29,150);
ref = _part.cut;
},
{
pos = (29,259);
ref = _part.cut;
},
{
pos = (587,150);
ref = _part.cut;
scale = (-1,1);
},
{
pos = (587,259);
ref = _part.cut;
scale = (-1,1);
}
);
width = 616;
},
{
anchors = (
{
name = bottom;
pos = (328,0);
},
{
name = hooktop;
pos = (587,564);
},
{
name = top;
pos = (318,722);
}
);
associatedMasterId = m01;
attr = {
coordinates = (
50
);
};
layerId = "E34D0DA4-F178-4F23-9353-326577ABB57C";
name = "Jan 3, 24 at 11:41";
shapes = (
{
closed = 1;
nodes = (
(392,-6,ls),
(504,-6,o),
(587,75,o),
(587,186,cs),
(587,500,l),
(423,500,l),
(423,460,o),
(407,439,o),
(377,439,cs),
(356,439,o),
(334,448,o),
(330,501,c),
(323,501,l),
(319,448,o),
(298,439,o),
(277,439,cs),
(248,439,o),
(231,458,o),
(231,492,cs),
(231,569,ls),
(231,614,o),
(254,636,o),
(299,636,cs),
(355,636,ls),
(401,636,o),
(423,613,o),
(423,564,c),
(587,564,l),
(587,652,o),
(517,722,o),
(426,722,cs),
(218,722,ls),
(110,722,o),
(29,644,o),
(29,536,cs),
(29,186,ls),
(29,75,o),
(112,-6,o),
(224,-6,cs)
);
},
{
pos = (29,186);
ref = _part.cut;
},
{
pos = (29,307);
ref = _part.cut;
},
{
pos = (587,186);
ref = _part.cut;
scale = (-1,1);
},
{
pos = (587,307);
ref = _part.cut;
scale = (-1,1);
}
);
width = 616;
},
{
anchors = (
{
name = bottom;
pos = (328,0);
},
{
name = hooktop;
pos = (587,564);
},
{
name = top;
pos = (318,722);
}
);
associatedMasterId = m01;
attr = {
coordinates = (
100
);
};
layerId = "5E8D7DC4-25DC-4C74-9431-16A2B4651C3A";
name = "Jan 3, 24 at 11:41";
shapes = (
{
closed = 1;
nodes = (
(392,-6,ls),
(504,-6,o),
(587,75,o),
(587,186,cs),
(587,500,l),
(423,500,l),
(423,460,o),
(407,439,o),
(377,439,cs),
(356,439,o),
(334,448,o),
(330,501,c),
(323,501,l),
(319,448,o),
(298,439,o),
(277,439,cs),
(248,439,o),
(231,458,o),
(231,492,cs),
(231,569,ls),
(231,614,o),
(254,636,o),
(299,636,cs),
(355,636,ls),
(401,636,o),
(423,613,o),
(423,564,c),
(587,564,l),
(587,652,o),
(517,722,o),
(426,722,cs),
(218,722,ls),
(110,722,o),
(29,644,o),
(29,536,cs),
(29,186,ls),
(29,75,o),
(112,-6,o),
(224,-6,cs)
);
},
{
pos = (29,186);
ref = _part.cut;
},
{
pos = (29,308);
ref = _part.cut;
},
{
pos = (587,186);
ref = _part.cut;
scale = (-1,1);
},
{
pos = (587,308);
ref = _part.cut;
scale = (-1,1);
}
);
width = 616;
}
);
unicode = 67;
},
{
color = 11;
glyphname = "Chi-latin";
lastChange = "2024-01-03 15:10:33 +0000";
layers = (
{
anchors = (
{
name = bottom;
pos = (306,0);
},
{
name = top;
pos = (306,900);
}
);
layerId = m01;
shapes = (
{
closed = 1;
nodes = (
(294,0,l),
(294,439,l),
(262,439,ls),
(247,439,o),
(248,453,o),
(257,458,cs),
(309,489,l),
(368,459,ls),
(386,450,o),
(379,439,o),
(366,439,cs),
(349,439,l),
(349,0,l),
(666,0,l),
(666,434,l),
(647,434,ls),
(633,434,o),
(611,440,o),
(592,451,cs),
(436,543,l),
(569,619,ls),
(587,629,o),
(605,636,o),
(635,636,cs),
(649,636,l),
(649,716,l),
(392,716,l),
(392,631,l),
(406,631,ls),
(428,631,o),
(425,615,o),
(414,609,cs),
(367,583,l),
(317,612,ls),
(305,619,o),
(305,631,o),
(317,631,cs),
(337,631,l),
(337,716,l),
(27,716,l),
(27,636,l),
(43,636,ls),
(70,636,o),
(96,619,o),
(114,608,cs),
(242,528,l),
(108,447,ls),
(91,437,o),
(65,434,o),
(27,434,c),
(27,0,l)
);
},
{
pos = (27,150);
ref = _part.cut;
},
{
pos = (27,259);
ref = _part.cut;
},
{
pos = (349,150);
ref = _part.cut;
},
{
pos = (349,259);
ref = _part.cut;
}
);
width = 693;
},
{
anchors = (
{
name = bottom;
pos = (306,0);
},
{
name = top;
pos = (306,900);
}
);
associatedMasterId = m01;
attr = {
coordinates = (
50
);
};
layerId = "2EFEDBDB-15B7-4196-8DD6-8FA7EC5ED277";
name = "Jan 3, 24 at 16:07";
shapes = (
{
closed = 1;
nodes = (
(294,0,l),
(294,439,l),
(262,439,ls),
(247,439,o),
(248,453,o),
(257,458,cs),
(309,489,l),
(368,459,ls),
(386,450,o),
(379,439,o),
(366,439,cs),
(349,439,l),
(349,0,l),
(666,0,l),
(666,434,l),
(647,434,ls),
(633,434,o),
(611,440,o),
(592,451,cs),
(436,543,l),
(569,619,ls),
(587,629,o),
(605,636,o),
(635,636,cs),
(649,636,l),
(649,716,l),
(392,716,l),
(392,631,l),
(406,631,ls),
(428,631,o),
(425,615,o),
(414,609,cs),
(367,583,l),
(317,612,ls),
(305,619,o),
(305,631,o),
(317,631,cs),
(337,631,l),
(337,716,l),
(27,716,l),
(27,636,l),
(43,636,ls),
(70,636,o),
(96,619,o),
(114,608,cs),
(242,528,l),
(108,447,ls),
(91,437,o),
(65,434,o),
(27,434,c),
(27,0,l)
);
},
{
pos = (27,186);
ref = _part.cut;
},
{
pos = (27,307);
ref = _part.cut;
},
{
pos = (349,186);
ref = _part.cut;
},
{
pos = (349,307);
ref = _part.cut;
}
);
width = 693;
},
{
anchors = (
{
name = bottom;
pos = (306,0);
},
{
name = top;
pos = (306,900);
}
);
associatedMasterId = m01;
attr = {
coordinates = (
100
);
};
layerId = "0B31730F-5BBA-4FEE-8472-22516AC1BD38";
name = "Jan 3, 24 at 16:07";
shapes = (
{
closed = 1;
nodes = (
(294,0,l),
(294,439,l),
(262,439,ls),
(247,439,o),
(248,453,o),
(257,458,cs),
(309,489,l),
(368,459,ls),
(386,450,o),
(379,439,o),
(366,439,cs),
(349,439,l),
(349,0,l),
(666,0,l),
(666,434,l),
(647,434,ls),
(633,434,o),
(611,440,o),
(592,451,cs),
(436,543,l),
(569,619,ls),
(587,629,o),
(605,636,o),
(635,636,cs),
(649,636,l),
(649,716,l),
(392,716,l),
(392,631,l),
(406,631,ls),
(428,631,o),
(425,615,o),
(414,609,cs),
(367,583,l),
(317,612,ls),
(305,619,o),
(305,631,o),
(317,631,cs),
(337,631,l),
(337,716,l),
(27,716,l),
(27,636,l),
(43,636,ls),
(70,636,o),
(96,619,o),
(114,608,cs),
(242,528,l),
(108,447,ls),
(91,437,o),
(65,434,o),
(27,434,c),
(27,0,l)
);
},
{
pos = (27,199);
ref = _part.cut;
},
{
pos = (27,308);
ref = _part.cut;
},
{
pos = (349,199);
ref = _part.cut;
},
{
pos = (349,308);
ref = _part.cut;
}
);
width = 693;
}
);
unicode = 42931;
},
{
color = 11;
glyphname = Cstroke;
lastChange = "2024-01-03 15:11:34 +0000";
layers = (
{
layerId = m01;
shapes = (
{
ref = C;
},
{
closed = 1;
nodes = (
(478,671,l),
(550,791,l),
(460,792,l),
(383,672,l)
);
},
{
closed = 1;
nodes = (
(156,-60,l),
(214,57,l),
(119,59,l),
(66,-59,l)
);
}
);
width = 616;
},
{
associatedMasterId = m01;
attr = {
coordinates = (
50
);
};
layerId = "DB115D9E-318E-4CA1-B33C-9836D30983A1";
name = "Jan 3, 24 at 16:11";
shapes = (
{
ref = C;
},
{
closed = 1;
nodes = (
(478,671,l),
(550,791,l),
(460,792,l),
(383,672,l)
);
},
{
closed = 1;
nodes = (
(156,-60,l),
(214,57,l),
(119,59,l),
(66,-59,l)
);
}
);
width = 616;
},
{
associatedMasterId = m01;
attr = {
coordinates = (
100
);
};
layerId = "A83EB1A8-7858-4205-92DF-797F32E20D8A";
name = "Jan 3, 24 at 16:11";
shapes = (
{
ref = C;
},
{
closed = 1;
nodes = (
(478,671,l),
(550,791,l),
(460,792,l),
(383,672,l)
);
},
{
closed = 1;
nodes = (
(156,-60,l),
(214,57,l),
(119,59,l),
(66,-59,l)
);
}
);
width = 616;
}
);
metricLeft = O;
metricRight = O;
unicode = 571;
},
{
glyphname = D;
lastChange = "2024-01-03 11:08:59 +0000";
layers = (
{
anchors = (
{
name = bottom;
pos = (303,0);
},
{
name = center;
pos = (303,358);
},
{
name = hookjoin;
pos = (29,636);
},
{
name = top;
pos = (322,716);
}
);
layerId = m01;
shapes = (
{
closed = 1;
nodes = (
(405,0,ls),
(514,0,o),
(594,75,o),
(594,186,cs),
(594,530,ls),
(594,637,o),
(514,716,o),
(405,716,cs),
(29,716,l),
(29,636,l),
(79,636,o),
(96,609,o),
(96,569,cs),
(96,495,ls),
(96,455,o),
(79,434,o),
(29,434,c),
(29,0,l)
);
},
{
pos = (29,150);
ref = _part.cut;
},
{
pos = (29,259);
ref = _part.cut;
},
{
pos = (594,150);
ref = _part.cut;
scale = (-1,1);
},
{
closed = 1;
nodes = (
(264,636,l),
(334,636,ls),
(384,636,o),
(402,619,o),
(402,569,cs),
(402,506,ls),
(402,456,o),
(384,439,o),
(334,439,cs),
(264,439,l)
);
},
{
pos = (594,259);
ref = _part.cut;
scale = (-1,1);
}
);
width = 623;
},
{
anchors = (
{
name = bottom;
pos = (303,0);
},
{
name = center;
pos = (303,358);
},
{
name = hookjoin;
pos = (29,636);
},
{
name = top;
pos = (322,716);
}
);
associatedMasterId = m01;
attr = {
coordinates = (
50
);
};
layerId = "4046DF47-BA2A-4546-8A8C-4DD7D8103CBE";
name = "Jan 3, 24 at 07:59";
shapes = (
{
closed = 1;
nodes = (
(405,0,ls),
(514,0,o),
(594,75,o),
(594,186,cs),
(594,530,ls),
(594,637,o),
(514,716,o),
(405,716,cs),
(29,716,l),
(29,636,l),
(79,636,o),
(96,609,o),
(96,569,cs),
(96,495,ls),
(96,455,o),
(79,434,o),
(29,434,c),
(29,0,l)
);
},
{
pos = (29,198);
ref = _part.cut;
},
{
pos = (29,307);
ref = _part.cut;
},
{
pos = (594,198);
ref = _part.cut;
scale = (-1,1);
},
{
closed = 1;
nodes = (
(264,636,l),
(334,636,ls),
(384,636,o),
(402,619,o),
(402,569,cs),
(402,506,ls),
(402,456,o),
(384,439,o),
(334,439,cs),
(264,439,l)
);
},
{
pos = (594,307);
ref = _part.cut;
scale = (-1,1);
}
);
width = 623;
},
{
anchors = (
{
name = bottom;
pos = (303,0);
},
{
name = center;
pos = (303,358);
},
{
name = hookjoin;
pos = (29,636);
},
{
name = top;
pos = (322,716);
}
);
associatedMasterId = m01;
attr = {
coordinates = (
100
);
};
layerId = "1CAFD194-7DE6-448A-AB04-0BA9B8D73F02";
name = "Jan 3, 24 at 07:59";
shapes = (
{
closed = 1;
nodes = (
(405,0,ls),
(514,0,o),
(594,75,o),
(594,186,cs),
(594,530,ls),
(594,637,o),
(514,716,o),
(405,716,cs),
(29,716,l),
(29,636,l),
(79,636,o),
(96,609,o),
(96,569,cs),
(96,495,ls),
(96,455,o),
(79,434,o),
(29,434,c),
(29,0,l)
);
},
{
pos = (29,199);
ref = _part.cut;
},
{
pos = (29,308);
ref = _part.cut;
},
{
pos = (594,199);
ref = _part.cut;
scale = (-1,1);
},
{
closed = 1;
nodes = (
(264,636,l),
(334,636,ls),
(384,636,o),
(402,619,o),
(402,569,cs),
(402,506,ls),
(402,456,o),
(384,439,o),
(334,439,cs),
(264,439,l)
);
},
{
pos = (594,308);
ref = _part.cut;
scale = (-1,1);
}
);
width = 623;
}
);
metricLeft = H;
unicode = 68;
},
{
color = 11;
glyphname = Dhook;
lastChange = "2024-01-03 15:39:17 +0000";
layers = (
{
anchors = (
{
name = bottom;
pos = (461,0);
},
{
name = center;
pos = (461,358);
},
{
name = hookjoin;
pos = (187,636);
},
{
name = top;
pos = (480,716);
}
);
layerId = m01;
shapes = (
{
closed = 1;
nodes = (
(563,0,ls),
(672,0,o),
(752,75,o),
(752,186,cs),
(752,530,ls),
(752,637,o),
(672,716,o),
(563,716,cs),
(149,716,ls),
(59,716,o),
(0,638,o),
(0,547,c),
(123,547,l),
(123,592,o),
(140,636,o),
(187,636,cs),
(237,636,o),
(254,609,o),
(254,569,cs),
(254,495,ls),
(254,455,o),
(237,434,o),
(187,434,c),
(187,0,l)
);
},
{
alignment = -1;
pos = (187,150);
ref = _part.cut;
},
{
alignment = -1;
pos = (187,259);
ref = _part.cut;
},
{
alignment = -1;
pos = (752,150);
ref = _part.cut;
scale = (-1,1);
},
{
closed = 1;
nodes = (
(422,636,l),
(492,636,ls),
(542,636,o),
(560,619,o),
(560,569,cs),
(560,506,ls),
(560,456,o),
(542,439,o),
(492,439,cs),
(422,439,l)
);
},
{
alignment = -1;
pos = (752,259);
ref = _part.cut;
scale = (-1,1);
}
);
width = 781;
},
{
anchors = (
{
name = bottom;
pos = (461,0);
},
{
name = center;
pos = (461,358);
},
{
name = hookjoin;
pos = (187,636);
},
{
name = top;
pos = (480,716);
}
);
associatedMasterId = m01;
attr = {
coordinates = (
50
);
};
layerId = "0720F952-F42C-4283-AA5E-68546626AE9B";
name = "Jan 3, 24 at 16:20";
shapes = (
{
closed = 1;
nodes = (
(563,0,ls),
(672,0,o),
(752,75,o),
(752,186,cs),
(752,530,ls),
(752,637,o),
(672,716,o),
(563,716,cs),
(149,716,ls),
(59,716,o),
(0,638,o),
(0,547,c),
(123,547,l),
(123,592,o),
(140,636,o),
(187,636,cs),
(237,636,o),
(254,609,o),
(254,569,cs),
(254,495,ls),
(254,455,o),
(237,434,o),
(187,434,c),
(187,0,l)
);
},
{
pos = (187,197);
ref = _part.cut;
},
{
pos = (187,306);
ref = _part.cut;
},
{
pos = (752,197);
ref = _part.cut;
scale = (-1,1);
},
{
closed = 1;
nodes = (
(422,636,l),
(492,636,ls),
(542,636,o),
(560,619,o),
(560,569,cs),
(560,506,ls),
(560,456,o),
(542,439,o),
(492,439,cs),
(422,439,l)
);
},
{
pos = (752,306);
ref = _part.cut;
scale = (-1,1);
}
);
width = 781;
},
{
anchors = (
{
name = bottom;
pos = (461,0);
},
{
name = center;
pos = (461,358);
},
{
name = hookjoin;
pos = (187,636);
},
{
name = top;
pos = (480,716);
}
);
associatedMasterId = m01;
attr = {
coordinates = (
100
);
};
layerId = "389B96BA-C895-4809-A5B8-0386F1359478";
name = "Jan 3, 24 at 16:20";
shapes = (
{
closed = 1;
nodes = (
(563,0,ls),
(672,0,o),
(752,75,o),
(752,186,cs),
(752,530,ls),
(752,637,o),
(672,716,o),
(563,716,cs),
(149,716,ls),
(59,716,o),
(0,638,o),
(0,547,c),
(123,547,l),
(123,592,o),
(140,636,o),
(187,636,cs),
(237,636,o),
(254,609,o),
(254,569,cs),
(254,495,ls),
(254,455,o),
(237,434,o),
(187,434,c),
(187,0,l)
);
},
{
pos = (187,199);
ref = _part.cut;
},
{
pos = (187,308);
ref = _part.cut;
},
{
pos = (752,199);
ref = _part.cut;
scale = (-1,1);
},
{
closed = 1;
nodes = (
(422,636,l),
(492,636,ls),
(542,636,o),
(560,619,o),
(560,569,cs),
(560,506,ls),
(560,456,o),
(542,439,o),
(492,439,cs),
(422,439,l)
);
},
{
pos = (752,308);
ref = _part.cut;
scale = (-1,1);
}
);
width = 781;
}
);
unicode = 394;
},
{
color = 11;
glyphname = Eth;
lastChange = "2024-01-03 15:23:06 +0000";
layers = (
{
layerId = m01;
shapes = (
{
closed = 1;
nodes = (
(323,501,l),
(323,571,l),
(31,571,l),
(31,501,l)
);
},
{
closed = 1;
nodes = (
(405,0,ls),
(514,0,o),
(594,79,o),
(594,186,cs),
(594,530,ls),
(594,637,o),
(514,716,o),
(405,716,c),
(29,716,l),
(29,636,l),
(79,636,o),
(96,609,o),
(96,569,cs),
(96,495,ls),
(96,455,o),
(79,434,o),
(29,434,c),
(29,0,l)
);
},
{
closed = 1;
nodes = (
(264,636,l),
(335,636,ls),
(385,636,o),
(402,609,o),
(402,569,cs),
(402,500,ls),
(402,460,o),
(385,439,o),
(335,439,cs),
(264,439,l)
);
},
{
pos = (29,150);
ref = _part.cut;
},
{
pos = (29,259);
ref = _part.cut;
},
{
pos = (594,150);
ref = _part.cut;
scale = (-1,1);
},
{
pos = (594,259);
ref = _part.cut;
scale = (-1,1);
}
);
width = 623;
},
{
associatedMasterId = m01;
attr = {
coordinates = (
50
);
};
layerId = "538E1713-067B-4FDF-B82D-B079D415875C";
name = "Jan 3, 24 at 16:22";
shapes = (
{
closed = 1;
nodes = (
(323,501,l),
(323,571,l),
(31,571,l),
(31,501,l)
);
},
{
closed = 1;
nodes = (
(405,0,ls),
(514,0,o),
(594,79,o),
(594,186,cs),
(594,530,ls),
(594,637,o),
(514,716,o),
(405,716,c),
(29,716,l),
(29,636,l),
(79,636,o),
(96,609,o),
(96,569,cs),
(96,495,ls),
(96,455,o),
(79,434,o),
(29,434,c),
(29,0,l)
);
},
{
closed = 1;
nodes = (
(264,636,l),
(335,636,ls),
(385,636,o),
(402,609,o),
(402,569,cs),
(402,500,ls),
(402,460,o),
(385,439,o),
(335,439,cs),
(264,439,l)
);
},
{
pos = (29,198);
ref = _part.cut;
},
{
pos = (29,307);
ref = _part.cut;
},
{
pos = (594,198);
ref = _part.cut;
scale = (-1,1);
},
{
pos = (594,307);
ref = _part.cut;
scale = (-1,1);
}
);
width = 623;
},
{
associatedMasterId = m01;
attr = {
coordinates = (
100
);
};
layerId = "85201C3A-463D-4DE2-AA84-2798F655630E";
name = "Jan 3, 24 at 16:22";
shapes = (
{
closed = 1;
nodes = (
(323,501,l),
(323,571,l),
(31,571,l),
(31,501,l)
);
},
{
closed = 1;
nodes = (
(405,0,ls),
(514,0,o),
(594,79,o),
(594,186,cs),
(594,530,ls),
(594,637,o),
(514,716,o),
(405,716,c),
(29,716,l),
(29,636,l),
(79,636,o),
(96,609,o),
(96,569,cs),
(96,495,ls),
(96,455,o),
(79,434,o),
(29,434,c),
(29,0,l)
);
},
{
closed = 1;
nodes = (
(264,636,l),
(335,636,ls),
(385,636,o),
(402,609,o),
(402,569,cs),
(402,500,ls),
(402,460,o),
(385,439,o),
(335,439,cs),
(264,439,l)
);
},
{
pos = (29,199);
ref = _part.cut;
},
{
pos = (29,308);
ref = _part.cut;
},
{
pos = (594,199);
ref = _part.cut;
scale = (-1,1);
},
{
pos = (594,308);
ref = _part.cut;
scale = (-1,1);
}
);
width = 623;
}
);
metricLeft = D;
metricRight = D;
unicode = 208;
},
{
glyphname = E;
lastChange = "2024-01-03 11:08:59 +0000";
layers = (
{
anchors = (
{
name = bottom;
pos = (288,0);
},
{
name = ogonek;
pos = (547,0);
},
{
name = top;
pos = (298,716);
}
);
layerId = m01;
shapes = (
{
closed = 1;
nodes = (
(547,0,l),
(547,500,l),
(457,500,l),
(457,460,o),
(440,439,o),
(390,439,cs),
(263,439,l),
(263,505,l),
(380,505,l),
(380,575,l),
(263,575,l),
(263,636,l),
(384,636,ls),
(434,636,o),
(451,609,o),
(451,569,c),
(541,569,l),
(541,716,l),
(29,716,l),
(29,636,l),
(79,636,o),
(97,604,o),
(97,564,cs),
(97,500,ls),
(97,460,o),
(80,434,o),
(30,434,c),
(30,0,l)
);
},
{
pos = (30,150);
ref = _part.cut;
},
{
pos = (30,259);
ref = _part.cut;
},
{
pos = (547,150);
ref = _part.cut;
scale = (-1,1);
},
{
pos = (547,259);
ref = _part.cut;
scale = (-1,1);
}
);
width = 576;
},
{
anchors = (
{
name = bottom;
pos = (288,0);
},
{
name = ogonek;
pos = (547,0);
},
{
name = top;
pos = (298,716);
}
);
associatedMasterId = m01;
attr = {
coordinates = (
50
);
};
layerId = "9B060A70-2384-4559-A14B-23486F8753BE";
name = "Jan 3, 24 at 08:00";
shapes = (
{
closed = 1;
nodes = (
(547,0,l),
(547,500,l),
(457,500,l),
(457,460,o),
(440,439,o),
(390,439,cs),
(263,439,l),
(263,505,l),
(380,505,l),
(380,575,l),
(263,575,l),
(263,636,l),
(384,636,ls),
(434,636,o),
(451,609,o),
(451,569,c),
(541,569,l),
(541,716,l),
(29,716,l),
(29,636,l),
(79,636,o),
(97,604,o),
(97,564,cs),
(97,500,ls),
(97,460,o),
(80,434,o),
(30,434,c),
(30,0,l)
);
},
{
pos = (30,198);
ref = _part.cut;
},
{
pos = (30,307);
ref = _part.cut;
},
{
pos = (547,198);
ref = _part.cut;
scale = (-1,1);
},
{
pos = (547,307);
ref = _part.cut;
scale = (-1,1);
}
);
width = 576;
},
{
anchors = (
{
name = bottom;
pos = (288,0);
},
{
name = ogonek;
pos = (547,0);
},
{
name = top;
pos = (298,716);
}
);
associatedMasterId = m01;
attr = {
coordinates = (
100
);
};
layerId = "123C3BB7-D43C-47E8-B37E-13211ACCD659";
name = "Jan 3, 24 at 08:00";
shapes = (
{
closed = 1;
nodes = (
(547,0,l),
(547,500,l),
(457,500,l),
(457,460,o),
(440,439,o),
(390,439,cs),
(263,439,l),
(263,505,l),
(380,505,l),
(380,575,l),
(263,575,l),
(263,636,l),
(384,636,ls),
(434,636,o),
(451,609,o),
(451,569,c),
(541,569,l),
(541,716,l),
(29,716,l),
(29,636,l),
(79,636,o),
(97,604,o),
(97,564,cs),
(97,500,ls),
(97,460,o),
(80,434,o),
(30,434,c),
(30,0,l)
);
},
{
pos = (30,199);
ref = _part.cut;
},
{
pos = (30,308);
ref = _part.cut;
},
{
pos = (547,199);
ref = _part.cut;
scale = (-1,1);
},
{
pos = (547,308);
ref = _part.cut;
scale = (-1,1);
}
);
width = 576;
}
);
metricLeft = H;
unicode = 69;
},
{
color = 11;
glyphname = Eopen;
layers = (
{
layerId = m01;
shapes = (
{
closed = 1;
nodes = (
(403,453,o),
(388,439,o),
(356,439,cs),
(266,440,ls),
(237,440,o),
(219,449,o),
(219,472,cs),
(219,492,o),
(236,505,o),
(266,505,cs),
(346,504,l),
(346,575,l),
(292,575,ls),
(263,575,o),
(245,587,o),
(245,606,cs),
(245,625,o),
(262,636,o),
(292,636,cs),
(341,636,ls),
(371,636,o),
(388,625,o),
(388,606,cs),
(388,575,l),
(554,575,l),
(554,629,ls),
(554,687,o),
(510,715,o),
(416,715,cs),
(189,716,ls),
(95,716,o),
(51,689,o),
(51,631,cs),
(51,578,o),
(86,543,o),
(140,543,cs),
(178,543,l),
(178,540,l),
(75,540,o),
(20,483,o),
(20,375,cs),
(20,179,ls),
(20,72,o),
(100,-6,o),
(209,-7,cs),
(403,-8,ls),
(512,-9,o),
(574,71,o),
(574,178,cs),
(574,492,l),
(403,492,l),
(403,470,l)
);
}
);
width = 603;
}
);
metricRight = E;
unicode = 400;
},
{
color = 11;
glyphname = Esh;
layers = (
{
anchors = (
{
name = bottom;
pos = (298,0);
},
{
name = center;
pos = (298,358);
},
{
name = ogonek;
pos = (631,0);
},
{
name = top;
pos = (297,716);
},
{
name = topleft;
pos = (41,716);
}
);
layerId = m01;
shapes = (
{
closed = 1;
nodes = (
(541,-2,l),
(541,497,l),
(448,497,l),
(448,457,o),
(430,437,o),
(388,437,cs),
(258,437,l),
(384,527,l),
(238,634,l),
(377,634,ls),
(429,634,o),
(446,607,o),
(446,567,c),
(540,567,l),
(540,714,l),
(27,716,l),
(27,628,l),
(161,529,l),
(28,434,l),
(27,0,l)
);
}
);
width = 570;
}
);
metricRight = E;
unicode = 425;
},
{
color = 11;
glyphname = Estroke;
lastChange = "2024-01-03 15:36:15 +0000";
layers = (
{
anchors = (
{
name = bottom;
pos = (288,0);
},
{
name = ogonek;
pos = (547,0);
},
{
name = top;
pos = (298,716);
}
);
layerId = m01;
shapes = (
{
closed = 1;
nodes = (
(547,0,l),
(547,500,l),
(457,500,l),
(457,460,o),
(440,439,o),
(390,439,cs),
(263,439,l),
(263,505,l),
(380,505,l),
(380,575,l),
(263,575,l),
(263,636,l),
(384,636,ls),
(434,636,o),
(451,609,o),
(451,569,c),
(541,569,l),
(541,716,l),
(29,716,l),
(29,636,l),
(79,636,o),
(97,604,o),
(97,564,cs),
(97,500,ls),
(97,460,o),
(80,434,o),
(30,434,c),
(30,0,l)
);
},
{
closed = 1;
nodes = (
(528,649,l),
(608,792,l),
(528,792,l),
(448,649,l)
);
},
{
closed = 1;
nodes = (
(83,153,l),
(-46,-76,l),
(34,-76,l),
(163,153,l)
);
},
{
pos = (30,150);
ref = _part.cut;
},
{
pos = (30,259);
ref = _part.cut;
},
{
pos = (547,150);
ref = _part.cut;
scale = (-1,1);
},
{
pos = (547,259);
ref = _part.cut;
scale = (-1,1);
}
);
width = 576;
},
{
anchors = (
{
name = bottom;
pos = (288,0);
},
{
name = ogonek;
pos = (547,0);
},
{
name = top;
pos = (298,716);
}
);
associatedMasterId = m01;
attr = {
coordinates = (
50
);
};
layerId = "0C7DC2C1-C024-4E63-B8BC-B5DF5B5E69E0";
name = "Jan 3, 24 at 16:35";
shapes = (
{
closed = 1;
nodes = (
(547,0,l),
(547,500,l),
(457,500,l),
(457,460,o),
(440,439,o),
(390,439,cs),
(263,439,l),
(263,505,l),
(380,505,l),
(380,575,l),
(263,575,l),
(263,636,l),
(384,636,ls),
(434,636,o),
(451,609,o),
(451,569,c),
(541,569,l),
(541,716,l),
(29,716,l),
(29,636,l),
(79,636,o),
(97,604,o),
(97,564,cs),
(97,500,ls),
(97,460,o),
(80,434,o),
(30,434,c),
(30,0,l)
);
},
{
closed = 1;
nodes = (
(528,649,l),
(608,792,l),
(528,792,l),
(448,649,l)
);
},
{
closed = 1;
nodes = (
(83,153,l),
(-46,-76,l),
(34,-76,l),
(163,153,l)
);
},
{
pos = (30,198);
ref = _part.cut;
},
{
pos = (30,307);
ref = _part.cut;
},
{
pos = (547,198);
ref = _part.cut;
scale = (-1,1);
},
{
pos = (547,307);
ref = _part.cut;
scale = (-1,1);
}
);
width = 576;
},
{
anchors = (
{
name = bottom;
pos = (288,0);
},
{
name = ogonek;
pos = (547,0);
},
{
name = top;
pos = (298,716);
}
);
associatedMasterId = m01;
attr = {
coordinates = (
100
);
};
layerId = "DE560285-9849-4818-A348-2B5A1D329218";
name = "Jan 3, 24 at 16:35";
shapes = (
{
closed = 1;
nodes = (
(547,0,l),
(547,500,l),
(457,500,l),
(457,460,o),
(440,439,o),
(390,439,cs),
(263,439,l),
(263,505,l),
(380,505,l),
(380,575,l),
(263,575,l),
(263,636,l),
(384,636,ls),
(434,636,o),
(451,609,o),
(451,569,c),
(541,569,l),
(541,716,l),
(29,716,l),
(29,636,l),
(79,636,o),
(97,604,o),
(97,564,cs),
(97,500,ls),
(97,460,o),
(80,434,o),
(30,434,c),
(30,0,l)
);
},
{
closed = 1;
nodes = (
(528,649,l),
(608,792,l),
(528,792,l),
(448,649,l)
);
},
{
closed = 1;
nodes = (
(83,153,l),
(-46,-76,l),
(34,-76,l),
(163,153,l)
);
},
{
pos = (30,199);
ref = _part.cut;
},
{
pos = (30,308);
ref = _part.cut;
},
{
pos = (547,199);
ref = _part.cut;
scale = (-1,1);
},
{
pos = (547,308);
ref = _part.cut;
scale = (-1,1);
}
);
width = 576;
}
);
unicode = 582;
},
{
glyphname = Schwa;
lastChange = "2024-01-03 15:28:09 +0000";
layers = (
{
layerId = m01;
shapes = (
{
closed = 1;
nodes = (
(373,0,ls),
(482,0,o),
(562,79,o),
(562,186,cs),
(562,445,ls),
(562,552,o),
(482,631,o),
(373,631,cs),
(205,631,ls),
(93,631,o),
(29,556,o),
(29,422,c),
(358,422,l),
(353,384,o),
(334,358,o),
(268,358,cs),
(30,358,l),
(30,0,l)
);
},
{
closed = 1;
nodes = (
(202,523,o),
(221,545,o),
(260,545,cs),
(293,545,ls),
(332,545,o),
(351,529,o),
(357,492,c),
(196,492,l)
);
}
);
width = 600;
}
);
unicode = 399;
},
{
color = 11;
glyphname = Ezh;
layers = (
{
anchors = (
{
name = top;
pos = (297,716);
}
);
background = {
shapes = (
{
pos = (-20,0);
ref = Z;
}
);
};
layerId = m01;
shapes = (
{
closed = 1;
nodes = (
(401,-6,ls),
(510,-6,o),
(590,73,o),
(590,180,cs),
(590,404,ls),
(590,547,o),
(502,569,o),
(447,569,c),
(557,642,l),
(557,716,l),
(44,715,l),
(44,568,l),
(154,568,l),
(154,608,o),
(171,633,o),
(221,633,cs),
(374,633,l),
(278,575,l),
(278,505,l),
(353,505,ls),
(386,505,o),
(391,495,o),
(391,474,cs),
(391,454,o),
(376,439,o),
(343,439,cs),
(230,439,ls),
(206,439,o),
(189,462,o),
(189,497,c),
(25,497,l),
(25,180,ls),
(25,73,o),
(105,-6,o),
(214,-6,cs)
);
}
);
width = 610;
}
);
unicode = 439;
},
{
glyphname = F;
lastChange = "2024-01-03 11:08:59 +0000";
layers = (
{
anchors = (
{
name = bottom;
pos = (324,0);
},
{
name = top;
pos = (286,702);
}
);
layerId = m01;
shapes = (
{
closed = 1;
nodes = (
(443,0,l),
(443,439,l),
(329,439,ls),
(279,439,o),
(262,462,o),
(262,502,c),
(380,502,l),
(380,572,l),
(262,572,l),
(262,636,l),
(380,636,ls),
(430,636,o),
(447,609,o),
(447,569,c),
(537,569,l),
(537,716,l),
(29,716,l),
(29,636,l),
(78,636,o),
(96,604,o),
(96,564,cs),
(96,500,ls),
(96,460,o),
(79,434,o),
(29,434,c),
(29,0,l)
);
},
{
pos = (29,150);
ref = _part.cut;
},
{
pos = (29,259);
ref = _part.cut;
}
);
width = 553;
},
{
anchors = (
{
name = bottom;
pos = (325,0);
},
{
name = top;
pos = (287,702);
}
);
associatedMasterId = m01;
attr = {
coordinates = (
50
);
};
layerId = "15832E4F-ECF7-4580-85D2-CC92C6B2BF2D";
name = "Jan 3, 24 at 08:09";
shapes = (
{
closed = 1;
nodes = (
(443,0,l),
(443,439,l),
(329,439,ls),
(279,439,o),
(262,462,o),
(262,502,c),
(380,502,l),
(380,572,l),
(262,572,l),
(262,636,l),
(380,636,ls),
(430,636,o),
(447,609,o),
(447,569,c),
(537,569,l),
(537,716,l),
(29,716,l),
(29,636,l),
(78,636,o),
(96,604,o),
(96,564,cs),
(96,500,ls),
(96,460,o),
(79,434,o),
(29,434,c),
(29,0,l)
);
},
{
pos = (29,198);
ref = _part.cut;
},
{
pos = (29,307);
ref = _part.cut;
}
);
width = 554;
},
{
anchors = (
{
name = bottom;
pos = (325,0);
},
{
name = top;
pos = (287,702);
}
);
associatedMasterId = m01;
attr = {
coordinates = (
100
);
};
layerId = "FDD6E563-D30B-48A7-B2F1-6CDEE96A0ABC";
name = "Jan 3, 24 at 08:09";
shapes = (
{
closed = 1;
nodes = (
(443,0,l),
(443,439,l),
(329,439,ls),
(279,439,o),
(262,462,o),
(262,502,c),
(380,502,l),
(380,572,l),
(262,572,l),
(262,636,l),
(380,636,ls),
(430,636,o),
(447,609,o),
(447,569,c),
(537,569,l),
(537,716,l),
(29,716,l),
(29,636,l),
(78,636,o),
(96,604,o),
(96,564,cs),
(96,500,ls),
(96,460,o),
(79,434,o),
(29,434,c),
(29,0,l)
);
},
{
pos = (29,199);
ref = _part.cut;
},
{
pos = (29,308);
ref = _part.cut;
}
);
width = 554;
}
);
metricLeft = H;
unicode = 70;
},
{
glyphname = G;
lastChange = "2024-01-03 11:08:59 +0000";
layers = (
{
anchors = (
{
name = bottom;
pos = (328,0);
},
{
name = hooktop;
pos = (587,564);
},
{
name = top;
pos = (324,716);
}
);
background = {
shapes = (
{
pos = (-15,5);
ref = cutdetail.part;
}
);
};
layerId = m01;
shapes = (
{
closed = 1;
nodes = (
(302,-6,ls),
(405,-6,o),
(439,50,o),
(439,112,cs),
(439,172,l),
(482,172,o),
(497,148,o),
(497,113,cs),
(497,0,l),
(587,0,l),
(587,544,l),
(333,544,l),
(333,476,l),
(423,476,l),
(423,454,o),
(411,439,o),
(390,439,cs),
(299,439,ls),
(249,439,o),
(231,456,o),
(231,506,cs),
(231,569,ls),
(231,619,o),
(249,636,o),
(299,636,cs),
(356,636,ls),
(399,636,o),
(423,620,o),
(423,591,c),
(587,591,l),
(587,664,o),
(524,721,o),
(426,721,cs),
(218,722,ls),
(109,723,o),
(29,643,o),
(29,536,cs),
(29,186,ls),
(29,75,o),
(109,-6,o),
(218,-6,cs)
);
},
{
pos = (29,150);
ref = _part.cut;
},
{
pos = (29,259);
ref = _part.cut;
}
);
width = 616;
},
{
anchors = (
{
name = bottom;
pos = (328,0);
},
{
name = hooktop;
pos = (587,564);
},
{
name = top;
pos = (324,716);
}
);
associatedMasterId = m01;
attr = {
coordinates = (
50
);
};
background = {
shapes = (
{
pos = (-15,5);
ref = cutdetail.part;
}
);
};
layerId = "34CFC886-CF9D-40CC-B743-148EE54E1E6E";
name = "Jan 3, 24 at 10:39";
shapes = (
{
closed = 1;
nodes = (
(302,-6,ls),
(405,-6,o),
(439,50,o),
(439,112,cs),
(439,172,l),
(482,172,o),
(497,148,o),
(497,113,cs),
(497,0,l),
(587,0,l),
(587,544,l),
(333,544,l),
(333,476,l),
(423,476,l),
(423,454,o),
(411,439,o),
(390,439,cs),
(299,439,ls),
(249,439,o),
(231,456,o),
(231,506,cs),
(231,569,ls),
(231,619,o),
(249,636,o),
(299,636,cs),
(356,636,ls),
(399,636,o),
(423,620,o),
(423,591,c),
(587,591,l),
(587,664,o),
(524,721,o),
(426,721,cs),
(218,722,ls),
(109,723,o),
(29,643,o),
(29,536,cs),
(29,186,ls),
(29,75,o),
(109,-6,o),
(218,-6,cs)
);
},
{
pos = (29,198);
ref = _part.cut;
},
{
pos = (29,307);
ref = _part.cut;
}
);
width = 616;
},
{
anchors = (
{
name = bottom;
pos = (328,0);
},
{
name = hooktop;
pos = (587,564);
},
{
name = top;
pos = (324,716);
}
);
associatedMasterId = m01;
attr = {
coordinates = (
100
);
};
background = {
shapes = (
{
pos = (-15,5);
ref = cutdetail.part;
}
);
};
layerId = "72D939E9-68D0-4ED9-8A47-47E82471ED98";
name = "Jan 3, 24 at 10:39";
shapes = (
{
closed = 1;
nodes = (
(302,-6,ls),
(405,-6,o),
(439,50,o),
(439,112,cs),
(439,172,l),
(482,172,o),
(497,148,o),
(497,113,cs),
(497,0,l),
(587,0,l),
(587,544,l),
(333,544,l),
(333,476,l),
(423,476,l),
(423,454,o),
(411,439,o),
(390,439,cs),
(299,439,ls),
(249,439,o),
(231,456,o),
(231,506,cs),
(231,569,ls),
(231,619,o),
(249,636,o),
(299,636,cs),
(356,636,ls),
(399,636,o),
(423,620,o),
(423,591,c),
(587,591,l),
(587,664,o),
(524,721,o),
(426,721,cs),
(218,722,ls),
(109,723,o),
(29,643,o),
(29,536,cs),
(29,186,ls),
(29,75,o),
(109,-6,o),
(218,-6,cs)
);
},
{
pos = (29,199);
ref = _part.cut;
},
{
pos = (29,308);
ref = _part.cut;
}
);
width = 616;
}
);
unicode = 71;
},
{
color = 11;
glyphname = Ghook;
lastChange = "2024-01-03 15:41:17 +0000";
layers = (
{
layerId = m01;
shapes = (
{
alignment = -1;
ref = G;
},
{
closed = 1;
nodes = (
(587,591,l),
(587,626,ls),
(587,687,o),
(598,720,o),
(666,728,c),
(666,840,l),
(569,840,o),
(509,776,o),
(524,681,c),
(507,591,l)
);
}
);
width = 667;
},
{
associatedMasterId = m01;
attr = {
coordinates = (
50
);
};
layerId = "410A42B2-3CC5-47E5-B9A8-F321B939E4BD";
name = "Jan 3, 24 at 16:41";
shapes = (
{
alignment = -1;
ref = G;
},
{
closed = 1;
nodes = (
(587,591,l),
(587,626,ls),
(587,687,o),
(598,720,o),
(666,728,c),
(666,840,l),
(569,840,o),
(509,776,o),
(524,681,c),
(507,591,l)
);
}
);
width = 667;
},
{
associatedMasterId = m01;
attr = {
coordinates = (
100
);
};
layerId = "7B5B03A0-6AA0-4234-80BD-6BDD56C4FAED";
name = "Jan 3, 24 at 16:41";
shapes = (
{
alignment = -1;
ref = G;
},
{
closed = 1;
nodes = (
(587,591,l),
(587,626,ls),
(587,687,o),
(598,720,o),
(666,728,c),
(666,840,l),
(569,840,o),
(509,776,o),
(524,681,c),
(507,591,l)
);
}
);
width = 667;
}
);
unicode = 403;
},
{
color = 11;
glyphname = Glottalstopsmall;
lastChange = "2024-01-03 15:42:10 +0000";
layers = (
{
layerId = m01;
shapes = (
{
closed = 1;
nodes = (
(420,-1,l),
(420,307,l),
(371,307,o),
(354,332,o),
(353,371,c),
(459,384,o),
(543,440,o),
(543,560,cs),
(543,648,o),
(478,723,o),
(334,722,cs),
(161,721,ls),
(74,720,o),
(0,656,o),
(0,564,c),
(164,564,l),
(164,609,o),
(194,636,o),
(244,636,cs),
(275,636,ls),
(325,636,o),
(371,620,o),
(371,577,cs),
(371,506,o),
(295,512,o),
(255,512,cs),
(175,513,l),
(175,368,ls),
(175,328,o),
(158,307,o),
(108,307,c),
(108,-1,l)
);
}
);
width = 553;
}
);
unicode = 577;
},
{
glyphname = H;
lastChange = "2024-01-03 11:08:59 +0000";
layers = (
{
anchors = (
{
name = bottom;
pos = (337,0);
},
{
name = center;
pos = (349,358);
},
{
name = top;
pos = (349,716);
},
{
name = topleft;
pos = (0,716);
}
);
layerId = m01;
shapes = (
{
closed = 1;
nodes = (
(321,0,l),
(321,439,l),
(271,439,o),
(254,465,o),
(254,505,c),
(446,505,l),
(446,465,o),
(429,439,o),
(379,439,c),
(379,0,l),
(671,0,l),
(671,434,l),
(621,434,o),
(604,460,o),
(604,500,cs),
(604,564,ls),
(604,604,o),
(621,636,o),
(671,636,c),
(671,716,l),
(379,716,l),
(379,631,l),
(424,631,o),
(446,609,o),
(446,575,c),
(254,575,l),
(254,609,o),
(276,631,o),
(321,631,c),
(321,716,l),
(29,716,l),
(29,636,l),
(79,636,o),
(96,604,o),
(96,564,cs),
(96,500,ls),
(96,460,o),
(79,434,o),
(29,434,c),
(29,0,l)
);
},
{
pos = (29,150);
ref = _part.cut;
},
{
pos = (29,259);
ref = _part.cut;
},
{
pos = (379,150);
ref = _part.cut;
},
{
pos = (379,259);
ref = _part.cut;
}
);
width = 700;
},
{
anchors = (
{
name = bottom;
pos = (337,0);
},
{
name = center;
pos = (349,358);
},
{
name = top;
pos = (349,716);
},
{
name = topleft;
pos = (0,716);
}
);
associatedMasterId = m01;
attr = {
coordinates = (
50
);
};
layerId = "4AE891BE-23E0-4E39-9B59-CAC418FEF5D3";
name = "Jan 3, 24 at 08:20";
shapes = (
{
closed = 1;
nodes = (
(321,0,l),
(321,439,l),
(271,439,o),
(254,465,o),
(254,505,c),
(446,505,l),
(446,465,o),
(429,439,o),
(379,439,c),
(379,0,l),
(671,0,l),
(671,434,l),
(621,434,o),
(604,460,o),
(604,500,cs),
(604,564,ls),
(604,604,o),
(621,636,o),
(671,636,c),
(671,716,l),
(379,716,l),
(379,631,l),
(424,631,o),
(446,609,o),
(446,575,c),
(254,575,l),
(254,609,o),
(276,631,o),
(321,631,c),
(321,716,l),
(29,716,l),
(29,636,l),
(79,636,o),
(96,604,o),
(96,564,cs),
(96,500,ls),
(96,460,o),
(79,434,o),
(29,434,c),
(29,0,l)
);
},
{
pos = (29,198);
ref = _part.cut;
},
{
pos = (29,307);
ref = _part.cut;
},
{
pos = (379,198);
ref = _part.cut;
},
{
pos = (379,307);
ref = _part.cut;
}
);
width = 700;
},
{
anchors = (
{
name = bottom;
pos = (337,0);
},
{
name = center;
pos = (349,358);
},
{
name = top;
pos = (349,716);
},
{
name = topleft;
pos = (0,716);
}
);
associatedMasterId = m01;
attr = {
coordinates = (
100
);
};
layerId = "4BD55780-B7D4-479B-8DCA-DBFB44A97365";
name = "Jan 3, 24 at 08:20";
shapes = (
{
closed = 1;
nodes = (
(321,0,l),
(321,439,l),
(271,439,o),
(254,465,o),
(254,505,c),
(446,505,l),
(446,465,o),
(429,439,o),
(379,439,c),
(379,0,l),
(671,0,l),
(671,434,l),
(621,434,o),
(604,460,o),
(604,500,cs),
(604,564,ls),
(604,604,o),
(621,636,o),
(671,636,c),
(671,716,l),
(379,716,l),
(379,631,l),
(424,631,o),
(446,609,o),
(446,575,c),
(254,575,l),
(254,609,o),
(276,631,o),
(321,631,c),
(321,716,l),
(29,716,l),
(29,636,l),
(79,636,o),
(96,604,o),
(96,564,cs),
(96,500,ls),
(96,460,o),
(79,434,o),
(29,434,c),
(29,0,l)
);
},
{
pos = (29,199);
ref = _part.cut;
},
{
pos = (29,308);
ref = _part.cut;
},
{
pos = (379,199);
ref = _part.cut;
},
{
pos = (379,308);
ref = _part.cut;
}
);
width = 700;
}
);
unicode = 72;
},
{
color = 11;
glyphname = Hbar;
lastChange = "2024-01-03 15:46:54 +0000";
layers = (
{
anchors = (
{
name = bottom;
pos = (369,0);
},
{
name = center;
pos = (369,900);
},
{
name = top;
pos = (369,900);
},
{
name = topleft;
pos = (0,716);
}
);
layerId = m01;
shapes = (
{
closed = 1;
nodes = (
(321,0,l),
(321,439,l),
(278,439,o),
(255,454,o),
(255,484,c),
(445,484,l),
(445,454,o),
(422,439,o),
(379,439,c),
(379,0,l),
(671,0,l),
(671,434,l),
(621,434,o),
(604,460,o),
(604,500,cs),
(604,551,l),
(667,551,l),
(667,596,l),
(609,596,l),
(609,620,o),
(635,636,o),
(671,636,c),
(671,716,l),
(379,716,l),
(379,631,l),
(414,631,o),
(441,616,o),
(441,596,c),
(259,596,l),
(259,618,o),
(286,631,o),
(321,631,c),
(321,716,l),
(29,716,l),
(29,636,l),
(65,636,o),
(91,620,o),
(91,596,c),
(29,596,l),
(29,551,l),
(96,551,l),
(96,500,ls),
(96,460,o),
(79,434,o),
(29,434,c),
(29,0,l)
);
},
{
closed = 1;
nodes = (
(254,551,l),
(446,551,l),
(446,529,l),
(254,529,l)
);
},
{
pos = (29,150);
ref = _part.cut;
},
{
pos = (29,259);
ref = _part.cut;
},
{
pos = (379,150);
ref = _part.cut;
},
{
pos = (379,259);
ref = _part.cut;
}
);
width = 700;
},
{
anchors = (
{
name = bottom;
pos = (369,0);
},
{
name = center;
pos = (369,900);
},
{
name = top;
pos = (369,900);
},
{
name = topleft;
pos = (0,716);
}
);
associatedMasterId = m01;
attr = {
coordinates = (
50
);
};
layerId = "3EA172EB-934B-4D53-B875-EAEF8D559832";
name = "Jan 3, 24 at 16:46";
shapes = (
{
closed = 1;
nodes = (
(321,0,l),
(321,439,l),
(278,439,o),
(255,454,o),
(255,484,c),
(445,484,l),
(445,454,o),
(422,439,o),
(379,439,c),
(379,0,l),
(671,0,l),
(671,434,l),
(621,434,o),
(604,460,o),
(604,500,cs),
(604,551,l),
(667,551,l),
(667,596,l),
(609,596,l),
(609,620,o),
(635,636,o),
(671,636,c),
(671,716,l),
(379,716,l),
(379,631,l),
(414,631,o),
(441,616,o),
(441,596,c),
(259,596,l),
(259,618,o),
(286,631,o),
(321,631,c),
(321,716,l),
(29,716,l),
(29,636,l),
(65,636,o),
(91,620,o),
(91,596,c),
(29,596,l),
(29,551,l),
(96,551,l),
(96,500,ls),
(96,460,o),
(79,434,o),
(29,434,c),
(29,0,l)
);
},
{
closed = 1;
nodes = (
(254,551,l),
(446,551,l),
(446,529,l),
(254,529,l)
);
},
{
pos = (29,198);
ref = _part.cut;
},
{
pos = (29,307);
ref = _part.cut;
},
{
pos = (379,198);
ref = _part.cut;
},
{
pos = (379,307);
ref = _part.cut;
}
);
width = 700;
},
{
anchors = (
{
name = bottom;
pos = (369,0);
},
{
name = center;
pos = (369,900);
},
{
name = top;
pos = (369,900);
},
{
name = topleft;
pos = (0,716);
}
);
associatedMasterId = m01;
attr = {
coordinates = (
100
);
};
layerId = "F19C11B2-EC37-4F2C-8BF3-C1CF170AAF5C";
name = "Jan 3, 24 at 16:46";
shapes = (
{
closed = 1;
nodes = (
(321,0,l),
(321,439,l),
(278,439,o),
(255,454,o),
(255,484,c),
(445,484,l),
(445,454,o),
(422,439,o),
(379,439,c),
(379,0,l),
(671,0,l),
(671,434,l),
(621,434,o),
(604,460,o),
(604,500,cs),
(604,551,l),
(667,551,l),
(667,596,l),
(609,596,l),
(609,620,o),
(635,636,o),
(671,636,c),
(671,716,l),
(379,716,l),
(379,631,l),
(414,631,o),
(441,616,o),
(441,596,c),
(259,596,l),
(259,618,o),
(286,631,o),
(321,631,c),
(321,716,l),
(29,716,l),
(29,636,l),
(65,636,o),
(91,620,o),
(91,596,c),
(29,596,l),
(29,551,l),
(96,551,l),
(96,500,ls),
(96,460,o),
(79,434,o),
(29,434,c),
(29,0,l)
);
},
{
closed = 1;
nodes = (
(254,551,l),
(446,551,l),
(446,529,l),
(254,529,l)
);
},
{
pos = (29,199);
ref = _part.cut;
},
{
pos = (29,308);
ref = _part.cut;
},
{
pos = (379,199);
ref = _part.cut;
},
{
pos = (379,308);
ref = _part.cut;
}
);
width = 700;
}
);
unicode = 294;
},
{
color = 11;
glyphname = Heng;
lastChange = "2024-01-03 15:48:14 +0000";
layers = (
{
anchors = (
{
name = bottom;
pos = (338,0);
},
{
name = center;
pos = (349,358);
},
{
name = top;
pos = (349,716);
},
{
name = topleft;
pos = (0,716);
}
);
layerId = m01;
shapes = (
{
closed = 1;
nodes = (
(520,-140,o),
(671,-121,o),
(671,74,cs),
(671,434,l),
(621,434,o),
(604,460,o),
(604,500,cs),
(604,564,ls),
(604,604,o),
(621,636,o),
(671,636,c),
(671,716,l),
(379,716,l),
(379,631,l),
(424,631,o),
(442,609,o),
(446,575,c),
(254,575,l),
(258,609,o),
(276,631,o),
(321,631,c),
(321,716,l),
(29,716,l),
(29,636,l),
(79,636,o),
(96,604,o),
(96,564,cs),
(96,500,ls),
(96,460,o),
(79,434,o),
(29,434,c),
(29,0,l),
(321,0,l),
(321,439,l),
(271,439,o),
(254,460,o),
(254,500,cs),
(254,505,l),
(446,505,l),
(446,500,ls),
(446,460,o),
(429,439,o),
(379,439,c),
(379,26,ls),
(379,-11,o),
(384,-62,o),
(327,-99,c),
(348,-140,l)
);
},
{
pos = (29,150);
ref = _part.cut;
},
{
pos = (29,259);
ref = _part.cut;
},
{
pos = (379,150);
ref = _part.cut;
},
{
pos = (379,259);
ref = _part.cut;
}
);
width = 700;
},
{
anchors = (
{
name = bottom;
pos = (338,0);
},
{
name = center;
pos = (349,358);
},
{
name = top;
pos = (349,716);
},
{
name = topleft;
pos = (0,716);
}
);
associatedMasterId = m01;
attr = {
coordinates = (
50
);
};
layerId = "A6C01F0F-1541-4F8C-B4D5-C007C6A96E8A";
name = "Jan 3, 24 at 16:47";
shapes = (
{
closed = 1;
nodes = (
(520,-140,o),
(671,-121,o),
(671,74,cs),
(671,434,l),
(621,434,o),
(604,460,o),
(604,500,cs),
(604,564,ls),
(604,604,o),
(621,636,o),
(671,636,c),
(671,716,l),
(379,716,l),
(379,631,l),
(424,631,o),
(442,609,o),
(446,575,c),
(254,575,l),
(258,609,o),
(276,631,o),
(321,631,c),
(321,716,l),
(29,716,l),
(29,636,l),
(79,636,o),
(96,604,o),
(96,564,cs),
(96,500,ls),
(96,460,o),
(79,434,o),
(29,434,c),
(29,0,l),
(321,0,l),
(321,439,l),
(271,439,o),
(254,460,o),
(254,500,cs),
(254,505,l),
(446,505,l),
(446,500,ls),
(446,460,o),
(429,439,o),
(379,439,c),
(379,26,ls),
(379,-11,o),
(384,-62,o),
(327,-99,c),
(348,-140,l)
);
},
{
pos = (29,198);
ref = _part.cut;
},
{
pos = (29,307);
ref = _part.cut;
},
{
pos = (379,198);
ref = _part.cut;
},
{
pos = (379,307);
ref = _part.cut;
}
);
width = 700;
},
{
anchors = (
{
name = bottom;
pos = (338,0);
},
{
name = center;
pos = (349,358);
},
{
name = top;
pos = (349,716);
},
{
name = topleft;
pos = (0,716);
}
);
associatedMasterId = m01;
attr = {
coordinates = (
100
);
};
layerId = "719F55C1-AF08-480B-8457-7CAFEF5B6750";
name = "Jan 3, 24 at 16:47";
shapes = (
{
closed = 1;
nodes = (
(520,-140,o),
(671,-121,o),
(671,74,cs),
(671,434,l),
(621,434,o),
(604,460,o),
(604,500,cs),
(604,564,ls),
(604,604,o),
(621,636,o),
(671,636,c),
(671,716,l),
(379,716,l),
(379,631,l),
(424,631,o),
(442,609,o),
(446,575,c),
(254,575,l),
(258,609,o),
(276,631,o),
(321,631,c),
(321,716,l),
(29,716,l),
(29,636,l),
(79,636,o),
(96,604,o),
(96,564,cs),
(96,500,ls),
(96,460,o),
(79,434,o),
(29,434,c),
(29,0,l),
(321,0,l),
(321,439,l),
(271,439,o),
(254,460,o),
(254,500,cs),
(254,505,l),
(446,505,l),
(446,500,ls),
(446,460,o),
(429,439,o),
(379,439,c),
(379,26,ls),
(379,-11,o),
(384,-62,o),
(327,-99,c),
(348,-140,l)
);
},
{
pos = (29,199);
ref = _part.cut;
},
{
pos = (29,308);
ref = _part.cut;
},
{
pos = (379,199);
ref = _part.cut;
},
{
pos = (379,308);
ref = _part.cut;
}
);
width = 700;
}
);
unicode = 42790;
},
{
color = 11;
glyphname = Hhook;
lastChange = "2024-01-03 15:50:34 +0000";
layers = (
{
anchors = (
{
name = bottom;
pos = (489,0);
},
{
name = center;
pos = (500,358);
},
{
name = top;
pos = (500,716);
},
{
name = topleft;
pos = (151,716);
}
);
layerId = m01;
shapes = (
{
closed = 1;
nodes = (
(473,0,l),
(473,439,l),
(423,439,o),
(406,465,o),
(406,505,c),
(598,505,l),
(598,465,o),
(581,439,o),
(531,439,c),
(531,0,l),
(823,0,l),
(823,434,l),
(773,434,o),
(756,460,o),
(756,500,cs),
(756,564,ls),
(756,604,o),
(773,636,o),
(823,636,c),
(823,716,l),
(531,716,l),
(531,631,l),
(576,631,o),
(598,609,o),
(598,575,c),
(406,575,l),
(406,609,o),
(428,631,o),
(473,631,c),
(473,716,l),
(144,716,ls),
(57,716,o),
(0,647,o),
(0,566,c),
(118,566,l),
(118,606,o),
(135,636,o),
(180,636,cs),
(181,636,ls),
(231,636,o),
(248,604,o),
(248,564,cs),
(248,500,ls),
(248,460,o),
(231,434,o),
(181,434,c),
(181,0,l)
);
},
{
pos = (181,150);
ref = _part.cut;
},
{
pos = (181,259);
ref = _part.cut;
},
{
pos = (531,150);
ref = _part.cut;
},
{
pos = (531,259);
ref = _part.cut;
}
);
width = 851;
},
{
anchors = (
{
name = bottom;
pos = (489,0);
},
{
name = center;
pos = (500,358);
},
{
name = top;
pos = (500,716);
},
{
name = topleft;
pos = (151,716);
}
);
associatedMasterId = m01;
attr = {
coordinates = (
50
);
};
layerId = "9EC983BF-B1D9-4E62-8971-4E91AA0F1644";
name = "Jan 3, 24 at 16:49";
shapes = (
{
closed = 1;
nodes = (
(473,0,l),
(473,439,l),
(423,439,o),
(406,465,o),
(406,505,c),
(598,505,l),
(598,465,o),
(581,439,o),
(531,439,c),
(531,0,l),
(823,0,l),
(823,434,l),
(773,434,o),
(756,460,o),
(756,500,cs),
(756,564,ls),
(756,604,o),
(773,636,o),
(823,636,c),
(823,716,l),
(531,716,l),
(531,631,l),
(576,631,o),
(598,609,o),
(598,575,c),
(406,575,l),
(406,609,o),
(428,631,o),
(473,631,c),
(473,716,l),
(144,716,ls),
(57,716,o),
(0,647,o),
(0,566,c),
(118,566,l),
(118,606,o),
(135,636,o),
(180,636,cs),
(181,636,ls),
(231,636,o),
(248,604,o),
(248,564,cs),
(248,500,ls),
(248,460,o),
(231,434,o),
(181,434,c),
(181,0,l)
);
},
{
pos = (181,198);
ref = _part.cut;
},
{
pos = (181,307);
ref = _part.cut;
},
{
pos = (531,198);
ref = _part.cut;
},
{
pos = (531,307);
ref = _part.cut;
}
);
width = 851;
},
{
anchors = (
{
name = bottom;
pos = (489,0);
},
{
name = center;
pos = (500,358);
},
{
name = top;
pos = (500,716);
},
{
name = topleft;
pos = (151,716);
}
);
associatedMasterId = m01;
attr = {
coordinates = (
100
);
};
layerId = "1A681D5A-12FE-41B3-8058-BB52F181ACB9";
name = "Jan 3, 24 at 16:49";
shapes = (
{
closed = 1;
nodes = (
(473,0,l),
(473,439,l),
(423,439,o),
(406,465,o),
(406,505,c),
(598,505,l),
(598,465,o),
(581,439,o),
(531,439,c),
(531,0,l),
(823,0,l),
(823,434,l),
(773,434,o),
(756,460,o),
(756,500,cs),
(756,564,ls),
(756,604,o),
(773,636,o),
(823,636,c),
(823,716,l),
(531,716,l),
(531,631,l),
(576,631,o),
(598,609,o),
(598,575,c),
(406,575,l),
(406,609,o),
(428,631,o),
(473,631,c),
(473,716,l),
(144,716,ls),
(57,716,o),
(0,647,o),
(0,566,c),
(118,566,l),
(118,606,o),
(135,636,o),
(180,636,cs),
(181,636,ls),
(231,636,o),
(248,604,o),
(248,564,cs),
(248,500,ls),
(248,460,o),
(231,434,o),
(181,434,c),
(181,0,l)
);
},
{
pos = (181,199);
ref = _part.cut;
},
{
pos = (181,308);
ref = _part.cut;
},
{
pos = (531,199);
ref = _part.cut;
},
{
pos = (531,308);
ref = _part.cut;
}
);
width = 851;
}
);
unicode = 42922;
},
{
color = 11;
glyphname = Hturned;
lastChange = "2024-01-03 15:53:29 +0000";
layers = (
{
anchors = (
{
name = bottom;
pos = (309,0);
},
{
name = center;
pos = (320,358);
},
{
name = top;
pos = (320,716);
},
{
name = topleft;
pos = (-29,716);
}
);
layerId = m01;
shapes = (
{
closed = 1;
nodes = (
(642,0,l),
(642,434,l),
(592,434,o),
(575,460,o),
(575,500,cs),
(575,564,ls),
(575,604,o),
(592,636,o),
(642,636,c),
(642,716,l),
(350,716,l),
(350,631,l),
(400,631,o),
(417,604,o),
(416.996,565,c),
(267,565,ls),
(241,565,o),
(225,576,o),
(225,598,cs),
(225,619,o),
(238,631,o),
(266,631,cs),
(292,631,l),
(292,716,l),
(0,716,l),
(0,636,l),
(50,636,o),
(67,627,o),
(67,599,cs),
(67,544,o),
(126,495,o),
(191,495,cs),
(417,495,l),
(415,458,o),
(398,441,o),
(350,439,cs),
(330,438,l),
(330,-1,l)
);
},
{
pos = (330,150);
ref = _part.cut;
},
{
pos = (330,259);
ref = _part.cut;
}
);
width = 671;
},
{
anchors = (
{
name = bottom;
pos = (309,0);
},
{
name = center;
pos = (320,358);
},
{
name = top;
pos = (320,716);
},
{
name = topleft;
pos = (-29,716);
}
);
associatedMasterId = m01;
attr = {
coordinates = (
50
);
};
layerId = "7C585A86-3035-4563-9295-E93D6869BD9E";
name = "Jan 3, 24 at 16:52";
shapes = (
{
closed = 1;
nodes = (
(642,0,l),
(642,434,l),
(592,434,o),
(575,460,o),
(575,500,cs),
(575,564,ls),
(575,604,o),
(592,636,o),
(642,636,c),
(642,716,l),
(350,716,l),
(350,631,l),
(400,631,o),
(417,604,o),
(416.996,565,c),
(267,565,ls),
(241,565,o),
(225,576,o),
(225,598,cs),
(225,619,o),
(238,631,o),
(266,631,cs),
(292,631,l),
(292,716,l),
(0,716,l),
(0,636,l),
(50,636,o),
(67,627,o),
(67,599,cs),
(67,544,o),
(126,495,o),
(191,495,cs),
(417,495,l),
(415,458,o),
(398,441,o),
(350,439,cs),
(330,438,l),
(330,-1,l)
);
},
{
pos = (330,197);
ref = _part.cut;
},
{
pos = (330,306);
ref = _part.cut;
}
);
width = 671;
},
{
anchors = (
{
name = bottom;
pos = (309,0);
},
{
name = center;
pos = (320,358);
},
{
name = top;
pos = (320,716);
},
{
name = topleft;
pos = (-29,716);
}
);
associatedMasterId = m01;
attr = {
coordinates = (
100
);
};
layerId = "EB5283FE-CBE6-4B0B-AB6D-D2487C540771";
name = "Jan 3, 24 at 16:52";
shapes = (
{
closed = 1;
nodes = (
(642,0,l),
(642,434,l),
(592,434,o),
(575,460,o),
(575,500,cs),
(575,564,ls),
(575,604,o),
(592,636,o),
(642,636,c),
(642,716,l),
(350,716,l),
(350,631,l),
(400,631,o),
(417,604,o),
(416.996,565,c),
(267,565,ls),
(241,565,o),
(225,576,o),
(225,598,cs),
(225,619,o),
(238,631,o),
(266,631,cs),
(292,631,l),
(292,716,l),
(0,716,l),
(0,636,l),
(50,636,o),
(67,627,o),
(67,599,cs),
(67,544,o),
(126,495,o),
(191,495,cs),
(417,495,l),
(415,458,o),
(398,441,o),
(350,439,cs),
(330,438,l),
(330,-1,l)
);
},
{
pos = (330,197);
ref = _part.cut;
},
{
pos = (330,306);
ref = _part.cut;
}
);
width = 671;
}
);
unicode = 42893;
},
{
glyphname = I;
lastChange = "2024-01-03 11:08:59 +0000";
layers = (
{
anchors = (
{
name = bottom;
pos = (170,0);
},
{
name = center;
pos = (174,535);
},
{
name = ogonek;
pos = (321,0);
},
{
name = top;
pos = (175,716);
},
{
name = topleft;
pos = (1,716);
}
);
layerId = m01;
shapes = (
{
closed = 1;
nodes = (
(321,0,l),
(321,434,l),
(271,434,o),
(254,460,o),
(254,498,cs),
(254,567,ls),
(254,604,o),
(271,636,o),
(321,636,c),
(321,716,l),
(29,716,l),
(29,636,l),
(79,636,o),
(96,609,o),
(96,567,cs),
(96,498,ls),
(96,455,o),
(79,434,o),
(29,434,c),
(29,0,l)
);
},
{
pos = (29,150);
ref = _part.cut;
},
{
pos = (29,259);
ref = _part.cut;
}
);
width = 350;
},
{
anchors = (
{
name = bottom;
pos = (170,0);
},
{
name = center;
pos = (174,535);
},
{
name = ogonek;
pos = (321,0);
},
{
name = top;
pos = (175,716);
},
{
name = topleft;
pos = (1,716);
}
);
associatedMasterId = m01;
attr = {
coordinates = (
50
);
};
layerId = "5420DE78-C95A-44A0-B8ED-B776BBC2B43F";
name = "Jan 3, 24 at 08:22";
shapes = (
{
closed = 1;
nodes = (
(321,0,l),
(321,434,l),
(271,434,o),
(254,460,o),
(254,498,cs),
(254,567,ls),
(254,604,o),
(271,636,o),
(321,636,c),
(321,716,l),
(29,716,l),
(29,636,l),
(79,636,o),
(96,609,o),
(96,567,cs),
(96,498,ls),
(96,455,o),
(79,434,o),
(29,434,c),
(29,0,l)
);
},
{
pos = (29,198);
ref = _part.cut;
},
{
pos = (29,307);
ref = _part.cut;
}
);
width = 350;
},
{
anchors = (
{
name = bottom;
pos = (170,0);
},
{
name = center;
pos = (174,535);
},
{
name = ogonek;
pos = (321,0);
},
{
name = top;
pos = (175,716);
},
{
name = topleft;
pos = (1,716);
}
);
associatedMasterId = m01;
attr = {
coordinates = (
100
);
};
layerId = "F8320619-8BC2-4DEC-8FA1-B9F731792DE3";
name = "Jan 3, 24 at 08:22";
shapes = (
{
closed = 1;
nodes = (
(321,0,l),
(321,434,l),
(271,434,o),
(254,460,o),
(254,498,cs),
(254,567,ls),
(254,604,o),
(271,636,o),
(321,636,c),
(321,716,l),
(29,716,l),
(29,636,l),
(79,636,o),
(96,609,o),
(96,567,cs),
(96,498,ls),
(96,455,o),
(79,434,o),
(29,434,c),
(29,0,l)
);
},
{
pos = (29,199);
ref = _part.cut;
},
{
pos = (29,308);
ref = _part.cut;
}
);
width = 350;
}
);
metricLeft = H;
metricRight = H;
unicode = 73;
},
{
glyphname = J;
lastChange = "2024-01-03 11:08:59 +0000";
layers = (
{
anchors = (
{
name = bottom;
pos = (327,0);
},
{
name = center;
pos = (438,533);
},
{
name = top;
pos = (327,716);
}
);
layerId = m01;
shapes = (
{
closed = 1;
nodes = (
(395,0,l),
(504,0,o),
(584,75,o),
(584,186,cs),
(584,434,l),
(534,434,o),
(517,460,o),
(517,500,cs),
(517,564,ls),
(517,604,o),
(534,636,o),
(584,636,c),
(584,716,l),
(292,716,l),
(292,636,l),
(342,636,o),
(359,609,o),
(359,569,cs),
(359,500,ls),
(359,460,o),
(342,439,o),
(292,439,cs),
(193,439,ls),
(143,439,o),
(126,460,o),
(126,500,cs),
(126,544,l),
(31,544,l),
(31,186,ls),
(31,75,o),
(111,0,o),
(220,0,cs)
);
},
{
pos = (31,150);
ref = _part.cut;
},
{
pos = (31,259);
ref = _part.cut;
},
{
pos = (584,150);
ref = _part.cut;
scale = (-1,1);
},
{
pos = (584,259);
ref = _part.cut;
scale = (-1,1);
}
);
width = 620;
},
{
anchors = (
{
name = bottom;
pos = (327,0);
},
{
name = center;
pos = (438,533);
},
{
name = top;
pos = (327,716);
}
);
associatedMasterId = m01;
attr = {
coordinates = (
50
);
};
layerId = "BE097CF5-943E-4AB1-AB72-9C0C3DFF8F97";
name = "Jan 3, 24 at 08:25";
shapes = (
{
closed = 1;
nodes = (
(395,0,l),
(504,0,o),
(584,75,o),
(584,186,cs),
(584,434,l),
(534,434,o),
(517,460,o),
(517,500,cs),
(517,564,ls),
(517,604,o),
(534,636,o),
(584,636,c),
(584,716,l),
(292,716,l),
(292,636,l),
(342,636,o),
(359,609,o),
(359,569,cs),
(359,500,ls),
(359,460,o),
(342,439,o),
(292,439,cs),
(193,439,ls),
(143,439,o),
(126,460,o),
(126,500,cs),
(126,544,l),
(31,544,l),
(31,186,ls),
(31,75,o),
(111,0,o),
(220,0,cs)
);
},
{
pos = (31,198);
ref = _part.cut;
},
{
pos = (31,307);
ref = _part.cut;
},
{
pos = (584,198);
ref = _part.cut;
scale = (-1,1);
},
{
pos = (584,307);
ref = _part.cut;
scale = (-1,1);
}
);
width = 620;
},
{
anchors = (
{
name = bottom;
pos = (327,0);
},
{
name = center;
pos = (438,533);
},
{
name = top;
pos = (327,716);
}
);
associatedMasterId = m01;
attr = {
coordinates = (
100
);
};
layerId = "7EC85CEE-8FE2-4393-BE97-29117125FFC4";
name = "Jan 3, 24 at 08:25";
shapes = (
{
closed = 1;
nodes = (
(395,0,l),
(504,0,o),
(584,75,o),
(584,186,cs),
(584,434,l),
(534,434,o),
(517,460,o),
(517,500,cs),
(517,564,ls),
(517,604,o),
(534,636,o),
(584,636,c),
(584,716,l),
(292,716,l),
(292,636,l),
(342,636,o),
(359,609,o),
(359,569,cs),
(359,500,ls),
(359,460,o),
(342,439,o),
(292,439,cs),
(193,439,ls),
(143,439,o),
(126,460,o),
(126,500,cs),
(126,544,l),
(31,544,l),
(31,186,ls),
(31,75,o),
(111,0,o),
(220,0,cs)
);
},
{
pos = (31,199);
ref = _part.cut;
},
{
pos = (31,308);
ref = _part.cut;
},
{
pos = (584,199);
ref = _part.cut;
scale = (-1,1);
},
{
pos = (584,308);
ref = _part.cut;
scale = (-1,1);
}
);
width = 620;
}
);
unicode = 74;
},
{
glyphname = K;
lastChange = "2024-01-03 11:08:59 +0000";
layers = (
{
anchors = (
{
name = bottom;
pos = (331,0);
},
{
name = hookjoin;
pos = (648,636);
},
{
name = top;
pos = (345,716);
}
);
background = {
shapes = (
{
closed = 1;
nodes = (
(312,0,l),
(312,439,l),
(266,439,o),
(249,460,o),
(249,500,cs),
(249,564,ls),
(249,604,o),
(266,631,o),
(312,631,c),
(312,716,l),
(29,716,l),
(29,636,l),
(79,636,o),
(96,604,o),
(96,564,cs),
(96,500,ls),
(96,460,o),
(79,434,o),
(29,434,c),
(29,0,l)
);
},
{
closed = 1;
nodes = (
(668,0,l),
(668,435,l),
(649,435,ls),
(622,435,o),
(608,449,o),
(551,512,cs),
(462,610,l),
(341,536,l),
(399,467,l),
(410,454,o),
(400,439,o),
(382,439,cs),
(370,439,l),
(370,0,l)
);
},
{
closed = 1;
nodes = (
(568,613,ls),
(584,620,o),
(611,636,o),
(638,636,cs),
(648,636,l),
(648,716,l),
(361,716,l),
(361,631,l),
(382,631,ls),
(403,631,o),
(406,614,o),
(391,607,cs),
(198,522,l),
(198,446,l)
);
}
);
};
guides = (
{
angle = 90;
pos = (286,525);
}
);
layerId = m01;
shapes = (
{
closed = 1;
nodes = (
(312,0,l),
(312,439,l),
(280,439,o),
(253,449,o),
(253,471,c),
(355,520,l),
(384,485,ls),
(402,463,o),
(404,461,o),
(404,453,cs),
(404,445,o),
(395,439,o),
(382,439,cs),
(370,439,l),
(370,0,l),
(668,0,l),
(668,435,l),
(649,435,ls),
(624,435,o),
(613,444,o),
(551,512,cs),
(489,580,l),
(563,613,ls),
(611,635,o),
(617,636,o),
(633,636,cs),
(643,636,l),
(643,716,l),
(361,716,l),
(361,631,l),
(380,631,ls),
(388,631,o),
(395,627,o),
(395,620,cs),
(395,613,o),
(392,610,o),
(386,607,cs),
(249,544,l),
(249,564,ls),
(249,608,o),
(270,631,o),
(312,631,c),
(312,716,l),
(29,716,l),
(29,636,l),
(73,636,o),
(96,611,o),
(96,564,cs),
(96,500,ls),
(96,455,o),
(74,434,o),
(29,434,c),
(29,0,l)
);
},
{
pos = (29,150);
ref = _part.cut;
},
{
pos = (29,259);
ref = _part.cut;
},
{
pos = (370,150);
ref = _part.cut;
},
{
pos = (370,259);
ref = _part.cut;
}
);
width = 697;
},
{
anchors = (
{
name = bottom;
pos = (331,0);
},
{
name = hookjoin;
pos = (648,636);
},
{
name = top;
pos = (345,716);
}
);
associatedMasterId = m01;
attr = {
coordinates = (
50
);
};
background = {
shapes = (
{
closed = 1;
nodes = (
(312,0,l),
(312,439,l),
(266,439,o),
(249,460,o),
(249,500,cs),
(249,564,ls),
(249,604,o),
(266,631,o),
(312,631,c),
(312,716,l),
(29,716,l),
(29,636,l),
(79,636,o),
(96,604,o),
(96,564,cs),
(96,500,ls),
(96,460,o),
(79,434,o),
(29,434,c),
(29,0,l)
);
},
{
closed = 1;
nodes = (
(668,0,l),
(668,435,l),
(649,435,ls),
(622,435,o),
(608,449,o),
(551,512,cs),
(462,610,l),
(341,536,l),
(399,467,l),
(410,454,o),
(400,439,o),
(382,439,cs),
(370,439,l),
(370,0,l)
);
},
{
closed = 1;
nodes = (
(568,613,ls),
(584,620,o),
(611,636,o),
(638,636,cs),
(648,636,l),
(648,716,l),
(361,716,l),
(361,631,l),
(382,631,ls),
(403,631,o),
(406,614,o),
(391,607,cs),
(198,522,l),
(198,446,l)
);
}
);
};
guides = (
{
angle = 90;
pos = (286,525);
}
);
layerId = "0A55B3C4-BE28-4765-9C49-9974DBAB9003";
name = "Jan 3, 24 at 08:31";
shapes = (
{
closed = 1;
nodes = (
(312,0,l),
(312,439,l),
(280,439,o),
(253,449,o),
(253,471,c),
(355,520,l),
(384,485,ls),
(402,463,o),
(404,461,o),
(404,453,cs),
(404,445,o),
(395,439,o),
(382,439,cs),
(370,439,l),
(370,0,l),
(668,0,l),
(668,435,l),
(649,435,ls),
(624,435,o),
(613,444,o),
(551,512,cs),
(489,580,l),
(563,613,ls),
(611,635,o),
(617,636,o),
(633,636,cs),
(643,636,l),
(643,716,l),
(361,716,l),
(361,631,l),
(380,631,ls),
(388,631,o),
(395,627,o),
(395,620,cs),
(395,613,o),
(392,610,o),
(386,607,cs),
(249,544,l),
(249,564,ls),
(249,608,o),
(270,631,o),
(312,631,c),
(312,716,l),
(29,716,l),
(29,636,l),
(73,636,o),
(96,611,o),
(96,564,cs),
(96,500,ls),
(96,455,o),
(74,434,o),
(29,434,c),
(29,0,l)
);
},
{
pos = (29,198);
ref = _part.cut;
},
{
pos = (29,307);
ref = _part.cut;
},
{
pos = (370,198);
ref = _part.cut;
},
{
pos = (370,307);
ref = _part.cut;
}
);
width = 697;
},
{
anchors = (
{
name = bottom;
pos = (331,0);
},
{
name = hookjoin;
pos = (648,636);
},
{
name = top;
pos = (345,716);
}
);
associatedMasterId = m01;
attr = {
coordinates = (
100
);
};
background = {
shapes = (
{
closed = 1;
nodes = (
(312,0,l),
(312,439,l),
(266,439,o),
(249,460,o),
(249,500,cs),
(249,564,ls),
(249,604,o),
(266,631,o),
(312,631,c),
(312,716,l),
(29,716,l),
(29,636,l),
(79,636,o),
(96,604,o),
(96,564,cs),
(96,500,ls),
(96,460,o),
(79,434,o),
(29,434,c),
(29,0,l)
);
},
{
closed = 1;
nodes = (
(668,0,l),
(668,435,l),
(649,435,ls),
(622,435,o),
(608,449,o),
(551,512,cs),
(462,610,l),
(341,536,l),
(399,467,l),
(410,454,o),
(400,439,o),
(382,439,cs),
(370,439,l),
(370,0,l)
);
},
{
closed = 1;
nodes = (
(568,613,ls),
(584,620,o),
(611,636,o),
(638,636,cs),
(648,636,l),
(648,716,l),
(361,716,l),
(361,631,l),
(382,631,ls),
(403,631,o),
(406,614,o),
(391,607,cs),
(198,522,l),
(198,446,l)
);
}
);
};
guides = (
{
angle = 90;
pos = (286,525);
}
);
layerId = "5A989F08-CDBC-4E40-B31C-A0AFB422337D";
name = "Jan 3, 24 at 08:31";
shapes = (
{
closed = 1;
nodes = (
(312,0,l),
(312,439,l),
(280,439,o),
(253,449,o),
(253,471,c),
(355,520,l),
(384,485,ls),
(402,463,o),
(404,461,o),
(404,453,cs),
(404,445,o),
(395,439,o),
(382,439,cs),
(370,439,l),
(370,0,l),
(668,0,l),
(668,435,l),
(649,435,ls),
(624,435,o),
(613,444,o),
(551,512,cs),
(489,580,l),
(563,613,ls),
(611,635,o),
(617,636,o),
(633,636,cs),
(643,636,l),
(643,716,l),
(361,716,l),
(361,631,l),
(380,631,ls),
(388,631,o),
(395,627,o),
(395,620,cs),
(395,613,o),
(392,610,o),
(386,607,cs),
(249,544,l),
(249,564,ls),
(249,608,o),
(270,631,o),
(312,631,c),
(312,716,l),
(29,716,l),
(29,636,l),
(73,636,o),
(96,611,o),
(96,564,cs),
(96,500,ls),
(96,455,o),
(74,434,o),
(29,434,c),
(29,0,l)
);
},
{
pos = (29,199);
ref = _part.cut;
},
{
pos = (29,308);
ref = _part.cut;
},
{
pos = (370,199);
ref = _part.cut;
},
{
pos = (370,308);
ref = _part.cut;
}
);
width = 697;
}
);
metricLeft = H;
unicode = 75;
},
{
glyphname = L;
lastChange = "2024-01-03 11:08:59 +0000";
layers = (
{
anchors = (
{
name = bottom;
pos = (298,0);
},
{
name = center;
pos = (176,537);
},
{
name = top;
pos = (167,716);
},
{
name = topright;
pos = (669,716);
}
);
layerId = m01;
shapes = (
{
closed = 1;
nodes = (
(553,0,l),
(553,544,l),
(458,544,l),
(458,500,ls),
(458,460,o),
(441,439,o),
(391,439,c),
(255,439,l),
(255,564,l),
(255,604,o),
(272,636,o),
(322,636,c),
(322,716,l),
(29,716,l),
(29,636,l),
(79,636,o),
(97,604,o),
(97,564,cs),
(97,500,ls),
(97,460,o),
(80,434,o),
(29,434,c),
(29,0,l)
);
},
{
pos = (29,150);
ref = _part.cut;
},
{
pos = (29,259);
ref = _part.cut;
},
{
pos = (553,150);
ref = _part.cut;
scale = (-1,1);
},
{
pos = (553,259);
ref = _part.cut;
scale = (-1,1);
}
);
width = 584;
},
{
anchors = (
{
name = bottom;
pos = (298,0);
},
{
name = center;
pos = (176,537);
},
{
name = top;
pos = (167,716);
},
{
name = topright;
pos = (669,716);
}
);
associatedMasterId = m01;
attr = {
coordinates = (
50
);
};
layerId = "97C78770-691B-45B0-AC68-0BE89CB0992F";
name = "Jan 3, 24 at 09:07";
shapes = (
{
closed = 1;
nodes = (
(553,0,l),
(553,544,l),
(458,544,l),
(458,500,ls),
(458,460,o),
(441,439,o),
(391,439,c),
(255,439,l),
(255,564,l),
(255,604,o),
(272,636,o),
(322,636,c),
(322,716,l),
(29,716,l),
(29,636,l),
(79,636,o),
(97,604,o),
(97,564,cs),
(97,500,ls),
(97,460,o),
(80,434,o),
(29,434,c),
(29,0,l)
);
},
{
pos = (29,198);
ref = _part.cut;
},
{
pos = (29,307);
ref = _part.cut;
},
{
pos = (553,198);
ref = _part.cut;
scale = (-1,1);
},
{
pos = (553,307);
ref = _part.cut;
scale = (-1,1);
}
);
width = 584;
},
{
anchors = (
{
name = bottom;
pos = (298,0);
},
{
name = center;
pos = (176,537);
},
{
name = top;
pos = (167,716);
},
{
name = topright;
pos = (669,716);
}
);
associatedMasterId = m01;
attr = {
coordinates = (
100
);
};
layerId = "17E5F8FC-08A0-472F-98AF-D6A3A00F04AB";
name = "Jan 3, 24 at 09:07";
shapes = (
{
closed = 1;
nodes = (
(553,0,l),
(553,544,l),
(458,544,l),
(458,500,ls),
(458,460,o),
(441,439,o),
(391,439,c),
(255,439,l),
(255,564,l),
(255,604,o),
(272,636,o),
(322,636,c),
(322,716,l),
(29,716,l),
(29,636,l),
(79,636,o),
(97,604,o),
(97,564,cs),
(97,500,ls),
(97,460,o),
(80,434,o),
(29,434,c),
(29,0,l)
);
},
{
pos = (29,199);
ref = _part.cut;
},
{
pos = (29,308);
ref = _part.cut;
},
{
pos = (553,199);
ref = _part.cut;
scale = (-1,1);
},
{
pos = (553,308);
ref = _part.cut;
scale = (-1,1);
}
);
width = 584;
}
);
metricLeft = H;
unicode = 76;
},
{
glyphname = M;
lastChange = "2024-01-03 11:08:59 +0000";
layers = (
{
anchors = (
{
name = bottom;
pos = (394,0);
},
{
name = top;
pos = (378,716);
}
);
layerId = m01;
shapes = (
{
closed = 1;
nodes = (
(354,0,l),
(354,439,l),
(321,439,ls),
(271,439,o),
(254,461,o),
(254,501,cs),
(254,608,l),
(384,477,l),
(514,608,l),
(514,501,ls),
(514,461,o),
(497,439,o),
(447,439,cs),
(414,439,l),
(414,0,l),
(739,-1,l),
(739,433,l),
(689,433,o),
(672,454,o),
(672,494,cs),
(672,565,ls),
(672,605,o),
(689,632,o),
(739,632,c),
(739,715,l),
(511,715,l),
(384,588,l),
(257,715,l),
(29,715,l),
(29,632,l),
(79,632,o),
(96,605,o),
(96,565,cs),
(96,494,ls),
(96,454,o),
(79,433,o),
(29,433,c),
(29,-1,l)
);
},
{
pos = (29,150);
ref = _part.cut;
},
{
pos = (29,259);
ref = _part.cut;
},
{
pos = (414,150);
ref = _part.cut;
},
{
pos = (414,259);
ref = _part.cut;
}
);
width = 768;
},
{
anchors = (
{
name = bottom;
pos = (394,0);
},
{
name = top;
pos = (378,716);
}
);
associatedMasterId = m01;
attr = {
coordinates = (
50
);
};
layerId = "F5201F7D-2EC9-4FA4-8FEA-D64DFCEFCE47";
name = "Jan 3, 24 at 09:18";
shapes = (
{
closed = 1;
nodes = (
(354,0,l),
(354,439,l),
(321,439,ls),
(271,439,o),
(254,461,o),
(254,501,cs),
(254,608,l),
(384,477,l),
(514,608,l),
(514,501,ls),
(514,461,o),
(497,439,o),
(447,439,cs),
(414,439,l),
(414,0,l),
(739,-1,l),
(739,433,l),
(689,433,o),
(672,454,o),
(672,494,cs),
(672,565,ls),
(672,605,o),
(689,632,o),
(739,632,c),
(739,715,l),
(511,715,l),
(384,588,l),
(257,715,l),
(29,715,l),
(29,632,l),
(79,632,o),
(96,605,o),
(96,565,cs),
(96,494,ls),
(96,454,o),
(79,433,o),
(29,433,c),
(29,-1,l)
);
},
{
pos = (29,198);
ref = _part.cut;
},
{
pos = (29,307);
ref = _part.cut;
},
{
pos = (414,198);
ref = _part.cut;
},
{
pos = (414,307);
ref = _part.cut;
}
);
width = 768;
},
{
anchors = (
{
name = bottom;
pos = (394,0);
},
{
name = top;
pos = (378,716);
}
);
associatedMasterId = m01;
attr = {
coordinates = (
100
);
};
layerId = "A2E76716-DACB-4D7E-BE25-71BBECA0766D";
name = "Jan 3, 24 at 09:18";
shapes = (
{
closed = 1;
nodes = (
(354,0,l),
(354,439,l),
(321,439,ls),
(271,439,o),
(254,461,o),
(254,501,cs),
(254,608,l),
(384,477,l),
(514,608,l),
(514,501,ls),
(514,461,o),
(497,439,o),
(447,439,cs),
(414,439,l),
(414,0,l),
(739,-1,l),
(739,433,l),
(689,433,o),
(672,454,o),
(672,494,cs),
(672,565,ls),
(672,605,o),
(689,632,o),
(739,632,c),
(739,715,l),
(511,715,l),
(384,588,l),
(257,715,l),
(29,715,l),
(29,632,l),
(79,632,o),
(96,605,o),
(96,565,cs),
(96,494,ls),
(96,454,o),
(79,433,o),
(29,433,c),
(29,-1,l)
);
},
{
pos = (29,199);
ref = _part.cut;
},
{
pos = (29,308);
ref = _part.cut;
},
{
pos = (414,199);
ref = _part.cut;
},
{
pos = (414,308);
ref = _part.cut;
}
);
visible = 1;
width = 768;
}
);
metricLeft = H;
metricRight = H;
unicode = 77;
},
{
glyphname = N;
lastChange = "2024-01-03 11:08:59 +0000";
layers = (
{
anchors = (
{
name = bottom;
pos = (347,0);
},
{
name = ogonek;
pos = (690,0);
},
{
name = top;
pos = (344,716);
},
{
name = topleft;
pos = (347,716);
}
);
background = {
shapes = (
{
closed = 1;
nodes = (
(317,0,l),
(317,439,l),
(269,439,o),
(252,461,o),
(252,501,cs),
(253,716,l),
(27,716,l),
(27,636,l),
(80,636,o),
(97,607,o),
(97,567,cs),
(97,500,ls),
(97,457,o),
(88,434,o),
(27,434,c),
(27,0,l)
);
},
{
closed = 1;
nodes = (
(476,388,l),
(476,498,l),
(253,716,l),
(186,670,l)
);
},
{
closed = 1;
nodes = (
(667,0,l),
(667,434,l),
(617,434,o),
(600,460,o),
(600,500,cs),
(600,564,ls),
(600,604,o),
(617,636,o),
(667,636,c),
(667,716,l),
(375,716,l),
(375,636,l),
(425,636,o),
(442,609,o),
(442,569,cs),
(442,500,ls),
(442,460,o),
(425,439,o),
(375,439,c),
(375,0,l)
);
}
);
};
guides = (
{
pos = (431,445);
}
);
layerId = m01;
shapes = (
{
closed = 1;
nodes = (
(322,0,l),
(322,439,l),
(274,439,o),
(252,461,o),
(252,501,cs),
(252,601,l),
(377,439,l),
(377,0,l),
(667,0,l),
(667,434,l),
(617,434,o),
(600,460,o),
(600,500,cs),
(600,564,ls),
(600,604,o),
(617,636,o),
(667,636,c),
(667,716,l),
(375,716,l),
(375,636,l),
(425,636,o),
(442,609,o),
(442,569,cs),
(442,480,l),
(261,716,l),
(29,716,l),
(29,636,l),
(82,636,o),
(99,607,o),
(99,567,cs),
(99,500,ls),
(99,457,o),
(90,434,o),
(29,434,c),
(29,0,l)
);
},
{
pos = (29,150);
ref = _part.cut;
},
{
pos = (29,259);
ref = _part.cut;
},
{
pos = (377,150);
ref = _part.cut;
},
{
pos = (377,259);
ref = _part.cut;
}
);
width = 696;
},
{
anchors = (
{
name = bottom;
pos = (347,0);
},
{
name = ogonek;
pos = (690,0);
},
{
name = top;
pos = (344,716);
},
{
name = topleft;
pos = (347,716);
}
);
associatedMasterId = m01;
attr = {
coordinates = (
50
);
};
background = {
shapes = (
{
closed = 1;
nodes = (
(317,0,l),
(317,439,l),
(269,439,o),
(252,461,o),
(252,501,cs),
(253,716,l),
(27,716,l),
(27,636,l),
(80,636,o),
(97,607,o),
(97,567,cs),
(97,500,ls),
(97,457,o),
(88,434,o),
(27,434,c),
(27,0,l)
);
},
{
closed = 1;
nodes = (
(476,388,l),
(476,498,l),
(253,716,l),
(186,670,l)
);
},
{
closed = 1;
nodes = (
(667,0,l),
(667,434,l),
(617,434,o),
(600,460,o),
(600,500,cs),
(600,564,ls),
(600,604,o),
(617,636,o),
(667,636,c),
(667,716,l),
(375,716,l),
(375,636,l),
(425,636,o),
(442,609,o),
(442,569,cs),
(442,500,ls),
(442,460,o),
(425,439,o),
(375,439,c),
(375,0,l)
);
}
);
};
guides = (
{
pos = (431,445);
}
);
layerId = "649DE68D-706A-4AC2-9576-BC8F6FA6FD14";
name = "Jan 3, 24 at 09:20";
shapes = (
{
closed = 1;
nodes = (
(322,0,l),
(322,439,l),
(274,439,o),
(252,461,o),
(252,501,cs),
(252,601,l),
(377,439,l),
(377,0,l),
(667,0,l),
(667,434,l),
(617,434,o),
(600,460,o),
(600,500,cs),
(600,564,ls),
(600,604,o),
(617,636,o),
(667,636,c),
(667,716,l),
(375,716,l),
(375,636,l),
(425,636,o),
(442,609,o),
(442,569,cs),
(442,480,l),
(261,716,l),
(29,716,l),
(29,636,l),
(82,636,o),
(99,607,o),
(99,567,cs),
(99,500,ls),
(99,457,o),
(90,434,o),
(29,434,c),
(29,0,l)
);
},
{
pos = (29,198);
ref = _part.cut;
},
{
pos = (29,307);
ref = _part.cut;
},
{
pos = (377,198);
ref = _part.cut;
},
{
pos = (377,307);
ref = _part.cut;
}
);
width = 696;
},
{
anchors = (
{
name = bottom;
pos = (347,0);
},
{
name = ogonek;
pos = (690,0);
},
{
name = top;
pos = (344,716);
},
{
name = topleft;
pos = (347,716);
}
);
associatedMasterId = m01;
attr = {
coordinates = (
100
);
};
background = {
shapes = (
{
closed = 1;
nodes = (
(317,0,l),
(317,439,l),
(269,439,o),
(252,461,o),
(252,501,cs),
(253,716,l),
(27,716,l),
(27,636,l),
(80,636,o),
(97,607,o),
(97,567,cs),
(97,500,ls),
(97,457,o),
(88,434,o),
(27,434,c),
(27,0,l)
);
},
{
closed = 1;
nodes = (
(476,388,l),
(476,498,l),
(253,716,l),
(186,670,l)
);
},
{
closed = 1;
nodes = (
(667,0,l),
(667,434,l),
(617,434,o),
(600,460,o),
(600,500,cs),
(600,564,ls),
(600,604,o),
(617,636,o),
(667,636,c),
(667,716,l),
(375,716,l),
(375,636,l),
(425,636,o),
(442,609,o),
(442,569,cs),
(442,500,ls),
(442,460,o),
(425,439,o),
(375,439,c),
(375,0,l)
);
}
);
};
guides = (
{
pos = (431,445);
}
);
layerId = "6F550414-8F4C-42E3-B452-DEF04292FB6C";
name = "Jan 3, 24 at 09:20";
shapes = (
{
closed = 1;
nodes = (
(322,0,l),
(322,439,l),
(274,439,o),
(252,461,o),
(252,501,cs),
(252,601,l),
(377,439,l),
(377,0,l),
(667,0,l),
(667,434,l),
(617,434,o),
(600,460,o),
(600,500,cs),
(600,564,ls),
(600,604,o),
(617,636,o),
(667,636,c),
(667,716,l),
(375,716,l),
(375,636,l),
(425,636,o),
(442,609,o),
(442,569,cs),
(442,480,l),
(261,716,l),
(29,716,l),
(29,636,l),
(82,636,o),
(99,607,o),
(99,567,cs),
(99,500,ls),
(99,457,o),
(90,434,o),
(29,434,c),
(29,0,l)
);
},
{
pos = (29,199);
ref = _part.cut;
},
{
pos = (29,308);
ref = _part.cut;
},
{
pos = (377,199);
ref = _part.cut;
},
{
pos = (377,308);
ref = _part.cut;
}
);
width = 696;
}
);
metricLeft = H;
metricRight = H;
unicode = 78;
},
{
glyphname = O;
lastChange = "2024-01-03 11:08:59 +0000";
layers = (
{
anchors = (
{
name = bottom;
pos = (325,0);
},
{
name = center;
pos = (325,358);
},
{
name = horn;
pos = (559,642);
},
{
name = ogonek;
pos = (417,-8);
},
{
name = top;
pos = (318,716);
},
{
name = topleft;
pos = (-12,716);
}
);
background = {
shapes = (
{
closed = 1;
nodes = (
(410,-6,l),
(522,-6,o),
(605,75,o),
(605,186,cs),
(605,536,ls),
(605,643,o),
(525,722,o),
(416,722,cs),
(218,722,ls),
(109,722,o),
(29,643,o),
(29,536,cs),
(29,186,ls),
(29,75,o),
(112,-6,o),
(224,-6,cs)
);
},
{
pos = (-24,5);
ref = cutdetail.part;
},
{
closed = 1;
nodes = (
(245,439,o),
(229,461,o),
(229,492,cs),
(229,569,ls),
(229,614,o),
(252,636,o),
(297,636,cs),
(337,636,ls),
(382,636,o),
(405,614,o),
(405,569,cs),
(405,492,ls),
(405,461,o),
(389,439,o),
(367,439,cs),
(267,439,ls)
);
}
);
};
layerId = m01;
shapes = (
{
closed = 1;
nodes = (
(410,-6,ls),
(522,-6,o),
(605,75,o),
(605,186,cs),
(605,536,ls),
(605,643,o),
(525,722,o),
(416,722,cs),
(218,722,ls),
(109,722,o),
(29,643,o),
(29,536,cs),
(29,186,ls),
(29,75,o),
(112,-6,o),
(224,-6,cs)
);
},
{
closed = 1;
nodes = (
(245,439,o),
(229,461,o),
(229,492,cs),
(229,569,ls),
(229,614,o),
(252,636,o),
(297,636,cs),
(337,636,ls),
(382,636,o),
(405,614,o),
(405,569,cs),
(405,492,ls),
(405,461,o),
(389,439,o),
(367,439,cs),
(346,439,o),
(324,448,o),
(320,501,c),
(313,501,l),
(309,448,o),
(288,439,o),
(267,439,cs)
);
},
{
pos = (29,150);
ref = _part.cut;
},
{
pos = (29,259);
ref = _part.cut;
},
{
pos = (605,150);
ref = _part.cut;
scale = (-1,1);
},
{
pos = (605,259);
ref = _part.cut;
scale = (-1,1);
}
);
width = 634;
},
{
anchors = (
{
name = bottom;
pos = (325,0);
},
{
name = center;
pos = (325,358);
},
{
name = horn;
pos = (559,642);
},
{
name = ogonek;
pos = (417,-8);
},
{
name = top;
pos = (318,716);
},
{
name = topleft;
pos = (-12,716);
}
);
associatedMasterId = m01;
attr = {
coordinates = (
50
);
};
background = {
shapes = (
{
closed = 1;
nodes = (
(410,-6,l),
(522,-6,o),
(605,75,o),
(605,186,cs),
(605,536,ls),
(605,643,o),
(525,722,o),
(416,722,cs),
(218,722,ls),
(109,722,o),
(29,643,o),
(29,536,cs),
(29,186,ls),
(29,75,o),
(112,-6,o),
(224,-6,cs)
);
},
{
pos = (-24,5);
ref = cutdetail.part;
},
{
closed = 1;
nodes = (
(245,439,o),
(229,461,o),
(229,492,cs),
(229,569,ls),
(229,614,o),
(252,636,o),
(297,636,cs),
(337,636,ls),
(382,636,o),
(405,614,o),
(405,569,cs),
(405,492,ls),
(405,461,o),
(389,439,o),
(367,439,cs),
(267,439,ls)
);
}
);
};
layerId = "D9D75532-C9AA-44A2-B31F-49CE1D3C59BF";
name = "Jan 3, 24 at 11:55";
shapes = (
{
closed = 1;
nodes = (
(410,-6,ls),
(522,-6,o),
(605,75,o),
(605,186,cs),
(605,536,ls),
(605,643,o),
(525,722,o),
(416,722,cs),
(218,722,ls),
(109,722,o),
(29,643,o),
(29,536,cs),
(29,186,ls),
(29,75,o),
(112,-6,o),
(224,-6,cs)
);
},
{
closed = 1;
nodes = (
(245,439,o),
(229,461,o),
(229,492,cs),
(229,569,ls),
(229,614,o),
(252,636,o),
(297,636,cs),
(337,636,ls),
(382,636,o),
(405,614,o),
(405,569,cs),
(405,492,ls),
(405,461,o),
(389,439,o),
(367,439,cs),
(346,439,o),
(324,448,o),
(320,501,c),
(313,501,l),
(309,448,o),
(288,439,o),
(267,439,cs)
);
},
{
pos = (29,198);
ref = _part.cut;
},
{
pos = (29,307);
ref = _part.cut;
},
{
pos = (605,198);
ref = _part.cut;
scale = (-1,1);
},
{
pos = (605,307);
ref = _part.cut;
scale = (-1,1);
}
);
width = 634;
},
{
anchors = (
{
name = bottom;
pos = (325,0);
},
{
name = center;
pos = (325,358);
},
{
name = horn;
pos = (559,642);
},
{
name = ogonek;
pos = (417,-8);
},
{
name = top;
pos = (318,716);
},
{
name = topleft;
pos = (-12,716);
}
);
associatedMasterId = m01;
attr = {
coordinates = (
100
);
};
background = {
shapes = (
{
closed = 1;
nodes = (
(410,-6,l),
(522,-6,o),
(605,75,o),
(605,186,cs),
(605,536,ls),
(605,643,o),
(525,722,o),
(416,722,cs),
(218,722,ls),
(109,722,o),
(29,643,o),
(29,536,cs),
(29,186,ls),
(29,75,o),
(112,-6,o),
(224,-6,cs)
);
},
{
pos = (-24,5);
ref = cutdetail.part;
},
{
closed = 1;
nodes = (
(245,439,o),
(229,461,o),
(229,492,cs),
(229,569,ls),
(229,614,o),
(252,636,o),
(297,636,cs),
(337,636,ls),
(382,636,o),
(405,614,o),
(405,569,cs),
(405,492,ls),
(405,461,o),
(389,439,o),
(367,439,cs),
(267,439,ls)
);
}
);
};
layerId = "FCEA23FD-B441-4AF4-B78D-54C03ACE831D";
name = "Jan 3, 24 at 11:55";
shapes = (
{
closed = 1;
nodes = (
(410,-6,ls),
(522,-6,o),
(605,75,o),
(605,186,cs),
(605,536,ls),
(605,643,o),
(525,722,o),
(416,722,cs),
(218,722,ls),
(109,722,o),
(29,643,o),
(29,536,cs),
(29,186,ls),
(29,75,o),
(112,-6,o),
(224,-6,cs)
);
},
{
closed = 1;
nodes = (
(245,439,o),
(229,461,o),
(229,492,cs),
(229,569,ls),
(229,614,o),
(252,636,o),
(297,636,cs),
(337,636,ls),
(382,636,o),
(405,614,o),
(405,569,cs),
(405,492,ls),
(405,461,o),
(389,439,o),
(367,439,cs),
(346,439,o),
(324,448,o),
(320,501,c),
(313,501,l),
(309,448,o),
(288,439,o),
(267,439,cs)
);
},
{
pos = (29,186);
ref = _part.cut;
},
{
pos = (29,308);
ref = _part.cut;
},
{
pos = (605,186);
ref = _part.cut;
scale = (-1,1);
},
{
pos = (605,308);
ref = _part.cut;
scale = (-1,1);
}
);
width = 634;
}
);
unicode = 79;
},
{
glyphname = P;
lastChange = "2024-01-03 11:08:59 +0000";
layers = (
{
anchors = (
{
name = bottom;
pos = (336,0);
},
{
name = hookjoin;
pos = (29,636);
},
{
name = top;
pos = (306,713);
}
);
layerId = m01;
shapes = (
{
closed = 1;
nodes = (
(469,0,l),
(469,434,l),
(331,434,ls),
(281,434,o),
(264,460,o),
(264,497,c),
(474,497,ls),
(511,497,o),
(589,518,o),
(589,605,cs),
(589,711,o),
(500,716,o),
(460,716,cs),
(29,716,l),
(29,636,l),
(79,636,o),
(96,609,o),
(96,569,cs),
(96,495,ls),
(96,455,o),
(79,434,o),
(29,434,c),
(29,0,l)
);
},
{
closed = 1;
nodes = (
(264,636,l),
(369,636,ls),
(397,636,o),
(410,620,o),
(410,600,cs),
(410,575,o),
(394,563,o),
(368,563,cs),
(264,563,l)
);
},
{
pos = (29,150);
ref = _part.cut;
},
{
pos = (29,259);
ref = _part.cut;
}
);
width = 609;
},
{
anchors = (
{
name = bottom;
pos = (336,0);
},
{
name = hookjoin;
pos = (29,636);
},
{
name = top;
pos = (306,713);
}
);
associatedMasterId = m01;
attr = {
coordinates = (
50
);
};
layerId = "345229BB-F49E-4078-BA47-161B009985E7";
name = "Jan 3, 24 at 09:48";
shapes = (
{
closed = 1;
nodes = (
(469,0,l),
(469,434,l),
(331,434,ls),
(281,434,o),
(264,460,o),
(264,497,c),
(474,497,ls),
(511,497,o),
(589,518,o),
(589,605,cs),
(589,711,o),
(500,716,o),
(460,716,cs),
(29,716,l),
(29,636,l),
(79,636,o),
(96,609,o),
(96,569,cs),
(96,495,ls),
(96,455,o),
(79,434,o),
(29,434,c),
(29,0,l)
);
},
{
closed = 1;
nodes = (
(264,636,l),
(369,636,ls),
(397,636,o),
(410,620,o),
(410,600,cs),
(410,575,o),
(394,563,o),
(368,563,cs),
(264,563,l)
);
},
{
pos = (29,198);
ref = _part.cut;
},
{
pos = (29,307);
ref = _part.cut;
}
);
width = 609;
},
{
anchors = (
{
name = bottom;
pos = (336,0);
},
{
name = hookjoin;
pos = (29,636);
},
{
name = top;
pos = (306,713);
}
);
associatedMasterId = m01;
attr = {
coordinates = (
100
);
};
layerId = "59866A44-0AE1-4F0D-B889-89B71722873E";
name = "Jan 3, 24 at 09:48";
shapes = (
{
closed = 1;
nodes = (
(469,0,l),
(469,434,l),
(331,434,ls),
(281,434,o),
(264,460,o),
(264,497,c),
(474,497,ls),
(511,497,o),
(589,518,o),
(589,605,cs),
(589,711,o),
(500,716,o),
(460,716,cs),
(29,716,l),
(29,636,l),
(79,636,o),
(96,609,o),
(96,569,cs),
(96,495,ls),
(96,455,o),
(79,434,o),
(29,434,c),
(29,0,l)
);
},
{
closed = 1;
nodes = (
(264,636,l),
(369,636,ls),
(397,636,o),
(410,620,o),
(410,600,cs),
(410,575,o),
(394,563,o),
(368,563,cs),
(264,563,l)
);
},
{
pos = (29,199);
ref = _part.cut;
},
{
pos = (29,308);
ref = _part.cut;
}
);
width = 609;
}
);
metricLeft = H;
unicode = 80;
},
{
glyphname = Q;
lastChange = "2024-01-03 11:08:59 +0000";
layers = (
{
background = {
shapes = (
{
pos = (-24,5);
ref = cutdetail.part;
},
{
closed = 1;
nodes = (
(329,-6,o),
(402,56,o),
(402,155,cs),
(402,217,l),
(441,217,o),
(458,195,o),
(469,132,cs),
(486,39,o),
(516,0,o),
(571,0,c),
(645,0,l),
(645,434,l),
(474,434,l),
(474,448,o),
(487,459,o),
(506,462,cs),
(535,467,ls),
(584,475,o),
(607,508,o),
(607,568,cs),
(607,581,ls),
(607,677,o),
(556,722,o),
(447,722,cs),
(220,722,ls),
(111,722,o),
(31,643,o),
(31,536,cs),
(31,186,ls),
(31,62,o),
(96,-6,o),
(213,-6,cs)
);
},
{
pos = (-24,5);
ref = cutdetail.part;
},
{
closed = 1;
nodes = (
(247,439,o),
(231,461,o),
(231,492,cs),
(231,569,ls),
(231,614,o),
(254,636,o),
(299,636,cs),
(339,636,ls),
(384,636,o),
(407,614,o),
(407,569,cs),
(407,492,ls),
(407,461,o),
(391,439,o),
(369,439,cs),
(269,439,ls)
);
}
);
};
layerId = m01;
shapes = (
{
closed = 1;
nodes = (
(329,-6,o),
(402,56,o),
(402,155,cs),
(402,217,l),
(441,217,o),
(458,195,o),
(469,132,cs),
(486,39,o),
(516,0,o),
(571,0,cs),
(645,0,l),
(645,434,l),
(474,434,l),
(474,448,o),
(487,459,o),
(506,462,cs),
(535,467,ls),
(584,475,o),
(607,508,o),
(607,568,cs),
(607,581,ls),
(607,677,o),
(556,722,o),
(447,722,cs),
(220,722,ls),
(111,722,o),
(31,643,o),
(31,536,cs),
(31,186,ls),
(31,62,o),
(96,-6,o),
(213,-6,cs)
);
},
{
closed = 1;
nodes = (
(247,440,o),
(231,461,o),
(231,492,cs),
(231,569,ls),
(231,614,o),
(254,636,o),
(299,636,cs),
(339,636,ls),
(384,636,o),
(407,614,o),
(407,569,cs),
(407,492,ls),
(407,461,o),
(391,439,o),
(369,439,cs),
(367,439,ls),
(346,439,o),
(324,448,o),
(320,501,c),
(313,501,l),
(309,449,o),
(289,439,o),
(268,439,cs)
);
},
{
pos = (31,150);
ref = _part.cut;
},
{
pos = (31,259);
ref = _part.cut;
},
{
pos = (645,150);
ref = _part.cut;
scale = (-1,1);
},
{
pos = (645,259);
ref = _part.cut;
scale = (-1,1);
}
);
width = 665;
},
{
associatedMasterId = m01;
attr = {
coordinates = (
50
);
};
background = {
shapes = (
{
pos = (-24,5);
ref = cutdetail.part;
},
{
closed = 1;
nodes = (
(329,-6,o),
(402,56,o),
(402,155,cs),
(402,217,l),
(441,217,o),
(458,195,o),
(469,132,cs),
(486,39,o),
(516,0,o),
(571,0,c),
(645,0,l),
(645,434,l),
(474,434,l),
(474,448,o),
(487,459,o),
(506,462,cs),
(535,467,ls),
(584,475,o),
(607,508,o),
(607,568,cs),
(607,581,ls),
(607,677,o),
(556,722,o),
(447,722,cs),
(220,722,ls),
(111,722,o),
(31,643,o),
(31,536,cs),
(31,186,ls),
(31,62,o),
(96,-6,o),
(213,-6,cs)
);
},
{
pos = (-24,5);
ref = cutdetail.part;
},
{
closed = 1;
nodes = (
(247,439,o),
(231,461,o),
(231,492,cs),
(231,569,ls),
(231,614,o),
(254,636,o),
(299,636,cs),
(339,636,ls),
(384,636,o),
(407,614,o),
(407,569,cs),
(407,492,ls),
(407,461,o),
(391,439,o),
(369,439,cs),
(269,439,ls)
);
}
);
};
layerId = "1E884E59-DF9B-4D97-9018-7A847DE592F7";
name = "Jan 3, 24 at 11:59";
shapes = (
{
closed = 1;
nodes = (
(329,-6,o),
(402,56,o),
(402,155,cs),
(402,217,l),
(441,217,o),
(458,195,o),
(469,132,cs),
(486,39,o),
(516,0,o),
(571,0,cs),
(645,0,l),
(645,434,l),
(474,434,l),
(474,448,o),
(487,459,o),
(506,462,cs),
(535,467,ls),
(584,475,o),
(607,508,o),
(607,568,cs),
(607,581,ls),
(607,677,o),
(556,722,o),
(447,722,cs),
(220,722,ls),
(111,722,o),
(31,643,o),
(31,536,cs),
(31,186,ls),
(31,62,o),
(96,-6,o),
(213,-6,cs)
);
},
{
closed = 1;
nodes = (
(247,440,o),
(231,461,o),
(231,492,cs),
(231,569,ls),
(231,614,o),
(254,636,o),
(299,636,cs),
(339,636,ls),
(384,636,o),
(407,614,o),
(407,569,cs),
(407,492,ls),
(407,461,o),
(391,439,o),
(369,439,cs),
(367,439,ls),
(346,439,o),
(324,448,o),
(320,501,c),
(313,501,l),
(309,449,o),
(289,439,o),
(268,439,cs)
);
},
{
pos = (31,198);
ref = _part.cut;
},
{
pos = (31,307);
ref = _part.cut;
},
{
pos = (645,198);
ref = _part.cut;
scale = (-1,1);
},
{
pos = (645,307);
ref = _part.cut;
scale = (-1,1);
}
);
width = 665;
},
{
associatedMasterId = m01;
attr = {
coordinates = (
100
);
};
background = {
shapes = (
{
pos = (-24,5);
ref = cutdetail.part;
},
{
closed = 1;
nodes = (
(329,-6,o),
(402,56,o),
(402,155,cs),
(402,217,l),
(441,217,o),
(458,195,o),
(469,132,cs),
(486,39,o),
(516,0,o),
(571,0,c),
(645,0,l),
(645,434,l),
(474,434,l),
(474,448,o),
(487,459,o),
(506,462,cs),
(535,467,ls),
(584,475,o),
(607,508,o),
(607,568,cs),
(607,581,ls),
(607,677,o),
(556,722,o),
(447,722,cs),
(220,722,ls),
(111,722,o),
(31,643,o),
(31,536,cs),
(31,186,ls),
(31,62,o),
(96,-6,o),
(213,-6,cs)
);
},
{
pos = (-24,5);
ref = cutdetail.part;
},
{
closed = 1;
nodes = (
(247,439,o),
(231,461,o),
(231,492,cs),
(231,569,ls),
(231,614,o),
(254,636,o),
(299,636,cs),
(339,636,ls),
(384,636,o),
(407,614,o),
(407,569,cs),
(407,492,ls),
(407,461,o),
(391,439,o),
(369,439,cs),
(269,439,ls)
);
}
);
};
layerId = "4A5B6BA9-EEBA-4138-B21A-5344116733A7";
name = "Jan 3, 24 at 11:59";
shapes = (
{
closed = 1;
nodes = (
(329,-6,o),
(402,56,o),
(402,155,cs),
(402,217,l),
(441,217,o),
(458,195,o),
(469,132,cs),
(486,39,o),
(516,0,o),
(571,0,cs),
(645,0,l),
(645,434,l),
(474,434,l),
(474,448,o),
(487,459,o),
(506,462,cs),
(535,467,ls),
(584,475,o),
(607,508,o),
(607,568,cs),
(607,581,ls),
(607,677,o),
(556,722,o),
(447,722,cs),
(220,722,ls),
(111,722,o),
(31,643,o),
(31,536,cs),
(31,186,ls),
(31,62,o),
(96,-6,o),
(213,-6,cs)
);
},
{
closed = 1;
nodes = (
(247,440,o),
(231,461,o),
(231,492,cs),
(231,569,ls),
(231,614,o),
(254,636,o),
(299,636,cs),
(339,636,ls),
(384,636,o),
(407,614,o),
(407,569,cs),
(407,492,ls),
(407,461,o),
(391,439,o),
(369,439,cs),
(367,439,ls),
(346,439,o),
(324,448,o),
(320,501,c),
(313,501,l),
(309,449,o),
(289,439,o),
(268,439,cs)
);
},
{
pos = (31,186);
ref = _part.cut;
},
{
pos = (31,308);
ref = _part.cut;
},
{
pos = (645,186);
ref = _part.cut;
scale = (-1,1);
},
{
pos = (645,298);
ref = _part.cut;
scale = (-1,1);
}
);
width = 665;
}
);
unicode = 81;
},
{
glyphname = R;
lastChange = "2024-01-03 13:53:43 +0000";
layers = (
{
anchors = (
{
name = bottom;
pos = (351,0);
},
{
name = top;
pos = (311,716);
}
);
layerId = m01;
shapes = (
{
closed = 1;
nodes = (
(671,-8,l),
(671,434,l),
(553,434,o),
(615,539,o),
(456,539,c),
(456,544,l),
(474,544,ls),
(511,544,o),
(589,560,o),
(589,628,cs),
(589,712,o),
(500,716,o),
(460,716,cs),
(29,716,l),
(29,636,l),
(79,636,o),
(96,609,o),
(96,569,cs),
(96,495,ls),
(96,455,o),
(79,434,o),
(29,434,c),
(29,0,l),
(322,0,l),
(322,439,l),
(271,439,o),
(254,460,o),
(254,507,c),
(314,507,ls),
(359,507,o),
(379,478,o),
(379,434,cs),
(379,117,ls),
(379,44,o),
(413,-8,o),
(527,-8,cs)
);
},
{
closed = 1;
nodes = (
(254,636,l),
(359,636,ls),
(387,636,o),
(400,622,o),
(400,604,cs),
(400,582,o),
(384,571,o),
(358,571,cs),
(254,571,l)
);
},
{
pos = (29,150);
ref = _part.cut;
},
{
pos = (29,259);
ref = _part.cut;
},
{
pos = (379,150);
ref = _part.cut;
},
{
pos = (379,259);
ref = _part.cut;
}
);
width = 699;
},
{
anchors = (
{
name = bottom;
pos = (351,0);
},
{
name = top;
pos = (311,716);
}
);
associatedMasterId = m01;
attr = {
coordinates = (
50
);
};
layerId = "67EC03A2-940E-4246-BF0C-0025B457DFFF";
name = "Jan 3, 24 at 09:52";
shapes = (
{
closed = 1;
nodes = (
(671,-8,l),
(671,434,l),
(553,434,o),
(615,539,o),
(456,539,c),
(456,544,l),
(474,544,ls),
(511,544,o),
(589,560,o),
(589,628,cs),
(589,712,o),
(500,716,o),
(460,716,cs),
(29,716,l),
(29,636,l),
(79,636,o),
(96,609,o),
(96,569,cs),
(96,495,ls),
(96,455,o),
(79,434,o),
(29,434,c),
(29,0,l),
(322,0,l),
(322,439,l),
(271,439,o),
(254,460,o),
(254,507,c),
(314,507,ls),
(359,507,o),
(379,478,o),
(379,434,cs),
(379,117,ls),
(379,44,o),
(413,-8,o),
(527,-8,cs)
);
},
{
closed = 1;
nodes = (
(254,636,l),
(359,636,ls),
(387,636,o),
(400,622,o),
(400,604,cs),
(400,582,o),
(384,571,o),
(358,571,cs),
(254,571,l)
);
},
{
pos = (29,198);
ref = _part.cut;
},
{
pos = (29,307);
ref = _part.cut;
},
{
pos = (379,198);
ref = _part.cut;
},
{
pos = (379,307);
ref = _part.cut;
}
);
width = 699;
},
{
anchors = (
{
name = bottom;
pos = (351,0);
},
{
name = top;
pos = (311,716);
}
);
associatedMasterId = m01;
attr = {
coordinates = (
100
);
};
layerId = "8F40E8F6-815B-4BE3-B873-66BE00724B0F";
name = "Jan 3, 24 at 09:52";
shapes = (
{
closed = 1;
nodes = (
(671,-8,l),
(671,434,l),
(553,434,o),
(615,539,o),
(456,539,c),
(456,544,l),
(474,544,ls),
(511,544,o),
(589,560,o),
(589,628,cs),
(589,712,o),
(500,716,o),
(460,716,cs),
(29,716,l),
(29,636,l),
(79,636,o),
(96,609,o),
(96,569,cs),
(96,495,ls),
(96,455,o),
(79,434,o),
(29,434,c),
(29,0,l),
(322,0,l),
(322,439,l),
(271,439,o),
(254,459,o),
(254,506,c),
(314,506,ls),
(359,506,o),
(379,478,o),
(379,434,cs),
(379,117,ls),
(379,44,o),
(413,-8,o),
(527,-8,cs)
);
},
{
closed = 1;
nodes = (
(254,636,l),
(359,636,ls),
(387,636,o),
(400,622,o),
(400,604,cs),
(400,582,o),
(384,571,o),
(358,571,cs),
(254,571,l)
);
},
{
pos = (29,199);
ref = _part.cut;
},
{
pos = (29,308);
ref = _part.cut;
},
{
pos = (379,199);
ref = _part.cut;
},
{
pos = (379,308);
ref = _part.cut;
}
);
width = 699;
}
);
metricLeft = H;
unicode = 82;
},
{
glyphname = S;
lastChange = "2024-01-03 11:08:59 +0000";
layers = (
{
anchors = (
{
name = bottom;
pos = (322,0);
},
{
name = top;
pos = (292,716);
}
);
background = {
shapes = (
{
closed = 1;
nodes = (
(382,0,l),
(543,0,o),
(595,108,o),
(595,215,cs),
(595,302,ls),
(595,499,o),
(535,549,o),
(355,559,cs),
(296,562,ls),
(232,566,o),
(224,579,o),
(224,599,cs),
(224,624,o),
(255,636,o),
(290,636,cs),
(319,636,ls),
(362,636,o),
(386,620,o),
(386,591,c),
(560,591,l),
(560,664,o),
(504,716,o),
(397,716,cs),
(238,716,ls),
(113,716,o),
(40,679,o),
(40,603,cs),
(40,543,o),
(83,503,o),
(199,497,cs),
(349,490,ls),
(389,488,o),
(397,477,o),
(397,457,cs),
(397,436,o),
(382,425,o),
(349,425,cs),
(274,425,ls),
(242,425,o),
(225,436,o),
(225,464,c),
(30,464,l),
(30,215,ls),
(30,60,o),
(125,0,o),
(238,0,cs)
);
}
);
};
layerId = m01;
shapes = (
{
closed = 1;
nodes = (
(406,-6,ls),
(515,-6,o),
(595,71,o),
(595,178,cs),
(595,373,ls),
(595,502,o),
(531,549,o),
(366,564,cs),
(248,575,o),
(223,583,o),
(223,610,cs),
(223,626,o),
(242,636,o),
(271,636,cs),
(325,636,ls),
(368,636,o),
(392,620,o),
(392,591,c),
(566,591,l),
(566,668,o),
(508,716,o),
(415,716,cs),
(204,716,ls),
(96,716,o),
(39,679,o),
(39,610,cs),
(39,539,o),
(90,513,o),
(262,495,cs),
(379,483,o),
(400,476,o),
(400,454,cs),
(400,433,o),
(387,425,o),
(352,425,cs),
(265,425,ls),
(235,425,o),
(225,434,o),
(225,464,c),
(30,464,l),
(30,178,ls),
(30,71,o),
(110,-6,o),
(219,-6,cs)
);
},
{
pos = (30,150);
ref = _part.cut;
},
{
pos = (30,259);
ref = _part.cut;
},
{
pos = (595,150);
ref = _part.cut;
scale = (-1,1);
},
{
pos = (595,259);
ref = _part.cut;
scale = (-1,1);
}
);
width = 625;
},
{
anchors = (
{
name = bottom;
pos = (322,0);
},
{
name = top;
pos = (292,716);
}
);
associatedMasterId = m01;
attr = {
coordinates = (
50
);
};
background = {
shapes = (
{
closed = 1;
nodes = (
(382,0,l),
(543,0,o),
(595,108,o),
(595,215,cs),
(595,302,ls),
(595,499,o),
(535,549,o),
(355,559,cs),
(296,562,ls),
(232,566,o),
(224,579,o),
(224,599,cs),
(224,624,o),
(255,636,o),
(290,636,cs),
(319,636,ls),
(362,636,o),
(386,620,o),
(386,591,c),
(560,591,l),
(560,664,o),
(504,716,o),
(397,716,cs),
(238,716,ls),
(113,716,o),
(40,679,o),
(40,603,cs),
(40,543,o),
(83,503,o),
(199,497,cs),
(349,490,ls),
(389,488,o),
(397,477,o),
(397,457,cs),
(397,436,o),
(382,425,o),
(349,425,cs),
(274,425,ls),
(242,425,o),
(225,436,o),
(225,464,c),
(30,464,l),
(30,215,ls),
(30,60,o),
(125,0,o),
(238,0,cs)
);
}
);
};
layerId = "43F1EC70-1B8F-45E5-A45C-B5A70860EA6D";
name = "Jan 3, 24 at 09:56";
shapes = (
{
closed = 1;
nodes = (
(406,-6,ls),
(515,-6,o),
(595,71,o),
(595,178,cs),
(595,373,ls),
(595,502,o),
(531,549,o),
(366,564,cs),
(248,575,o),
(223,583,o),
(223,610,cs),
(223,626,o),
(242,636,o),
(271,636,cs),
(325,636,ls),
(368,636,o),
(392,620,o),
(392,591,c),
(566,591,l),
(566,668,o),
(508,716,o),
(415,716,cs),
(204,716,ls),
(96,716,o),
(39,679,o),
(39,610,cs),
(39,539,o),
(90,513,o),
(262,495,cs),
(379,483,o),
(400,476,o),
(400,454,cs),
(400,433,o),
(387,425,o),
(352,425,cs),
(265,425,ls),
(235,425,o),
(225,434,o),
(225,464,c),
(30,464,l),
(30,178,ls),
(30,71,o),
(110,-6,o),
(219,-6,cs)
);
},
{
pos = (30,198);
ref = _part.cut;
},
{
pos = (30,307);
ref = _part.cut;
},
{
pos = (595,198);
ref = _part.cut;
scale = (-1,1);
},
{
pos = (595,307);
ref = _part.cut;
scale = (-1,1);
}
);
width = 625;
},
{
anchors = (
{
name = bottom;
pos = (322,0);
},
{
name = top;
pos = (292,716);
}
);
associatedMasterId = m01;
attr = {
coordinates = (
100
);
};
background = {
shapes = (
{
closed = 1;
nodes = (
(382,0,l),
(543,0,o),
(595,108,o),
(595,215,cs),
(595,302,ls),
(595,499,o),
(535,549,o),
(355,559,cs),
(296,562,ls),
(232,566,o),
(224,579,o),
(224,599,cs),
(224,624,o),
(255,636,o),
(290,636,cs),
(319,636,ls),
(362,636,o),
(386,620,o),
(386,591,c),
(560,591,l),
(560,664,o),
(504,716,o),
(397,716,cs),
(238,716,ls),
(113,716,o),
(40,679,o),
(40,603,cs),
(40,543,o),
(83,503,o),
(199,497,cs),
(349,490,ls),
(389,488,o),
(397,477,o),
(397,457,cs),
(397,436,o),
(382,425,o),
(349,425,cs),
(274,425,ls),
(242,425,o),
(225,436,o),
(225,464,c),
(30,464,l),
(30,215,ls),
(30,60,o),
(125,0,o),
(238,0,cs)
);
}
);
};
layerId = "B0F74949-9ED6-436C-A6F6-F4FA5CCE2F01";
name = "Jan 3, 24 at 09:56";
shapes = (
{
closed = 1;
nodes = (
(406,-6,ls),
(515,-6,o),
(595,71,o),
(595,178,cs),
(595,373,ls),
(595,502,o),
(531,549,o),
(366,564,cs),
(248,575,o),
(223,583,o),
(223,610,cs),
(223,626,o),
(242,636,o),
(271,636,cs),
(325,636,ls),
(368,636,o),
(392,620,o),
(392,591,c),
(566,591,l),
(566,668,o),
(508,716,o),
(415,716,cs),
(204,716,ls),
(96,716,o),
(39,679,o),
(39,610,cs),
(39,539,o),
(90,513,o),
(262,495,cs),
(379,483,o),
(400,476,o),
(400,454,cs),
(400,433,o),
(387,425,o),
(352,425,cs),
(265,425,ls),
(235,425,o),
(225,434,o),
(225,464,c),
(30,464,l),
(30,178,ls),
(30,71,o),
(110,-6,o),
(219,-6,cs)
);
},
{
pos = (30,199);
ref = _part.cut;
},
{
pos = (30,308);
ref = _part.cut;
},
{
pos = (595,199);
ref = _part.cut;
scale = (-1,1);
},
{
pos = (595,308);
ref = _part.cut;
scale = (-1,1);
}
);
width = 625;
}
);
unicode = 83;
},
{
glyphname = T;
lastChange = "2024-01-03 13:39:10 +0000";
layers = (
{
anchors = (
{
name = bottom;
pos = (271,0);
},
{
name = center;
pos = (271,358);
},
{
name = top;
pos = (265,716);
}
);
layerId = m01;
shapes = (
{
closed = 1;
nodes = (
(502,0,l),
(502,434,l),
(417,434,ls),
(367,434,o),
(350,460,o),
(350,500,cs),
(350,636,l),
(375,636,ls),
(425,636,o),
(442,603,o),
(442,563,cs),
(442,511,l),
(532,511,l),
(532,716,l),
(10,716,l),
(10,511,l),
(100,511,l),
(100,564,ls),
(100,604,o),
(117,636,o),
(167,636,cs),
(192,636,l),
(192,495,ls),
(192,455,o),
(175,434,o),
(125,434,cs),
(40,434,l),
(40,0,l)
);
},
{
pos = (40,150);
ref = _part.cut;
},
{
pos = (40,259);
ref = _part.cut;
},
{
pos = (502,150);
ref = _part.cut;
scale = (-1,1);
},
{
pos = (502,259);
ref = _part.cut;
scale = (-1,1);
}
);
width = 542;
},
{
anchors = (
{
name = bottom;
pos = (271,0);
},
{
name = center;
pos = (271,358);
},
{
name = top;
pos = (265,716);
}
);
associatedMasterId = m01;
attr = {
coordinates = (
50
);
};
layerId = "4F4900F9-ED02-4A2D-A560-092DECC20008";
name = "Jan 3, 24 at 09:59";
shapes = (
{
closed = 1;
nodes = (
(502,0,l),
(502,434,l),
(417,434,ls),
(367,434,o),
(350,460,o),
(350,500,cs),
(350,636,l),
(375,636,ls),
(425,636,o),
(442,603,o),
(442,563,cs),
(442,511,l),
(532,511,l),
(532,716,l),
(10,716,l),
(10,511,l),
(100,511,l),
(100,564,ls),
(100,604,o),
(117,636,o),
(167,636,cs),
(192,636,l),
(192,495,ls),
(192,455,o),
(175,434,o),
(125,434,cs),
(40,434,l),
(40,0,l)
);
},
{
pos = (40,198);
ref = _part.cut;
},
{
pos = (40,307);
ref = _part.cut;
},
{
pos = (502,198);
ref = _part.cut;
scale = (-1,1);
},
{
pos = (502,307);
ref = _part.cut;
scale = (-1,1);
}
);
width = 542;
},
{
anchors = (
{
name = bottom;
pos = (271,0);
},
{
name = center;
pos = (271,358);
},
{
name = top;
pos = (265,716);
}
);
associatedMasterId = m01;
attr = {
coordinates = (
100
);
};
layerId = "E6A59642-E54D-40C1-949C-2554C0B844FB";
name = "Jan 3, 24 at 09:59";
shapes = (
{
closed = 1;
nodes = (
(502,0,l),
(502,434,l),
(417,434,ls),
(367,434,o),
(350,460,o),
(350,500,cs),
(350,636,l),
(375,636,ls),
(425,636,o),
(442,603,o),
(442,563,cs),
(442,511,l),
(532,511,l),
(532,716,l),
(10,716,l),
(10,511,l),
(100,511,l),
(100,564,ls),
(100,604,o),
(117,636,o),
(167,636,cs),
(192,636,l),
(192,495,ls),
(192,455,o),
(175,434,o),
(125,434,cs),
(40,434,l),
(40,0,l)
);
},
{
pos = (40,199);
ref = _part.cut;
},
{
pos = (40,308);
ref = _part.cut;
},
{
pos = (502,199);
ref = _part.cut;
scale = (-1,1);
},
{
pos = (502,308);
ref = _part.cut;
scale = (-1,1);
}
);
width = 542;
}
);
unicode = 84;
},
{
glyphname = U;
lastChange = "2024-01-03 14:27:14 +0000";
layers = (
{
anchors = (
{
name = bottom;
pos = (344,0);
},
{
name = horn;
pos = (658,636);
},
{
name = ogonek;
pos = (658,0);
},
{
name = top;
pos = (346,716);
}
);
background = {
shapes = (
{
closed = 1;
nodes = (
(337,-8,ls),
(449,-8,o),
(496,36,o),
(496,139,cs),
(496,172,l),
(532,172,o),
(548,156,o),
(555,113,cs),
(574,0,l),
(658,0,l),
(658,434,l),
(613,434,o),
(591,455,o),
(591,500,cs),
(591,564,ls),
(591,611,o),
(614,636,o),
(658,636,c),
(658,716,l),
(381,716,l),
(381,631,l),
(422,631,o),
(443,608,o),
(443,564,cs),
(443,492,ls),
(443,460,o),
(427,439,o),
(402,439,cs),
(302,439,ls),
(277,439,o),
(261,460,o),
(261,492,cs),
(261,564,ls),
(261,608,o),
(282,631,o),
(323,631,c),
(323,716,l),
(36,716,l),
(36,636,l),
(80,636,o),
(103,611,o),
(103,564,cs),
(103,500,ls),
(103,455,o),
(81,434,o),
(36,434,c),
(36,178,ls),
(36,71,o),
(116,-8,o),
(225,-8,cs)
);
},
{
pos = (11,5);
ref = cutdetail.part;
}
);
};
layerId = m01;
shapes = (
{
closed = 1;
nodes = (
(337,-6,ls),
(449,-6,o),
(496,38,o),
(496,141,cs),
(496,174,l),
(532,174,o),
(548,158,o),
(555,115,cs),
(574,0,l),
(658,0,l),
(658,434,l),
(613,434,o),
(591,455,o),
(591,500,cs),
(591,564,ls),
(591,611,o),
(614,636,o),
(658,636,c),
(658,716,l),
(381,716,l),
(381,631,l),
(422,631,o),
(443,608,o),
(443,564,cs),
(443,492,ls),
(443,460,o),
(427,439,o),
(402,439,cs),
(381,439,o),
(359,448,o),
(355,501,c),
(348,501,l),
(344,448,o),
(323,439,o),
(302,439,cs),
(277,439,o),
(261,460,o),
(261,492,cs),
(261,564,ls),
(261,608,o),
(282,631,o),
(323,631,c),
(323,716,l),
(36,716,l),
(36,636,l),
(80,636,o),
(103,611,o),
(103,564,cs),
(103,500,ls),
(103,455,o),
(81,434,o),
(36,434,c),
(36,186,ls),
(36,75,o),
(116,-6,o),
(225,-6,cs)
);
},
{
pos = (36,150);
ref = _part.cut;
},
{
pos = (36,259);
ref = _part.cut;
}
);
width = 687;
},
{
anchors = (
{
name = bottom;
pos = (344,0);
},
{
name = horn;
pos = (658,636);
},
{
name = ogonek;
pos = (658,0);
},
{
name = top;
pos = (346,716);
}
);
associatedMasterId = m01;
attr = {
coordinates = (
50
);
};
background = {
shapes = (
{
closed = 1;
nodes = (
(337,-8,ls),
(449,-8,o),
(496,36,o),
(496,139,cs),
(496,172,l),
(532,172,o),
(548,156,o),
(555,113,cs),
(574,0,l),
(658,0,l),
(658,434,l),
(613,434,o),
(591,455,o),
(591,500,cs),
(591,564,ls),
(591,611,o),
(614,636,o),
(658,636,c),
(658,716,l),
(381,716,l),
(381,631,l),
(422,631,o),
(443,608,o),
(443,564,cs),
(443,492,ls),
(443,460,o),
(427,439,o),
(402,439,cs),
(302,439,ls),
(277,439,o),
(261,460,o),
(261,492,cs),
(261,564,ls),
(261,608,o),
(282,631,o),
(323,631,c),
(323,716,l),
(36,716,l),
(36,636,l),
(80,636,o),
(103,611,o),
(103,564,cs),
(103,500,ls),
(103,455,o),
(81,434,o),
(36,434,c),
(36,178,ls),
(36,71,o),
(116,-8,o),
(225,-8,cs)
);
},
{
pos = (11,5);
ref = cutdetail.part;
}
);
};
layerId = "37E02C5C-8ADF-4441-AAD6-7D78B9AF5B9E";
name = "Jan 3, 24 at 11:56";
shapes = (
{
closed = 1;
nodes = (
(337,-6,ls),
(449,-6,o),
(496,38,o),
(496,141,cs),
(496,174,l),
(532,174,o),
(548,158,o),
(555,115,cs),
(574,0,l),
(658,0,l),
(658,434,l),
(613,434,o),
(591,455,o),
(591,500,cs),
(591,564,ls),
(591,611,o),
(614,636,o),
(658,636,c),
(658,716,l),
(381,716,l),
(381,631,l),
(422,631,o),
(443,608,o),
(443,564,cs),
(443,492,ls),
(443,460,o),
(427,439,o),
(402,439,cs),
(381,439,o),
(359,448,o),
(355,501,c),
(348,501,l),
(344,448,o),
(323,439,o),
(302,439,cs),
(277,439,o),
(261,460,o),
(261,492,cs),
(261,564,ls),
(261,608,o),
(282,631,o),
(323,631,c),
(323,716,l),
(36,716,l),
(36,636,l),
(80,636,o),
(103,611,o),
(103,564,cs),
(103,500,ls),
(103,455,o),
(81,434,o),
(36,434,c),
(36,186,ls),
(36,75,o),
(116,-6,o),
(225,-6,cs)
);
},
{
pos = (36,198);
ref = _part.cut;
},
{
pos = (36,307);
ref = _part.cut;
}
);
width = 687;
},
{
anchors = (
{
name = bottom;
pos = (344,0);
},
{
name = horn;
pos = (658,636);
},
{
name = ogonek;
pos = (658,0);
},
{
name = top;
pos = (346,716);
}
);
associatedMasterId = m01;
attr = {
coordinates = (
100
);
};
background = {
shapes = (
{
closed = 1;
nodes = (
(337,-8,ls),
(449,-8,o),
(496,36,o),
(496,139,cs),
(496,172,l),
(532,172,o),
(548,156,o),
(555,113,cs),
(574,0,l),
(658,0,l),
(658,434,l),
(613,434,o),
(591,455,o),
(591,500,cs),
(591,564,ls),
(591,611,o),
(614,636,o),
(658,636,c),
(658,716,l),
(381,716,l),
(381,631,l),
(422,631,o),
(443,608,o),
(443,564,cs),
(443,492,ls),
(443,460,o),
(427,439,o),
(402,439,cs),
(302,439,ls),
(277,439,o),
(261,460,o),
(261,492,cs),
(261,564,ls),
(261,608,o),
(282,631,o),
(323,631,c),
(323,716,l),
(36,716,l),
(36,636,l),
(80,636,o),
(103,611,o),
(103,564,cs),
(103,500,ls),
(103,455,o),
(81,434,o),
(36,434,c),
(36,178,ls),
(36,71,o),
(116,-8,o),
(225,-8,cs)
);
},
{
pos = (11,5);
ref = cutdetail.part;
}
);
};
layerId = "0B7D38F1-85A6-440E-B4DB-EC3E7ED318C5";
name = "Jan 3, 24 at 11:56";
shapes = (
{
closed = 1;
nodes = (
(337,-6,ls),
(449,-6,o),
(496,38,o),
(496,141,cs),
(496,174,l),
(532,174,o),
(548,158,o),
(555,115,cs),
(574,0,l),
(658,0,l),
(658,434,l),
(613,434,o),
(591,455,o),
(591,500,cs),
(591,564,ls),
(591,611,o),
(614,636,o),
(658,636,c),
(658,716,l),
(381,716,l),
(381,631,l),
(422,631,o),
(443,608,o),
(443,564,cs),
(443,492,ls),
(443,460,o),
(427,439,o),
(402,439,cs),
(381,439,o),
(359,448,o),
(355,501,c),
(348,501,l),
(344,448,o),
(323,439,o),
(302,439,cs),
(277,439,o),
(261,460,o),
(261,492,cs),
(261,564,ls),
(261,608,o),
(282,631,o),
(323,631,c),
(323,716,l),
(36,716,l),
(36,636,l),
(80,636,o),
(103,611,o),
(103,564,cs),
(103,500,ls),
(103,455,o),
(81,434,o),
(36,434,c),
(36,186,ls),
(36,75,o),
(116,-6,o),
(225,-6,cs)
);
},
{
pos = (36,186);
ref = _part.cut;
},
{
pos = (36,308);
ref = _part.cut;
}
);
width = 687;
}
);
metricRight = H;
unicode = 85;
},
{
glyphname = V;
lastChange = "2024-01-03 13:41:32 +0000";
layers = (
{
anchors = (
{
name = bottom;
pos = (300,0);
},
{
name = top;
pos = (330,716);
}
);
background = {
shapes = (
{
closed = 1;
nodes = (
(476,0,l),
(559,434,l),
(476,433,o),
(448,474,o),
(486,543,cs),
(509,584,ls),
(533,624,o),
(553,636,o),
(599,636,c),
(599,716,l),
(375,716,l),
(375,631,l),
(423,631,o),
(441,603,o),
(417,565,cs),
(348,452,l),
(346,452,l),
(276,564,ls),
(251,604,o),
(268,631,o),
(317,631,c),
(317,716,l),
(0,716,l),
(0,636,l),
(10,636,ls),
(48,636,o),
(83,611,o),
(100,571,cs),
(123,519,ls),
(143,473,o),
(107,434,o),
(44,434,c),
(127,0,l)
);
}
);
};
layerId = m01;
shapes = (
{
closed = 1;
nodes = (
(476,0,l),
(559,434,l),
(476,433,o),
(448,474,o),
(486,543,cs),
(509,584,ls),
(533,624,o),
(553,636,o),
(599,636,c),
(599,716,l),
(375,716,l),
(375,631,l),
(423,631,o),
(441,603,o),
(417,565,cs),
(348,452,l),
(346,452,l),
(276,564,ls),
(251,604,o),
(268,631,o),
(317,631,c),
(317,716,l),
(0,716,l),
(0,636,l),
(10,636,ls),
(48,636,o),
(83,611,o),
(100,571,cs),
(123,519,ls),
(143,473,o),
(107,434,o),
(44,434,c),
(56,369,ls),
(60,350,o),
(62,338,o),
(64,327,c),
(66,316,o),
(69,303,o),
(72,285,cs),
(77,260,ls),
(80,241,o),
(83,229,o),
(85,218,c),
(87,207,o),
(89,194,o),
(93,176,cs),
(127,0,l)
);
}
);
width = 599;
},
{
anchors = (
{
name = bottom;
pos = (300,0);
},
{
name = top;
pos = (330,716);
}
);
associatedMasterId = m01;
attr = {
coordinates = (
50
);
};
background = {
shapes = (
{
closed = 1;
nodes = (
(476,0,l),
(559,434,l),
(476,433,o),
(448,474,o),
(486,543,cs),
(509,584,ls),
(533,624,o),
(553,636,o),
(599,636,c),
(599,716,l),
(375,716,l),
(375,631,l),
(423,631,o),
(441,603,o),
(417,565,cs),
(348,452,l),
(346,452,l),
(276,564,ls),
(251,604,o),
(268,631,o),
(317,631,c),
(317,716,l),
(0,716,l),
(0,636,l),
(10,636,ls),
(48,636,o),
(83,611,o),
(100,571,cs),
(123,519,ls),
(143,473,o),
(107,434,o),
(44,434,c),
(127,0,l)
);
}
);
};
layerId = "0D0A59FF-987E-4227-BC3A-12FF42EA6DEB";
name = "Jan 3, 24 at 10:12";
shapes = (
{
closed = 1;
nodes = (
(476,0,l),
(559,434,l),
(476,433,o),
(448,474,o),
(486,543,cs),
(509,584,ls),
(533,624,o),
(553,636,o),
(599,636,c),
(599,716,l),
(375,716,l),
(375,631,l),
(423,631,o),
(441,603,o),
(417,565,cs),
(348,452,l),
(346,452,l),
(276,564,ls),
(251,604,o),
(268,631,o),
(317,631,c),
(317,716,l),
(0,716,l),
(0,636,l),
(10,636,ls),
(48,636,o),
(83,611,o),
(100,571,cs),
(123,519,ls),
(143,473,o),
(107,434,o),
(44,434,c),
(55,375,l),
(83,375,o),
(123,373,o),
(123,341,cs),
(123,309,o),
(96,307,o),
(68,307,c),
(76,266,l),
(104,266,o),
(144,264,o),
(144,232,cs),
(144,200,o),
(117,198,o),
(89,198,c),
(127,0,l)
);
}
);
width = 599;
},
{
anchors = (
{
name = bottom;
pos = (300,0);
},
{
name = top;
pos = (330,716);
}
);
associatedMasterId = m01;
attr = {
coordinates = (
100
);
};
background = {
shapes = (
{
closed = 1;
nodes = (
(476,0,l),
(559,434,l),
(476,433,o),
(448,474,o),
(486,543,cs),
(509,584,ls),
(533,624,o),
(553,636,o),
(599,636,c),
(599,716,l),
(375,716,l),
(375,631,l),
(423,631,o),
(441,603,o),
(417,565,cs),
(348,452,l),
(346,452,l),
(276,564,ls),
(251,604,o),
(268,631,o),
(317,631,c),
(317,716,l),
(0,716,l),
(0,636,l),
(10,636,ls),
(48,636,o),
(83,611,o),
(100,571,cs),
(123,519,ls),
(143,473,o),
(107,434,o),
(44,434,c),
(127,0,l)
);
}
);
};
layerId = "67CE9AFE-18BC-477E-B0A2-54A0415D7160";
name = "Jan 3, 24 at 10:12";
shapes = (
{
closed = 1;
nodes = (
(476,0,l),
(559,434,l),
(476,433,o),
(448,474,o),
(486,543,cs),
(509,584,ls),
(533,624,o),
(553,636,o),
(599,636,c),
(599,716,l),
(375,716,l),
(375,631,l),
(423,631,o),
(441,603,o),
(417,565,cs),
(348,452,l),
(346,452,l),
(276,564,ls),
(251,604,o),
(268,631,o),
(317,631,c),
(317,716,l),
(0,716,l),
(0,636,l),
(10,636,ls),
(48,636,o),
(83,611,o),
(100,571,cs),
(123,519,ls),
(143,473,o),
(107,434,o),
(44,434,c),
(57,368,l),
(86,368,o),
(129,373,o),
(155,405,c),
(155,320,o),
(97,308,o),
(68,308,c),
(77,259,l),
(106,259,o),
(149,264,o),
(175,296,c),
(175,219,o),
(118,199,o),
(89,199,c),
(127,0,l)
);
}
);
width = 599;
}
);
unicode = 86;
},
{
glyphname = W;
lastChange = "2024-01-03 11:08:59 +0000";
layers = (
{
anchors = (
{
name = bottom;
pos = (442,0);
},
{
name = top;
pos = (471,715);
}
);
background = {
shapes = (
{
closed = 1;
nodes = (
(790,0,l),
(854,433,l),
(811,433,o),
(739,462,o),
(777,538,cs),
(799,582,ls),
(814,613,o),
(836,636,o),
(866,636,cs),
(885,636,l),
(885,716,l),
(669,716,l),
(669,631,l),
(717,631,o),
(726,607,o),
(703,564,cs),
(574,335,l),
(731,336,l),
(600,564,ls),
(573,607,o),
(594,631,o),
(626,631,c),
(626,716,l),
(325,716,l),
(325,636,l),
(374,636,o),
(421,614,o),
(444,574,cs),
(468,533,ls),
(496,485,o),
(518,439,o),
(462,439,c),
(503,0,l)
);
},
{
closed = 1;
nodes = (
(403,0,l),
(442,439,l),
(384,439,o),
(407,482,o),
(438,543,cs),
(459,584,ls),
(481,623,o),
(491,636,o),
(538,636,c),
(538,716,l),
(325,716,l),
(325,631,l),
(370,631,o),
(378,607,o),
(355,564,cs),
(222,337,l),
(387,335,l),
(253,564,ls),
(229,607,o),
(248,631,o),
(282,631,c),
(282,716,l),
(0,716,l),
(0,636,l),
(20,636,ls),
(58,636,o),
(78,609,o),
(95,572,cs),
(110,538,ls),
(149,451,o),
(77,434,o),
(34,434,c),
(111,0,l)
);
}
);
};
layerId = m01;
shapes = (
{
closed = 1;
nodes = (
(790,0,l),
(854,433,l),
(786,433,o),
(749,483,o),
(777,538,cs),
(799,582,ls),
(816,617,o),
(839,636,o),
(866,636,cs),
(885,636,l),
(885,716,l),
(669,716,l),
(669,631,l),
(715,631,o),
(727,609,o),
(703,564,cs),
(653,474,l),
(651,474,l),
(600,564,ls),
(577,601,o),
(588,631,o),
(626,631,c),
(626,716,l),
(325,716,l),
(325,631,l),
(369,631,o),
(379,608,o),
(355,564,cs),
(305,478,l),
(303,478,l),
(253,564,ls),
(231,603,o),
(244,631,o),
(282,631,c),
(282,716,l),
(0,716,l),
(0,636,l),
(20,636,ls),
(52,636,o),
(74,617,o),
(95,572,cs),
(110,538,ls),
(138,476,o),
(107,434,o),
(34,434,c),
(45,369,ls),
(49,350,o),
(51,338,o),
(53,327,c),
(54,316,o),
(57,303,o),
(60,285,cs),
(65,260,ls),
(67,241,o),
(70,229,o),
(72,218,c),
(74,207,o),
(76,194,o),
(80,176,cs),
(111,0,l),
(403,0,l),
(442,439,l),
(396,439,o),
(396,459,o),
(438,543,cs),
(449,564,l),
(450,564,l),
(468,533,ls),
(507,466,o),
(506,439,o),
(462,439,c),
(468,374,ls),
(470,355,o),
(471,343,o),
(472,332,c),
(473,321,o),
(474,308,o),
(476,290,cs),
(478,265,ls),
(479,246,o),
(481,234,o),
(482,223,c),
(483,212,o),
(484,199,o),
(486,181,cs),
(503,0,l)
);
}
);
width = 885;
},
{
anchors = (
{
name = bottom;
pos = (442,0);
},
{
name = top;
pos = (471,715);
}
);
associatedMasterId = m01;
attr = {
coordinates = (
50
);
};
background = {
shapes = (
{
closed = 1;
nodes = (
(790,0,l),
(854,433,l),
(811,433,o),
(739,462,o),
(777,538,cs),
(799,582,ls),
(814,613,o),
(836,636,o),
(866,636,cs),
(885,636,l),
(885,716,l),
(669,716,l),
(669,631,l),
(717,631,o),
(726,607,o),
(703,564,cs),
(574,335,l),
(731,336,l),
(600,564,ls),
(573,607,o),
(594,631,o),
(626,631,c),
(626,716,l),
(325,716,l),
(325,636,l),
(374,636,o),
(421,614,o),
(444,574,cs),
(468,533,ls),
(496,485,o),
(518,439,o),
(462,439,c),
(503,0,l)
);
},
{
closed = 1;
nodes = (
(403,0,l),
(442,439,l),
(384,439,o),
(407,482,o),
(438,543,cs),
(459,584,ls),
(481,623,o),
(491,636,o),
(538,636,c),
(538,716,l),
(325,716,l),
(325,631,l),
(370,631,o),
(378,607,o),
(355,564,cs),
(222,337,l),
(387,335,l),
(253,564,ls),
(229,607,o),
(248,631,o),
(282,631,c),
(282,716,l),
(0,716,l),
(0,636,l),
(20,636,ls),
(58,636,o),
(78,609,o),
(95,572,cs),
(110,538,ls),
(149,451,o),
(77,434,o),
(34,434,c),
(111,0,l)
);
}
);
};
layerId = "E29C68A6-8D3D-46D1-8EFD-863CADE80B16";
name = "Jan 3, 24 at 10:48";
shapes = (
{
closed = 1;
nodes = (
(790,0,l),
(854,433,l),
(786,433,o),
(749,483,o),
(777,538,cs),
(799,582,ls),
(816,617,o),
(839,636,o),
(866,636,cs),
(885,636,l),
(885,716,l),
(669,716,l),
(669,631,l),
(715,631,o),
(727,609,o),
(703,564,cs),
(653,474,l),
(651,474,l),
(600,564,ls),
(577,601,o),
(588,631,o),
(626,631,c),
(626,716,l),
(325,716,l),
(325,631,l),
(369,631,o),
(379,608,o),
(355,564,cs),
(305,478,l),
(303,478,l),
(253,564,ls),
(231,603,o),
(244,631,o),
(282,631,c),
(282,716,l),
(0,716,l),
(0,636,l),
(20,636,ls),
(52,636,o),
(74,617,o),
(95,572,cs),
(110,538,ls),
(138,476,o),
(107,434,o),
(34,434,c),
(44,375,l),
(72,375,o),
(111,373,o),
(111,341,cs),
(111,309,o),
(84,307,o),
(56,307,c),
(64,266,l),
(92,266,o),
(131,264,o),
(131,232,cs),
(131,200,o),
(104,198,o),
(76,198,c),
(111,0,l),
(403,0,l),
(442,439,l),
(396,439,o),
(396,459,o),
(438,543,cs),
(449,564,l),
(450,564,l),
(468,533,ls),
(507,466,o),
(506,439,o),
(462,439,c),
(467,380,l),
(495,380,o),
(532,378,o),
(532,346,cs),
(532,314,o),
(502,312,o),
(474,312,c),
(478,271,l),
(506,271,o),
(543,269,o),
(543,237,cs),
(543,205,o),
(512,203,o),
(484,203,c),
(503,0,l)
);
}
);
width = 885;
},
{
anchors = (
{
name = bottom;
pos = (442,0);
},
{
name = top;
pos = (471,715);
}
);
associatedMasterId = m01;
attr = {
coordinates = (
100
);
};
background = {
shapes = (
{
closed = 1;
nodes = (
(790,0,l),
(854,433,l),
(811,433,o),
(739,462,o),
(777,538,cs),
(799,582,ls),
(814,613,o),
(836,636,o),
(866,636,cs),
(885,636,l),
(885,716,l),
(669,716,l),
(669,631,l),
(717,631,o),
(726,607,o),
(703,564,cs),
(574,335,l),
(731,336,l),
(600,564,ls),
(573,607,o),
(594,631,o),
(626,631,c),
(626,716,l),
(325,716,l),
(325,636,l),
(374,636,o),
(421,614,o),
(444,574,cs),
(468,533,ls),
(496,485,o),
(518,439,o),
(462,439,c),
(503,0,l)
);
},
{
closed = 1;
nodes = (
(403,0,l),
(442,439,l),
(384,439,o),
(407,482,o),
(438,543,cs),
(459,584,ls),
(481,623,o),
(491,636,o),
(538,636,c),
(538,716,l),
(325,716,l),
(325,631,l),
(370,631,o),
(378,607,o),
(355,564,cs),
(222,337,l),
(387,335,l),
(253,564,ls),
(229,607,o),
(248,631,o),
(282,631,c),
(282,716,l),
(0,716,l),
(0,636,l),
(20,636,ls),
(58,636,o),
(78,609,o),
(95,572,cs),
(110,538,ls),
(149,451,o),
(77,434,o),
(34,434,c),
(111,0,l)
);
}
);
};
layerId = "82C974BF-5CF2-4B55-87EE-08513B04F0B6";
name = "Jan 3, 24 at 10:48";
shapes = (
{
closed = 1;
nodes = (
(790,0,l),
(854,433,l),
(786,433,o),
(749,483,o),
(777,538,cs),
(799,582,ls),
(816,617,o),
(839,636,o),
(866,636,cs),
(885,636,l),
(885,716,l),
(669,716,l),
(669,631,l),
(715,631,o),
(727,609,o),
(703,564,cs),
(653,474,l),
(651,474,l),
(600,564,ls),
(577,601,o),
(588,631,o),
(626,631,c),
(626,716,l),
(325,716,l),
(325,631,l),
(369,631,o),
(379,608,o),
(355,564,cs),
(305,478,l),
(303,478,l),
(253,564,ls),
(231,603,o),
(244,631,o),
(282,631,c),
(282,716,l),
(0,716,l),
(0,636,l),
(20,636,ls),
(52,636,o),
(74,617,o),
(95,572,cs),
(110,538,ls),
(138,476,o),
(107,434,o),
(34,434,c),
(46,368,l),
(75,368,o),
(118,373,o),
(145,405,c),
(135,337,o),
(85,308,o),
(56,308,c),
(65,259,l),
(94,259,o),
(137,264,o),
(163,296,c),
(153,228,o),
(105,199,o),
(76,199,c),
(111,0,l),
(403,0,l),
(442,439,l),
(396,439,o),
(396,459,o),
(438,543,cs),
(449,564,l),
(450,564,l),
(468,533,ls),
(507,466,o),
(506,439,o),
(462,439,c),
(469,373,l),
(498,373,o),
(541,378,o),
(571,410,c),
(555,342,o),
(503,313,o),
(474,313,c),
(478,264,l),
(507,264,o),
(551,269,o),
(580,301,c),
(564,233,o),
(513,204,o),
(484,204,c),
(503,0,l)
);
}
);
width = 885;
}
);
metricLeft = V;
metricRight = V;
unicode = 87;
},
{
glyphname = X;
lastChange = "2024-01-03 11:08:59 +0000";
layers = (
{
anchors = (
{
name = bottom;
pos = (347,0);
},
{
name = top;
pos = (357,715);
}
);
background = {
shapes = (
{
closed = 1;
nodes = (
(662,0,l),
(662,434,l),
(643,434,ls),
(629,434,o),
(607,440,o),
(588,451,cs),
(310,614,ls),
(301,619,o),
(301,631,o),
(311,631,cs),
(332,631,l),
(332,716,l),
(31,716,l),
(31,636,l),
(42,636,l),
(64,636,o),
(100,615,o),
(111,608,cs),
(378,452,ls),
(391,444,o),
(385,434,o),
(372,434,cs),
(354,434,l),
(354,0,l)
);
},
{
closed = 1;
nodes = (
(304,0,l),
(304,436,l),
(270,436,ls),
(253,436,o),
(254,450,o),
(267,458,cs),
(380,530,l),
(252,530,l),
(114,447,ls),
(97,437,o),
(69,434,o),
(33,434,c),
(33,0,l)
);
},
{
closed = 1;
nodes = (
(427,540,l),
(565,619,ls),
(583,629,o),
(601,635,o),
(631,636,c),
(645,636,l),
(645,716,l),
(382,716,l),
(382,631,l),
(402,631,ls),
(424,631,o),
(421,615,o),
(407,607,cs),
(286,540,l)
);
}
);
};
layerId = m01;
shapes = (
{
closed = 1;
nodes = (
(294,0,l),
(294,439,l),
(262,439,ls),
(249,439,o),
(246,452,o),
(257,458,cs),
(309,489,l),
(368,459,ls),
(383,451,o),
(382,439,o),
(366,439,cs),
(349,439,l),
(349,0,l),
(666,0,l),
(666,434,l),
(647,434,ls),
(632,434,o),
(610,441,o),
(592,451,cs),
(437,542,l),
(437,544,l),
(569,619,ls),
(591,631,o),
(610,636,o),
(635,636,cs),
(649,636,l),
(649,716,l),
(392,716,l),
(392,631,l),
(406,631,ls),
(424,631,o),
(429,617,o),
(414,609,cs),
(367,583,l),
(317,612,ls),
(305,619,o),
(305,631,o),
(317,631,cs),
(337,631,l),
(337,716,l),
(27,716,l),
(27,636,l),
(43,636,ls),
(61,636,o),
(80,629,o),
(114,608,cs),
(241,529,l),
(241,527,l),
(108,447,ls),
(92,438,o),
(69,434,o),
(27,434,c),
(27,0,l)
);
},
{
pos = (27,150);
ref = _part.cut;
},
{
pos = (27,259);
ref = _part.cut;
},
{
pos = (349,150);
ref = _part.cut;
},
{
pos = (349,259);
ref = _part.cut;
}
);
width = 693;
},
{
anchors = (
{
name = bottom;
pos = (347,0);
},
{
name = top;
pos = (357,715);
}
);
associatedMasterId = m01;
attr = {
coordinates = (
50
);
};
background = {
shapes = (
{
closed = 1;
nodes = (
(662,0,l),
(662,434,l),
(643,434,ls),
(629,434,o),
(607,440,o),
(588,451,cs),
(310,614,ls),
(301,619,o),
(301,631,o),
(311,631,cs),
(332,631,l),
(332,716,l),
(31,716,l),
(31,636,l),
(42,636,l),
(64,636,o),
(100,615,o),
(111,608,cs),
(378,452,ls),
(391,444,o),
(385,434,o),
(372,434,cs),
(354,434,l),
(354,0,l)
);
},
{
closed = 1;
nodes = (
(304,0,l),
(304,436,l),
(270,436,ls),
(253,436,o),
(254,450,o),
(267,458,cs),
(380,530,l),
(252,530,l),
(114,447,ls),
(97,437,o),
(69,434,o),
(33,434,c),
(33,0,l)
);
},
{
closed = 1;
nodes = (
(427,540,l),
(565,619,ls),
(583,629,o),
(601,635,o),
(631,636,c),
(645,636,l),
(645,716,l),
(382,716,l),
(382,631,l),
(402,631,ls),
(424,631,o),
(421,615,o),
(407,607,cs),
(286,540,l)
);
}
);
};
layerId = "FDE226A6-FEFE-4F36-8FF4-112434F37720";
name = "Jan 3, 24 at 10:56";
shapes = (
{
closed = 1;
nodes = (
(294,0,l),
(294,439,l),
(262,439,ls),
(249,439,o),
(246,452,o),
(257,458,cs),
(309,489,l),
(368,459,ls),
(383,451,o),
(382,439,o),
(366,439,cs),
(349,439,l),
(349,0,l),
(666,0,l),
(666,434,l),
(647,434,ls),
(632,434,o),
(610,441,o),
(592,451,cs),
(437,542,l),
(437,544,l),
(569,619,ls),
(591,631,o),
(610,636,o),
(635,636,cs),
(649,636,l),
(649,716,l),
(392,716,l),
(392,631,l),
(406,631,ls),
(424,631,o),
(429,617,o),
(414,609,cs),
(367,583,l),
(317,612,ls),
(305,619,o),
(305,631,o),
(317,631,cs),
(337,631,l),
(337,716,l),
(27,716,l),
(27,636,l),
(43,636,ls),
(61,636,o),
(80,629,o),
(114,608,cs),
(241,529,l),
(241,527,l),
(108,447,ls),
(92,438,o),
(69,434,o),
(27,434,c),
(27,0,l)
);
},
{
pos = (27,198);
ref = _part.cut;
},
{
pos = (27,307);
ref = _part.cut;
},
{
pos = (349,198);
ref = _part.cut;
},
{
pos = (349,307);
ref = _part.cut;
}
);
width = 693;
},
{
anchors = (
{
name = bottom;
pos = (347,0);
},
{
name = top;
pos = (357,715);
}
);
associatedMasterId = m01;
attr = {
coordinates = (
100
);
};
background = {
shapes = (
{
closed = 1;
nodes = (
(662,0,l),
(662,434,l),
(643,434,ls),
(629,434,o),
(607,440,o),
(588,451,cs),
(310,614,ls),
(301,619,o),
(301,631,o),
(311,631,cs),
(332,631,l),
(332,716,l),
(31,716,l),
(31,636,l),
(42,636,l),
(64,636,o),
(100,615,o),
(111,608,cs),
(378,452,ls),
(391,444,o),
(385,434,o),
(372,434,cs),
(354,434,l),
(354,0,l)
);
},
{
closed = 1;
nodes = (
(304,0,l),
(304,436,l),
(270,436,ls),
(253,436,o),
(254,450,o),
(267,458,cs),
(380,530,l),
(252,530,l),
(114,447,ls),
(97,437,o),
(69,434,o),
(33,434,c),
(33,0,l)
);
},
{
closed = 1;
nodes = (
(427,540,l),
(565,619,ls),
(583,629,o),
(601,635,o),
(631,636,c),
(645,636,l),
(645,716,l),
(382,716,l),
(382,631,l),
(402,631,ls),
(424,631,o),
(421,615,o),
(407,607,cs),
(286,540,l)
);
}
);
};
layerId = "5E21D228-CF81-4347-91F9-3844232F34FD";
name = "Jan 3, 24 at 10:56";
shapes = (
{
closed = 1;
nodes = (
(294,0,l),
(294,439,l),
(262,439,ls),
(249,439,o),
(246,452,o),
(257,458,cs),
(309,489,l),
(368,459,ls),
(383,451,o),
(382,439,o),
(366,439,cs),
(349,439,l),
(349,0,l),
(666,0,l),
(666,434,l),
(647,434,ls),
(632,434,o),
(610,441,o),
(592,451,cs),
(437,542,l),
(437,544,l),
(569,619,ls),
(591,631,o),
(610,636,o),
(635,636,cs),
(649,636,l),
(649,716,l),
(392,716,l),
(392,631,l),
(406,631,ls),
(424,631,o),
(429,617,o),
(414,609,cs),
(367,583,l),
(317,612,ls),
(305,619,o),
(305,631,o),
(317,631,cs),
(337,631,l),
(337,716,l),
(27,716,l),
(27,636,l),
(43,636,ls),
(61,636,o),
(80,629,o),
(114,608,cs),
(241,529,l),
(241,527,l),
(108,447,ls),
(92,438,o),
(69,434,o),
(27,434,c),
(27,0,l)
);
},
{
pos = (27,199);
ref = _part.cut;
},
{
pos = (27,308);
ref = _part.cut;
},
{
pos = (349,199);
ref = _part.cut;
},
{
pos = (349,308);
ref = _part.cut;
}
);
width = 693;
}
);
unicode = 88;
},
{
glyphname = Y;
lastChange = "2024-01-03 11:08:59 +0000";
layers = (
{
anchors = (
{
name = bottom;
pos = (345,0);
},
{
name = top;
pos = (325,716);
},
{
name = topleft;
pos = (24,716);
}
);
background = {
shapes = (
{
closed = 1;
nodes = (
(460,0,ls),
(569,0,o),
(649,79,o),
(649,186,cs),
(649,434,l),
(599,434,o),
(582,460,o),
(582,500,cs),
(582,564,ls),
(582,604,o),
(599,636,o),
(649,636,c),
(649,716,l),
(361,716,l),
(361,631,l),
(401,631,o),
(421,610,o),
(421,575,cs),
(421,488,ls),
(421,464,o),
(393,439,o),
(357,439,cs),
(29,439,l),
(29,0,l)
);
},
{
closed = 1;
nodes = (
(474,560,l),
(262,578,l),
(262,613,o),
(278,631,o),
(308,631,c),
(308,716,l),
(29,716,l),
(29,636,l),
(80,636,o),
(98,607,o),
(98,567,cs),
(98,518,l),
(474,486,l)
);
}
);
};
layerId = m01;
shapes = (
{
closed = 1;
nodes = (
(460,0,ls),
(569,0,o),
(649,79,o),
(649,186,cs),
(649,434,l),
(599,434,o),
(582,460,o),
(582,500,cs),
(582,564,ls),
(582,604,o),
(599,636,o),
(649,636,c),
(649,716,l),
(361,716,l),
(361,631,l),
(401,631,o),
(421,613,o),
(421,565,c),
(262,578,l),
(262,613,o),
(278,631,o),
(308,631,c),
(308,716,l),
(29,716,l),
(29,636,l),
(80,636,o),
(98,607,o),
(98,567,cs),
(98,518,l),
(421,491,l),
(421,464,o),
(393,439,o),
(357,439,cs),
(35,439,l),
(35,0,l)
);
},
{
pos = (35,150);
ref = _part.cut;
},
{
pos = (35,259);
ref = _part.cut;
},
{
pos = (649,150);
ref = _part.cut;
scale = (-1,1);
},
{
pos = (649,259);
ref = _part.cut;
scale = (-1,1);
}
);
width = 685;
},
{
anchors = (
{
name = bottom;
pos = (345,0);
},
{
name = top;
pos = (325,716);
},
{
name = topleft;
pos = (24,716);
}
);
associatedMasterId = m01;
attr = {
coordinates = (
50
);
};
background = {
shapes = (
{
closed = 1;
nodes = (
(460,0,ls),
(569,0,o),
(649,79,o),
(649,186,cs),
(649,434,l),
(599,434,o),
(582,460,o),
(582,500,cs),
(582,564,ls),
(582,604,o),
(599,636,o),
(649,636,c),
(649,716,l),
(361,716,l),
(361,631,l),
(401,631,o),
(421,610,o),
(421,575,cs),
(421,488,ls),
(421,464,o),
(393,439,o),
(357,439,cs),
(29,439,l),
(29,0,l)
);
},
{
closed = 1;
nodes = (
(474,560,l),
(262,578,l),
(262,613,o),
(278,631,o),
(308,631,c),
(308,716,l),
(29,716,l),
(29,636,l),
(80,636,o),
(98,607,o),
(98,567,cs),
(98,518,l),
(474,486,l)
);
}
);
};
layerId = "87706B03-D88A-42F7-85FE-34CDAB6C5937";
name = "Jan 3, 24 at 10:59";
shapes = (
{
closed = 1;
nodes = (
(460,0,ls),
(569,0,o),
(649,79,o),
(649,186,cs),
(649,434,l),
(599,434,o),
(582,460,o),
(582,500,cs),
(582,564,ls),
(582,604,o),
(599,636,o),
(649,636,c),
(649,716,l),
(361,716,l),
(361,631,l),
(401,631,o),
(421,613,o),
(421,565,c),
(262,578,l),
(262,613,o),
(278,631,o),
(308,631,c),
(308,716,l),
(29,716,l),
(29,636,l),
(80,636,o),
(98,607,o),
(98,567,cs),
(98,518,l),
(421,491,l),
(421,464,o),
(393,439,o),
(357,439,cs),
(35,439,l),
(35,0,l)
);
},
{
pos = (35,198);
ref = _part.cut;
},
{
pos = (35,307);
ref = _part.cut;
},
{
pos = (649,198);
ref = _part.cut;
scale = (-1,1);
},
{
pos = (649,307);
ref = _part.cut;
scale = (-1,1);
}
);
width = 685;
},
{
anchors = (
{
name = bottom;
pos = (345,0);
},
{
name = top;
pos = (325,716);
},
{
name = topleft;
pos = (24,716);
}
);
associatedMasterId = m01;
attr = {
coordinates = (
100
);
};
background = {
shapes = (
{
closed = 1;
nodes = (
(460,0,ls),
(569,0,o),
(649,79,o),
(649,186,cs),
(649,434,l),
(599,434,o),
(582,460,o),
(582,500,cs),
(582,564,ls),
(582,604,o),
(599,636,o),
(649,636,c),
(649,716,l),
(361,716,l),
(361,631,l),
(401,631,o),
(421,610,o),
(421,575,cs),
(421,488,ls),
(421,464,o),
(393,439,o),
(357,439,cs),
(29,439,l),
(29,0,l)
);
},
{
closed = 1;
nodes = (
(474,560,l),
(262,578,l),
(262,613,o),
(278,631,o),
(308,631,c),
(308,716,l),
(29,716,l),
(29,636,l),
(80,636,o),
(98,607,o),
(98,567,cs),
(98,518,l),
(474,486,l)
);
}
);
};
layerId = "10A270E8-DD0D-4D0C-A027-1155BC426254";
name = "Jan 3, 24 at 10:59";
shapes = (
{
closed = 1;
nodes = (
(460,0,ls),
(569,0,o),
(649,79,o),
(649,186,cs),
(649,434,l),
(599,434,o),
(582,460,o),
(582,500,cs),
(582,564,ls),
(582,604,o),
(599,636,o),
(649,636,c),
(649,716,l),
(361,716,l),
(361,631,l),
(401,631,o),
(421,613,o),
(421,565,c),
(262,578,l),
(262,613,o),
(278,631,o),
(308,631,c),
(308,716,l),
(29,716,l),
(29,636,l),
(80,636,o),
(98,607,o),
(98,567,cs),
(98,518,l),
(421,491,l),
(421,464,o),
(393,439,o),
(357,439,cs),
(35,439,l),
(35,0,l)
);
},
{
pos = (35,199);
ref = _part.cut;
},
{
pos = (35,308);
ref = _part.cut;
},
{
pos = (649,199);
ref = _part.cut;
scale = (-1,1);
},
{
pos = (649,308);
ref = _part.cut;
scale = (-1,1);
}
);
width = 685;
}
);
metricRight = J;
unicode = 89;
},
{
glyphname = Z;
lastChange = "2024-01-03 11:08:59 +0000";
layers = (
{
anchors = (
{
name = bottom;
pos = (290,0);
},
{
name = center;
pos = (322,552);
},
{
name = ogonek;
pos = (-43,0);
},
{
name = top;
pos = (291,716);
},
{
name = topright;
pos = (547,716);
}
);
layerId = m01;
shapes = (
{
closed = 1;
nodes = (
(561,0,l),
(561,499,l),
(468,499,l),
(468,459,o),
(450,439,o),
(408,439,cs),
(281,439,l),
(281,441,l),
(561,628,l),
(561,716,l),
(28,716,l),
(28,569,l),
(122,569,l),
(122,609,o),
(139,636,o),
(191,636,cs),
(327,636,l),
(327,634,l),
(28,434,l),
(28,0,l)
);
},
{
pos = (28,150);
ref = _part.cut;
},
{
pos = (28,259);
ref = _part.cut;
},
{
pos = (561,150);
ref = _part.cut;
scale = (-1,1);
},
{
pos = (561,259);
ref = _part.cut;
scale = (-1,1);
}
);
width = 588;
},
{
anchors = (
{
name = bottom;
pos = (290,0);
},
{
name = center;
pos = (322,552);
},
{
name = ogonek;
pos = (-43,0);
},
{
name = top;
pos = (291,716);
},
{
name = topright;
pos = (547,716);
}
);
associatedMasterId = m01;
attr = {
coordinates = (
50
);
};
layerId = "9C0D4A43-076F-4E4B-820A-06FE1C17909C";
name = "Jan 3, 24 at 11:02";
shapes = (
{
closed = 1;
nodes = (
(561,0,l),
(561,499,l),
(468,499,l),
(468,459,o),
(450,439,o),
(408,439,cs),
(281,439,l),
(281,441,l),
(561,628,l),
(561,716,l),
(28,716,l),
(28,569,l),
(122,569,l),
(122,609,o),
(139,636,o),
(191,636,cs),
(327,636,l),
(327,634,l),
(28,434,l),
(28,0,l)
);
},
{
pos = (28,198);
ref = _part.cut;
},
{
pos = (28,307);
ref = _part.cut;
},
{
pos = (561,198);
ref = _part.cut;
scale = (-1,1);
},
{
pos = (561,307);
ref = _part.cut;
scale = (-1,1);
}
);
width = 588;
},
{
anchors = (
{
name = bottom;
pos = (290,0);
},
{
name = center;
pos = (322,552);
},
{
name = ogonek;
pos = (-43,0);
},
{
name = top;
pos = (291,716);
},
{
name = topright;
pos = (547,716);
}
);
associatedMasterId = m01;
attr = {
coordinates = (
100
);
};
layerId = "A8217A5C-D436-4592-93B7-58C202B6FE97";
name = "Jan 3, 24 at 11:02";
shapes = (
{
closed = 1;
nodes = (
(561,0,l),
(561,499,l),
(468,499,l),
(468,459,o),
(450,439,o),
(408,439,cs),
(281,439,l),
(281,441,l),
(561,628,l),
(561,716,l),
(28,716,l),
(28,569,l),
(122,569,l),
(122,609,o),
(139,636,o),
(191,636,cs),
(327,636,l),
(327,634,l),
(28,434,l),
(28,0,l)
);
},
{
pos = (28,199);
ref = _part.cut;
},
{
pos = (28,308);
ref = _part.cut;
},
{
pos = (561,199);
ref = _part.cut;
scale = (-1,1);
},
{
pos = (561,308);
ref = _part.cut;
scale = (-1,1);
}
);
width = 588;
}
);
unicode = 90;
},
{
color = 11;
glyphname = dieresiscomb;
layers = (
{
anchors = (
{
name = _top;
pos = (129,729);
},
{
name = top;
pos = (132,865);
}
);
layerId = m01;
shapes = (
{
closed = 1;
nodes = (
(240,758,o),
(266,786,o),
(266,818,cs),
(266,851,o),
(244,879,o),
(206,879,cs),
(184,879,o),
(145,858,o),
(145,818,cs),
(145,788,o),
(173,758,o),
(205,758,cs)
);
},
{
closed = 1;
nodes = (
(84,758,o),
(123,779,o),
(123,819,cs),
(123,849,o),
(95,879,o),
(63,879,cs),
(28,879,o),
(2,851,o),
(2,819,cs),
(2,786,o),
(24,758,o),
(62,758,cs)
);
}
);
width = 268;
}
);
unicode = 776;
},
{
color = 11;
glyphname = dotaccentcomb;
layers = (
{
anchors = (
{
name = _top;
pos = (59,722);
},
{
name = top;
pos = (59,856);
}
);
layerId = m01;
shapes = (
{
closed = 1;
nodes = (
(84,751,o),
(123,772,o),
(123,812,cs),
(123,842,o),
(95,872,o),
(63,872,cs),
(28,872,o),
(2,844,o),
(2,812,cs),
(2,779,o),
(24,751,o),
(62,751,cs)
);
}
);
width = 124;
}
);
unicode = 775;
},
{
color = 11;
glyphname = gravecomb;
layers = (
{
anchors = (
{
name = _top;
pos = (160,716);
},
{
name = top;
pos = (124,851);
}
);
layerId = m01;
shapes = (
{
closed = 1;
nodes = (
(213,754,l),
(140,868,l),
(10,870,l),
(114,754,l)
);
}
);
width = 223;
}
);
unicode = 768;
},
{
color = 11;
glyphname = acutecomb;
layers = (
{
anchors = (
{
name = _top;
pos = (59,716);
},
{
name = top;
pos = (66,863);
}
);
layerId = m01;
shapes = (
{
closed = 1;
nodes = (
(105,753,l),
(212,867,l),
(86,869,l),
(10,752,l)
);
}
);
width = 222;
}
);
unicode = 769;
},
{
color = 11;
glyphname = acutecomb_macroncomb;
layers = (
{
anchors = (
{
name = _top;
pos = (221,900);
},
{
name = top;
pos = (221,0);
}
);
layerId = m01;
shapes = (
{
closed = 1;
nodes = (
(103,650,l),
(197,784,l),
(76,783,l),
(10,650,l)
);
},
{
pos = (375,59);
ref = macroncomb;
scale = (-1,1);
}
);
width = 370;
}
);
},
{
color = 11;
glyphname = hungarumlautcomb;
layers = (
{
anchors = (
{
name = _top;
pos = (126,612);
},
{
name = top;
pos = (10,0);
}
);
layerId = m01;
shapes = (
{
closed = 1;
nodes = (
(96,649,l),
(183,765,l),
(70,767,l),
(10,649,l)
);
},
{
closed = 1;
nodes = (
(233,649,l),
(320,769,l),
(202,768,l),
(155,649,l)
);
}
);
width = 330;
}
);
unicode = 779;
},
{
color = 11;
glyphname = caroncomb.alt;
layers = (
{
anchors = (
{
name = _topright;
pos = (150,716);
}
);
layerId = m01;
shapes = (
{
closed = 1;
nodes = (
(196,760,l),
(229,870,l),
(155,867,l),
(132,760,l)
);
}
);
width = 300;
}
);
},
{
color = 11;
glyphname = circumflexcomb;
layers = (
{
anchors = (
{
name = _top;
pos = (150,720);
},
{
name = top;
pos = (148,881);
}
);
layerId = m01;
shapes = (
{
closed = 1;
nodes = (
(292,753,l),
(214,884,l),
(84,884,l),
(10,757,l),
(92,757,l),
(148,820,l),
(212,753,l)
);
}
);
width = 302;
}
);
unicode = 770;
},
{
color = 11;
glyphname = caroncomb;
layers = (
{
anchors = (
{
name = _top;
pos = (145,711);
},
{
name = top;
pos = (142,858);
}
);
layerId = m01;
shapes = (
{
closed = 1;
nodes = (
(210,753,l),
(281,882,l),
(203,882,l),
(145,811,l),
(90,878,l),
(10,878,l),
(77,753,l)
);
}
);
width = 291;
}
);
unicode = 780;
},
{
color = 11;
glyphname = brevecomb;
layers = (
{
anchors = (
{
name = _top;
pos = (143,716);
}
);
layerId = m01;
shapes = (
{
closed = 1;
nodes = (
(225,745,o),
(269,792,o),
(272,871,c),
(199,871,l),
(199,832,o),
(180,815,o),
(153,815,cs),
(124,815,o),
(107,833,o),
(105,873,c),
(30,872,l),
(30,795,o),
(79,745,o),
(153,745,cs)
);
}
);
width = 302;
}
);
unicode = 774;
},
{
color = 11;
glyphname = ringcomb;
layers = (
{
anchors = (
{
name = _top;
pos = (146,716);
},
{
name = top;
pos = (154,877);
}
);
layerId = m01;
shapes = (
{
closed = 1;
nodes = (
(224,751,ls),
(259,751,o),
(273,768,o),
(273,801,cs),
(273,851,ls),
(273,874,o),
(255,896,o),
(224,896,cs),
(86,896,ls),
(54,896,o),
(37,880,o),
(37,835,cs),
(37,798,ls),
(37,770,o),
(54,751,o),
(88,751,cs)
);
},
{
closed = 1;
nodes = (
(110,811,o),
(103,815,o),
(103,825,cs),
(103,831,ls),
(103,839,o),
(110,845,o),
(121,845,cs),
(194,845,ls),
(203,845,o),
(210,839,o),
(210,832,cs),
(210,824,ls),
(210,815,o),
(204,811,o),
(193,811,cs),
(121,811,ls)
);
}
);
width = 300;
}
);
unicode = 778;
},
{
color = 11;
glyphname = tildecomb;
layers = (
{
anchors = (
{
name = _top;
pos = (133,716);
},
{
name = top;
pos = (139,874);
}
);
layerId = m01;
shapes = (
{
closed = 1;
nodes = (
(114,797,o),
(140,756,o),
(189,756,cs),
(240,756,o),
(275,792,o),
(273,868,c),
(197,868,l),
(197,842,o),
(189,834,o),
(179,834,cs),
(152,834,o),
(126,875,o),
(79,875,cs),
(31,875,o),
(-5,838,o),
(-3,762,c),
(73,762,l),
(73,788,o),
(81,797,o),
(92,797,cs)
);
}
);
width = 275;
}
);
unicode = 771;
},
{
color = 11;
glyphname = macroncomb;
layers = (
{
anchors = (
{
name = _top;
pos = (154,612);
},
{
name = top;
pos = (154,723);
}
);
layerId = m01;
shapes = (
{
closed = 1;
nodes = (
(300,654,l),
(299,726,l),
(10,728,l),
(10,653,l)
);
}
);
width = 310;
}
);
unicode = 772;
},
{
color = 11;
glyphname = macroncomb_gravecomb;
layers = (
{
anchors = (
{
name = _top;
pos = (0,900);
},
{
name = top;
pos = (1,0);
}
);
layerId = m01;
shapes = (
{
closed = 1;
nodes = (
(290,650,l),
(289,713,l),
(10,715,l),
(10,649,l)
);
}
);
width = 300;
}
);
},
{
color = 11;
glyphname = hookabovecomb;
layers = (
{
anchors = (
{
name = _top;
pos = (86,715);
}
);
layerId = m01;
shapes = (
{
closed = 1;
nodes = (
(127,752,l),
(161,775,o),
(183,806,o),
(183,845,cs),
(183,885,o),
(146,926,o),
(86,926,cs),
(52,926,o),
(13,913,o),
(-10,896,c),
(-10,823,l),
(9,845,o),
(30,857,o),
(54,857,cs),
(69,857,o),
(95,853,o),
(95,825,cs),
(95,803,o),
(70,769,o),
(47,752,c)
);
}
);
width = 221;
}
);
unicode = 777;
},
{
color = 11;
glyphname = dblgravecomb;
layers = (
{
anchors = (
{
name = _top;
pos = (204,716);
},
{
name = top;
pos = (204,861);
}
);
layerId = m01;
shapes = (
{
closed = 1;
nodes = (
(176,753,l),
(122,866,l),
(10,868,l),
(103,749,l)
);
},
{
closed = 1;
nodes = (
(309,750,l),
(256,864,l),
(144,866,l),
(237,750,l)
);
}
);
width = 319;
}
);
unicode = 783;
},
{
color = 11;
glyphname = candraBinducomb;
layers = (
{
anchors = (
{
name = _top;
pos = (293,636);
},
{
name = top;
}
);
layerId = m01;
shapes = (
{
closed = 1;
nodes = (
(339,717,o),
(385,733,o),
(413,766,cs),
(429,786,o),
(434,795,o),
(436,843,c),
(363,843,l),
(359,826,o),
(359,815,o),
(348,805,cs),
(336,795,o),
(318,787,o),
(296,787,cs),
(267,787,o),
(243,809,o),
(236,835,cs),
(233,845,l),
(159,844,l),
(159,804,o),
(176,777,o),
(190,760,cs),
(212,731,o),
(254,717,o),
(300,717,cs)
);
},
{
closed = 1;
nodes = (
(318,827,o),
(338,846,o),
(338,866,cs),
(338,889,o),
(321,906,o),
(298,906,cs),
(272,906,o),
(258,886,o),
(258,866,cs),
(258,845,o),
(280,827,o),
(298,827,cs)
);
},
{
closed = 0;
nodes = (
(4478,2040,l)
);
}
);
width = 600;
}
);
unicode = 784;
},
{
color = 11;
glyphname = commaabovecomb;
layers = (
{
anchors = (
{
name = _top;
pos = (280,716);
},
{
name = top;
}
);
layerId = m01;
shapes = (
{
closed = 1;
nodes = (
(402,885,l),
(316,887,l),
(267,776,l),
(321,774,l)
);
}
);
width = 600;
}
);
unicode = 787;
},
{
color = 11;
glyphname = horncomb;
layers = (
{
anchors = (
{
name = _horn;
pos = (152,439);
}
);
layerId = m01;
shapes = (
{
closed = 1;
nodes = (
(121,439,ls),
(208,439,o),
(265,508,o),
(265,589,c),
(147,589,l),
(147,549,o),
(130,519,o),
(85,519,c),
(10,519,l),
(10,439,l)
);
}
);
width = 274;
}
);
unicode = 795;
},
{
color = 11;
glyphname = dotbelowcomb;
layers = (
{
anchors = (
{
name = _bottom;
pos = (70,-8);
}
);
layerId = m01;
shapes = (
{
closed = 1;
nodes = (
(92,-160,o),
(131,-139,o),
(131,-99,cs),
(131,-69,o),
(103,-39,o),
(71,-39,cs),
(36,-39,o),
(10,-67,o),
(10,-99,cs),
(10,-132,o),
(32,-160,o),
(70,-160,cs)
);
}
);
width = 141;
}
);
unicode = 803;
},
{
color = 11;
glyphname = commaaccentcomb;
layers = (
{
anchors = (
{
name = _bottom;
pos = (151,0);
},
{
name = bottom;
pos = (142,-180);
}
);
layerId = m01;
shapes = (
{
closed = 1;
nodes = (
(200,-262,o),
(232,-174,o),
(232,-127,cs),
(232,-48,o),
(175,-31,o),
(143,-32,cs),
(101,-31,o),
(63,-65,o),
(63,-114,cs),
(63,-161,o),
(98,-196,o),
(143,-191,c),
(143,-211,o),
(133,-247,o),
(95,-270,c),
(98,-275,l)
);
}
);
width = 300;
}
);
unicode = 806;
},
{
color = 11;
glyphname = cedillacomb;
layers = (
{
anchors = (
{
name = _bottom;
pos = (100,0);
},
{
name = bottom;
pos = (-81,0);
}
);
layerId = m01;
shapes = (
{
closed = 1;
nodes = (
(152,-209,o),
(201,-169,o),
(201,-113,cs),
(201,-77,o),
(180,-42,o),
(132,-31,c),
(161,0,l),
(71,0,l),
(29,-62,l),
(77,-63,o),
(114,-84,o),
(114,-113,cs),
(114,-135,o),
(95,-146,o),
(73,-146,cs),
(52,-146,o),
(26,-131,o),
(10,-107,c),
(10,-178,l),
(29,-196,o),
(64,-209,o),
(95,-209,cs)
);
}
);
width = 211;
}
);
unicode = 807;
},
{
color = 11;
glyphname = ogonekcomb;
layers = (
{
anchors = (
{
name = _ogonek;
pos = (226,0);
}
);
layerId = m01;
shapes = (
{
closed = 1;
nodes = (
(195,-168,o),
(230,-155,o),
(249,-138,c),
(249,-80,l),
(233,-94,o),
(215,-104,o),
(195,-104,cs),
(168,-103,o),
(148,-91,o),
(143,-63,cs),
(140,-42,o),
(161,0,o),
(226,0,c),
(99,0,l),
(77,-16,o),
(58,-43,o),
(58,-77,cs),
(58,-134,o),
(107,-168,o),
(164,-168,cs)
);
}
);
width = 300;
}
);
unicode = 808;
},
{
color = 11;
glyphname = verticallinebelowcomb;
layers = (
{
anchors = (
{
name = _bottom;
},
{
name = bottom;
}
);
layerId = m01;
shapes = (
{
closed = 1;
nodes = (
(325,-69,l),
(277,-69,l),
(259,-210,l),
(342,-212,l)
);
}
);
width = 600;
}
);
unicode = 809;
},
{
color = 11;
glyphname = circumflexbelowcomb;
layers = (
{
anchors = (
{
name = _bottom;
pos = (280,0);
},
{
name = bottom;
pos = (281,0);
}
);
layerId = m01;
shapes = (
{
closed = 1;
nodes = (
(415,-165,l),
(338,-34,l),
(210,-35,l),
(138,-163,l),
(219,-165,l),
(272,-91,l),
(335,-166,l)
);
}
);
width = 600;
}
);
unicode = 813;
},
{
color = 11;
glyphname = tildebelowcomb;
layers = (
{
anchors = (
{
name = _bottom;
pos = (191,0);
},
{
name = bottom;
pos = (172,-168);
}
);
layerId = m01;
shapes = (
{
closed = 1;
nodes = (
(252,-168,o),
(271,-160,o),
(284,-143,cs),
(299,-121,o),
(310,-90,o),
(310,-43,c),
(238,-43,l),
(234,-65,o),
(236,-87,o),
(210,-87,cs),
(194,-87,o),
(181,-75,o),
(168,-65,cs),
(153,-55,o),
(136,-41,o),
(107,-41,cs),
(87,-41,o),
(65,-50,o),
(53,-69,cs),
(41,-89,o),
(35,-118,o),
(35,-158,c),
(107,-160,l),
(110,-140,o),
(113,-129,o),
(127,-126,cs),
(143,-123,o),
(151,-142,o),
(174,-156,cs),
(189,-165,o),
(206,-168,o),
(225,-168,cs)
);
}
);
width = 344;
}
);
unicode = 816;
},
{
color = 11;
glyphname = lowlinecomb;
layers = (
{
anchors = (
{
name = _bottom;
pos = (185,0);
},
{
name = bottom;
pos = (185,-154);
}
);
layerId = m01;
shapes = (
{
closed = 1;
nodes = (
(338,-154,l),
(338,-100,l),
(32,-100,l),
(32,-154,l)
);
}
);
width = 370;
}
);
unicode = 818;
},
{
color = 11;
glyphname = strokeshortcomb;
layers = (
{
anchors = (
{
name = _center;
pos = (157,540);
}
);
layerId = m01;
shapes = (
{
closed = 1;
nodes = (
(302,505,l),
(302,575,l),
(10,575,l),
(10,505,l)
);
}
);
width = 312;
}
);
unicode = 821;
},
{
color = 11;
glyphname = dotaboverightcomb;
layers = (
{
layerId = m01;
shapes = (
{
closed = 1;
nodes = (
(128,607,l),
(128,716,l),
(32,716,l),
(32,607,l)
);
}
);
width = 160;
}
);
unicode = 856;
},
{
color = 11;
glyphname = acutemacroncomb;
layers = (
{
anchors = (
{
name = _top;
pos = (208,900);
},
{
name = top;
pos = (208,716);
}
);
layerId = m01;
shapes = (
{
closed = 1;
nodes = (
(200,604,l),
(383,604,l),
(383,716,l),
(232,716,l),
(170,716,l),
(32,576,l),
(71,487,l)
);
}
);
width = 415;
}
);
unicode = 7623;
},
{
color = 11;
glyphname = brevecomb_acutecomb;
layers = (
{
layerId = m01;
shapes = (
{
closed = 1;
nodes = (
(184,900,l),
(272,993,l),
(177,995,l),
(115,899,l)
);
},
{
pos = (4,0);
ref = brevecomb;
}
);
width = 302;
}
);
},
{
color = 11;
glyphname = brevecomb_gravecomb;
layers = (
{
anchors = (
{
name = _top;
pos = (149,716);
}
);
layerId = m01;
shapes = (
{
closed = 1;
nodes = (
(190,901,l),
(129,996,l),
(29,998,l),
(116,901,l)
);
},
{
ref = brevecomb;
}
);
width = 302;
}
);
},
{
color = 11;
glyphname = brevecomb_tildecomb;
layers = (
{
anchors = (
{
name = _top;
pos = (123,716);
},
{
name = top;
pos = (112,855);
}
);
layerId = m01;
shapes = (
{
closed = 1;
nodes = (
(205,745,o),
(249,792,o),
(252,871,c),
(179,871,l),
(179,832,o),
(160,815,o),
(133,815,cs),
(104,815,o),
(87,833,o),
(85,873,c),
(10,872,l),
(10,795,o),
(59,745,o),
(133,745,cs)
);
},
{
closed = 1;
nodes = (
(116,935,o),
(140,897,o),
(185,897,cs),
(232,897,o),
(264,931,o),
(262,1001,c),
(192,1001,l),
(192,977,o),
(185,969,o),
(176,969,cs),
(151,969,o),
(127,1007,o),
(83,1007,cs),
(39,1007,o),
(6,973,o),
(8,903,c),
(78,903,l),
(78,927,o),
(85,935,o),
(95,935,cs)
);
}
);
width = 279;
}
);
},
{
color = 11;
glyphname = circumflexcomb_acutecomb;
layers = (
{
anchors = (
{
name = _top;
pos = (216,716);
},
{
name = top;
pos = (66,0);
}
);
layerId = m01;
shapes = (
{
closed = 1;
nodes = (
(357,750,l),
(279,881,l),
(149,881,l),
(75,754,l),
(157,754,l),
(213,817,l),
(277,750,l)
);
},
{
closed = 1;
nodes = (
(87,863,l),
(175,956,l),
(72,958,l),
(10,862,l)
);
}
);
width = 367;
}
);
},
{
color = 11;
glyphname = circumflexcomb_gravecomb;
layers = (
{
anchors = (
{
name = _top;
pos = (143,716);
},
{
name = top;
pos = (-7,0);
}
);
layerId = m01;
shapes = (
{
closed = 1;
nodes = (
(293,753,l),
(215,884,l),
(84,884,l),
(10,757,l),
(88,757,l),
(148,820,l),
(212,753,l)
);
},
{
closed = 1;
nodes = (
(346,872,l),
(284,969,l),
(182,971,l),
(270,872,l)
);
}
);
width = 356;
}
);
},
{
color = 11;
glyphname = circumflexcomb_hookabovecomb;
layers = (
{
anchors = (
{
name = _top;
pos = (150,716);
},
{
name = top;
}
);
layerId = m01;
shapes = (
{
closed = 1;
nodes = (
(292,753,l),
(214,884,l),
(84,884,l),
(10,757,l),
(92,757,l),
(148,820,l),
(212,753,l)
);
},
{
closed = 1;
nodes = (
(353,847,l),
(384,868,o),
(404,897,o),
(404,933,cs),
(404,970,o),
(370,1008,o),
(315,1008,cs),
(283,1008,o),
(247,996,o),
(226,980,c),
(226,913,l),
(244,933,o),
(263,944,o),
(285,944,cs),
(299,944,o),
(323,940,o),
(323,914,cs),
(323,894,o),
(300,863,o),
(279,847,c)
);
}
);
width = 445;
}
);
},
{
color = 11;
glyphname = gravemacroncomb;
layers = (
{
anchors = (
{
name = _top;
pos = (213,900);
},
{
name = top;
pos = (213,716);
}
);
layerId = m01;
shapes = (
{
closed = 1;
nodes = (
(242,547,l),
(393,547,l),
(393,599,l),
(200,599,l),
(71,716,l),
(32,687,l),
(170,547,l)
);
}
);
width = 425;
}
);
unicode = 7621;
},
{
color = 11;
glyphname = macronacutecomb;
layers = (
{
anchors = (
{
name = _top;
pos = (213,900);
},
{
name = top;
pos = (213,716);
}
);
layerId = m01;
shapes = (
{
closed = 1;
nodes = (
(183,547,l),
(255,547,l),
(393,687,l),
(354,716,l),
(225,599,l),
(32,599,l),
(32,547,l)
);
}
);
width = 425;
}
);
unicode = 7620;
},
{
color = 11;
glyphname = macrongravecomb;
layers = (
{
anchors = (
{
name = _top;
pos = (208,900);
},
{
name = top;
pos = (208,716);
}
);
layerId = m01;
shapes = (
{
closed = 1;
nodes = (
(383,576,l),
(245,716,l),
(183,716,l),
(32,716,l),
(32,664,l),
(215,664,l),
(344,547,l)
);
}
);
width = 415;
}
);
unicode = 7622;
},
{
color = 5;
glyphname = _part.cut;
lastChange = "2024-01-03 13:40:38 +0000";
layers = (
{
layerId = m01;
shapes = (
{
closed = 1;
nodes = (
(0,117,l),
(0,98,o),
(30,86,o),
(30,75,c),
(30,64,o),
(0,51,o),
(0,33,c)
);
}
);
width = 600;
},
{
associatedMasterId = m01;
attr = {
coordinates = (
50
);
};
layerId = "10F08360-6109-434E-9082-BEA660E032D2";
name = "{700, 1} Nov 20, 23 at 14:27";
shapes = (
{
closed = 1;
nodes = (
(0,68,l),
(28,68,o),
(58,66,o),
(58,34,cs),
(58,2,o),
(28,0,o),
(0,0,c)
);
}
);
width = 600;
},
{
associatedMasterId = m01;
attr = {
coordinates = (
100
);
};
layerId = "2AF8FCD9-7FCB-4A1D-97FB-39C62E7F585B";
name = "{700, 2} Nov 15, 23 at 14:40";
shapes = (
{
closed = 1;
nodes = (
(0,60,l),
(29,60,o),
(66,65,o),
(98,97,c),
(87,19,o),
(29,0,o),
(0,0,c)
);
}
);
width = 600;
}
);
},
{
color = 11;
glyphname = hooktop.part;
layers = (
{
anchors = (
{
name = _hooktop;
pos = (90,564);
}
);
layerId = m01;
shapes = (
{
closed = 1;
nodes = (
(90,564,l),
(90,626,ls),
(90,687,o),
(101,720,o),
(169,728,c),
(169,840,l),
(72,840,o),
(12,776,o),
(27,681,c),
(10,564,l)
);
}
);
width = 179;
}
);
},
{
export = 0;
glyphname = cutdetail.part;
lastChange = "2024-01-03 11:09:12 +0000";
layers = (
{
layerId = m01;
shapes = (
{
closed = 1;
nodes = (
(391,409,l),
(391,434,l),
(370,434,o),
(348,443,o),
(344,496,c),
(337,496,l),
(333,443,o),
(312,434,o),
(291,434,c),
(291,409,l)
);
}
